<?xml version="1.0" standalone="no"?>
<!DOCTYPE svg PUBLIC "-//W3C//DTD SVG 20010904//EN"
 "http://www.w3.org/TR/2001/REC-SVG-20010904/DTD/svg10.dtd">
<svg version="1.0" xmlns="http://www.w3.org/2000/svg"
 width="512.000000pt" height="512.000000pt" viewBox="0 0 512.000000 512.000000"
 preserveAspectRatio="xMidYMid meet">
<metadata>
Created by potrace 1.16, written by Peter Selinger 2001-2019
</metadata>
<g transform="translate(0.000000,512.000000) scale(0.100000,-0.100000)"
fill="#000000" stroke="none">
<path d="M3005 4685 c-22 -8 -48 -15 -58 -15 -30 0 -95 -38 -118 -69 -19 -27
-27 -29 -102 -33 -89 -5 -154 -28 -216 -76 -19 -15 -52 -34 -72 -42 -100 -40
-169 -119 -169 -193 0 -20 -10 -47 -25 -68 -38 -51 -59 -131 -51 -201 7 -71
26 -110 77 -164 l40 -40 -51 -35 c-58 -40 -61 -53 -24 -124 33 -63 89 -122
128 -135 24 -8 42 -29 80 -95 27 -47 79 -118 116 -157 l67 -73 62 0 c33 0 61
-3 61 -7 0 -4 -33 -17 -72 -29 -89 -26 -144 -53 -181 -88 -43 -40 -91 -135
-126 -248 -17 -56 -36 -105 -42 -109 -26 -16 -39 -72 -29 -126 l10 -53 -87
-180 c-52 -107 -98 -190 -115 -205 -18 -16 -28 -35 -28 -52 0 -22 -7 -31 -32
-42 -18 -7 -64 -39 -103 -70 -42 -34 -78 -55 -90 -54 -18 3 -31 52 -122 468
-122 552 -118 536 -146 554 -18 11 -124 15 -552 21 l-530 7 -27 -22 c-37 -29
-36 -54 8 -265 90 -431 142 -711 135 -718 -4 -4 -16 5 -26 20 -16 24 -16 26
-2 14 30 -24 18 6 -21 56 -30 37 -266 306 -323 368 -6 5 -13 5 -19 -1 -12 -12
17 -57 31 -48 5 3 8 1 7 -4 -4 -14 42 -73 52 -67 8 5 188 -190 242 -261 33
-45 -1 -8 -127 134 -60 67 -110 120 -113 118 -2 -3 58 -76 133 -163 167 -193
167 -193 120 -193 -30 0 -35 -3 -35 -24 0 -14 4 -27 9 -30 4 -3 11 -33 15 -68
5 -52 3 -65 -13 -82 -11 -13 -21 -44 -25 -77 -6 -61 -1 -72 53 -96 21 -9 1
-12 -114 -12 -202 -1 -395 -13 -395 -23 0 -5 87 -8 201 -7 110 1 202 -1 205
-4 26 -26 -131 -31 -348 -11 -48 4 -58 2 -58 -11 0 -8 6 -15 13 -15 6 0 98 -5
202 -10 511 -25 855 -33 1595 -34 757 -2 1354 -18 1333 -36 -5 -4 -91 -12
-193 -19 -102 -6 -340 -23 -530 -36 -512 -38 -554 -39 -945 -21 -431 19 -1002
43 -1250 51 -99 3 -190 8 -202 11 -13 2 -23 0 -23 -5 0 -15 60 -20 360 -31
456 -17 969 -39 1261 -54 267 -14 286 -14 575 9 497 39 953 69 959 64 2 -3 6
-16 7 -29 4 -32 -13 -35 -292 -54 -129 -9 -356 -26 -505 -39 -337 -28 -569
-27 -1130 2 -231 11 -557 28 -725 36 -168 8 -351 18 -407 21 -99 7 -103 6
-103 -14 0 -18 8 -21 62 -26 65 -6 421 -25 953 -51 165 -8 339 -17 388 -21
l87 -6 0 -409 c0 -266 3 -409 10 -409 6 0 10 123 10 349 l0 348 48 7 c26 3 86
9 135 13 l87 6 0 -362 c0 -314 2 -361 15 -361 13 0 15 51 15 400 l0 400 91 0
c51 0 265 16 477 35 212 20 389 34 395 32 5 -1 -30 -17 -77 -35 -66 -26 -86
-37 -86 -52 0 -16 -28 -28 -162 -71 -280 -88 -369 -132 -461 -225 -75 -76
-149 -213 -163 -304 -9 -57 0 -50 82 66 110 155 231 250 379 297 100 32 253
31 350 -2 151 -51 227 -117 430 -381 110 -141 164 -201 121 -135 -53 84 -189
270 -252 346 -74 89 -123 133 -194 173 l-42 23 45 7 c122 18 249 -31 570 -223
290 -173 351 -197 491 -189 86 4 159 36 187 82 35 58 24 170 -28 289 -14 31
-23 60 -20 64 4 3 55 12 114 19 60 8 120 16 135 19 26 4 27 3 21 -28 -12 -68
-95 -303 -118 -339 -14 -21 -51 -67 -83 -102 -31 -35 -70 -88 -85 -118 -26
-50 -13 -44 23 11 l16 23 31 -26 c19 -16 30 -33 26 -41 -3 -9 1 -15 9 -15 19
0 69 88 111 196 41 105 112 333 122 390 12 72 11 71 76 78 34 3 80 14 103 25
45 19 111 72 126 101 5 9 54 172 109 361 54 189 125 431 156 537 64 216 65
243 14 286 -28 24 -39 26 -122 27 -51 1 -197 4 -326 8 l-235 6 -9 35 c-5 19
-18 45 -30 58 -21 23 -102 52 -143 52 -19 0 -24 7 -29 38 -4 20 -13 64 -20 97
-7 33 -18 101 -25 150 -28 227 -99 368 -211 426 -37 18 -37 19 -27 59 8 31 7
57 -2 98 -11 52 -19 64 -90 132 -78 75 -84 84 -81 130 1 18 4 21 10 12 13 -21
33 73 25 116 -13 70 -48 125 -144 227 -70 75 -105 122 -130 173 -18 39 -37 69
-42 66 -17 -11 -7 24 12 41 45 41 49 153 9 245 -24 54 -90 124 -141 151 -52
27 -115 32 -163 14z m100 -32 c-62 -8 -78 -15 -126 -60 -52 -48 -74 -51 -48
-5 24 43 85 72 149 70 30 0 42 -3 25 -5z m-191 -47 c-43 -43 -78 -57 -72 -30
4 21 63 64 88 64 14 0 10 -8 -16 -34z m305 -24 c14 -10 26 -23 26 -28 0 -5 12
-25 27 -44 29 -38 53 -116 45 -146 -3 -14 -5 -12 -6 7 -5 110 -99 201 -190
184 -20 -4 -42 -12 -50 -18 -11 -10 -13 -9 -9 3 2 8 22 21 43 28 33 11 47 11
84 -2 56 -18 68 -12 18 9 -42 17 -94 19 -131 5 -37 -14 -32 -2 7 16 40 18 102
12 136 -14z m-348 -100 c-24 -83 -71 -129 -163 -161 -31 -11 -67 -24 -80 -31
-22 -11 -22 -10 -3 5 18 15 17 15 -15 9 -19 -4 -50 -13 -67 -20 -18 -7 -33
-11 -33 -9 0 10 59 33 124 49 77 19 152 54 179 84 16 17 13 17 -30 -4 -26 -13
-88 -32 -138 -43 l-90 -19 45 40 c25 22 61 48 80 59 55 29 25 22 -38 -8 -64
-32 -151 -107 -183 -160 -13 -20 -28 -59 -34 -87 l-12 -51 -8 38 c-13 66 0
124 40 183 21 29 41 51 46 49 4 -3 11 1 16 8 12 20 81 61 133 80 28 10 81 16
142 16 l97 1 -8 -28z m5 -66 c-35 -84 -109 -144 -196 -160 -27 -5 -23 -1 20
16 77 31 156 111 172 174 9 31 14 41 16 27 2 -11 -4 -37 -12 -57z m215 -20
c33 -73 22 -136 -33 -193 -50 -52 -111 -67 -242 -59 -203 13 -263 20 -238 30
14 4 68 3 127 -5 149 -17 246 -2 306 48 34 29 59 79 58 115 0 14 -6 5 -15 -24
-8 -26 -26 -56 -40 -67 -28 -22 -105 -41 -162 -40 -32 0 -28 2 29 17 116 31
169 90 169 187 0 55 13 52 41 -9z m99 23 l35 -30 -40 27 c-22 16 -42 29 -44
31 -2 2 0 3 5 3 5 0 25 -14 44 -31z m-755 -20 c-37 -45 -63 -100 -71 -151 l-7
-43 -13 30 c-17 39 -10 71 28 120 l31 40 -36 -34 c-35 -33 -51 -65 -60 -121
-3 -17 -5 -13 -6 13 -1 44 16 82 56 119 22 21 76 51 101 57 2 1 -8 -13 -23
-30z m145 -137 c-14 -9 -46 -37 -72 -63 -27 -25 -48 -43 -48 -39 0 12 71 81
104 101 38 23 50 24 16 1z m578 -130 c-28 -54 -84 -87 -163 -96 l-50 -6 53 19
c58 20 115 62 141 101 13 20 7 17 -28 -12 -44 -37 -130 -65 -169 -55 -10 3 -7
5 10 6 80 3 216 93 220 144 1 12 3 5 5 -17 3 -27 -3 -52 -19 -84z m181 -11
c14 -29 61 -93 106 -142 104 -117 125 -156 124 -228 l-2 -56 -7 60 c-9 77 -15
89 -111 193 -76 83 -138 184 -153 252 l-6 25 11 -25 c7 -14 23 -49 38 -79z
m-1009 54 c7 -8 18 -15 26 -15 7 0 15 -4 19 -9 3 -5 -14 -9 -40 -8 -52 2 -77
-17 -99 -78 -20 -55 -20 -20 0 38 14 41 53 87 74 87 4 0 13 -7 20 -15z m917
-67 c-3 -8 -6 -5 -6 6 -1 11 2 17 5 13 3 -3 4 -12 1 -19z m-532 -9 c53 -16 80
-32 129 -78 34 -31 80 -67 102 -80 22 -13 48 -35 57 -50 l16 -27 -88 -44 c-86
-42 -90 -43 -157 -36 -47 4 -86 2 -124 -8 -30 -8 -56 -14 -57 -13 -1 1 31 22
70 45 70 42 74 43 137 38 l65 -6 -35 19 c-68 38 -103 37 -178 -4 -86 -47 -99
-59 -83 -79 10 -11 7 -19 -14 -40 -35 -35 -54 -33 -90 9 -18 22 -49 42 -80 53
l-50 18 1 100 c0 69 6 111 17 138 17 38 18 39 60 33 30 -4 52 0 77 13 48 26
140 26 225 -1z m-372 -6 c-28 -5 -71 -48 -76 -76 -4 -21 -4 -21 -6 1 -1 31 50
82 81 81 22 -2 22 -2 1 -6z m881 -69 c-35 -73 -127 -95 -225 -53 -65 28 -58
34 9 9 100 -38 173 -18 208 58 11 22 20 36 22 31 2 -4 -4 -25 -14 -45z m-7
-130 c23 -23 25 -31 21 -84 -3 -47 -12 -70 -42 -115 -43 -65 -59 -74 -86 -50
-11 10 -22 16 -24 14 -2 -2 -11 -39 -20 -83 -22 -105 -56 -165 -142 -245 -123
-114 -233 -164 -293 -132 -43 23 -201 243 -201 280 0 6 8 11 18 11 34 0 55 37
60 100 3 37 9 60 16 60 7 0 26 -20 44 -45 17 -24 49 -53 71 -65 84 -42 201
-13 243 60 l20 35 -27 -30 -27 -30 6 34 c3 18 6 49 6 67 0 32 6 38 85 89 47
30 89 55 93 55 4 0 16 -14 26 -31 10 -17 21 -28 24 -25 3 3 9 32 13 63 12 89
64 119 116 67z m205 -99 c6 -11 9 -18 6 -15 -2 3 -29 32 -58 65 l-54 60 48
-45 c26 -25 52 -54 58 -65z m-57 -15 c25 -36 47 -76 48 -88 1 -12 5 -22 9 -22
4 0 5 -47 3 -104 -3 -86 -1 -110 15 -140 21 -42 18 -47 -7 -10 -11 18 -19 59
-24 129 -8 114 -24 160 -90 261 -72 111 -32 88 46 -26z m153 25 c-3 -3 -9 2
-12 12 -6 14 -5 15 5 6 7 -7 10 -15 7 -18z m21 -82 c1 -17 5 -33 10 -35 4 -1
5 -23 1 -48 l-6 -45 -8 60 c-15 130 -15 141 -6 120 5 -11 9 -34 9 -52z m-1102
4 c4 -6 -2 -8 -18 -4 -13 4 -36 7 -51 7 -21 0 -28 5 -28 19 0 19 2 19 45 4 25
-8 48 -20 52 -26z m286 2 c-37 -11 -39 -14 -19 -35 20 -20 63 -17 85 5 24 24
31 11 31 -59 0 -56 -15 -76 -65 -86 -77 -14 -128 15 -171 98 -30 59 5 87 111
86 54 0 57 -1 28 -9z m-410 -6 c-7 -2 -19 -2 -25 0 -7 3 -2 5 12 5 14 0 19 -2
13 -5z m1274 -45 c-3 -7 -5 -2 -5 12 0 14 2 19 5 13 2 -7 2 -19 0 -25z m-310
0 c-3 -8 -6 -5 -6 6 -1 11 2 17 5 13 3 -3 4 -12 1 -19z m-875 -10 c2 -19 9
-23 38 -23 32 0 35 -2 38 -34 5 -53 -5 -77 -38 -91 -40 -17 -48 -8 -66 67 -19
82 -18 103 5 103 13 0 21 -8 23 -22z m-51 -67 c13 -71 13 -78 -1 -71 -22 12
-45 40 -64 77 -27 54 -22 64 40 72 5 0 17 -35 25 -78z m1014 -152 c17 -27 44
-49 78 -66 36 -17 43 -23 22 -18 -40 9 -87 41 -113 79 -25 37 -56 123 -65 181
-4 22 6 0 22 -48 16 -48 41 -106 56 -128z m-240 114 c9 -70 33 -160 60 -223
l24 -55 -26 -45 c-59 -103 -136 -183 -229 -237 -44 -27 -53 -29 -83 -18 -36
12 -61 39 -61 64 1 11 5 9 13 -7 7 -12 23 -29 35 -37 21 -16 21 -15 -4 51 -14
37 -30 77 -35 88 -7 15 -3 13 16 -8 14 -15 28 -27 29 -25 2 2 36 54 76 114 91
137 128 215 142 296 13 82 15 89 27 89 5 0 12 -21 16 -47z m460 -89 c15 -19
25 -37 22 -40 -6 -6 -55 59 -67 91 -5 14 -10 36 -9 48 0 13 6 5 14 -21 7 -23
25 -58 40 -78z m-286 -106 c57 -60 67 -98 47 -178 -9 -36 -28 -83 -41 -106
-47 -80 -148 -150 -263 -185 -42 -12 -43 -12 -77 21 -19 19 -35 37 -35 40 0 4
19 15 42 26 100 45 178 132 249 278 41 84 47 114 27 134 -8 8 -9 12 -1 12 6 0
30 -19 52 -42z m251 -143 c207 -31 219 -34 261 -72 100 -90 158 -320 139 -548
-19 -227 -19 -224 -59 -241 -46 -19 -90 -60 -107 -101 -8 -18 -50 -160 -95
-315 -44 -156 -89 -311 -101 -346 -20 -63 -20 -63 -52 -56 -37 8 -85 31 -172
84 -81 50 -185 103 -190 97 -3 -3 30 -34 73 -70 43 -36 91 -79 107 -96 l30
-31 -255 0 c-274 0 -301 3 -291 28 4 13 -1 12 -29 -5 -19 -12 -47 -26 -62 -32
l-27 -11 21 29 c17 23 21 42 21 107 0 43 -5 92 -11 107 -6 16 -11 33 -11 38 0
5 34 9 75 9 42 0 153 5 248 10 95 6 197 12 227 13 30 1 61 8 68 15 13 12 34
16 62 12 25 -3 57 -39 102 -114 44 -75 62 -75 33 0 -22 57 -89 142 -118 149
-12 3 -40 -1 -62 -10 -27 -11 -36 -13 -27 -4 6 7 12 28 12 45 0 18 8 40 17 50
26 26 92 52 150 60 51 6 52 6 99 -41 58 -56 71 -43 19 20 -44 55 -68 62 -145
42 l-60 -15 0 29 c0 44 98 493 121 552 10 29 36 75 57 104 79 110 82 116 24
57 -32 -34 -73 -90 -91 -124 -34 -70 -37 -63 -21 59 6 41 8 76 6 79 -3 2 -12
-21 -21 -52 -17 -58 -22 -149 -10 -188 6 -19 5 -21 -6 -11 -7 7 -14 46 -17 91
-7 120 51 327 120 425 l22 32 -23 -20 c-49 -43 -141 -278 -141 -362 0 -64 -38
12 -41 82 -1 25 -3 22 -10 -15 -13 -61 -4 -116 37 -239 l35 -103 -19 -109
c-22 -124 -41 -158 -129 -239 -56 -51 -124 -80 -190 -80 -18 0 -33 -3 -33 -6
0 -3 27 -36 61 -72 l61 -67 -54 -8 c-70 -11 -110 -5 -183 26 -66 27 -145 43
-145 28 0 -5 31 -19 69 -30 39 -12 73 -26 76 -31 9 -15 -108 -12 -124 3 -11
10 -13 10 -7 0 5 -9 -2 -13 -26 -12 -26 0 -53 17 -128 77 -81 66 -100 88 -130
146 -48 95 -52 173 -15 336 14 66 25 126 23 132 -5 13 -41 -83 -61 -161 l-14
-53 -18 128 c-19 135 -24 291 -13 409 l6 70 -19 -90 c-15 -70 -19 -116 -15
-208 5 -131 -1 -134 -43 -27 -17 43 -20 47 -15 20 8 -48 43 -157 64 -200 10
-19 23 -61 30 -93 13 -55 12 -58 -11 -83 -31 -33 -104 -71 -155 -79 -21 -3
-55 -9 -74 -12 l-35 -6 39 -7 c45 -8 100 2 160 30 l41 20 -29 -24 c-15 -13
-47 -29 -70 -36 l-41 -12 25 -17 c38 -25 90 -72 90 -82 0 -10 -93 32 -98 44
-5 10 -58 37 -74 37 -7 -1 3 -10 22 -21 29 -17 31 -19 10 -15 -14 3 -53 8 -85
11 l-60 6 52 -19 c70 -25 170 -101 195 -147 10 -18 10 -19 -9 -5 -12 8 -49 36
-84 61 -35 25 -73 49 -83 53 -19 7 -19 6 -1 -14 l18 -20 -43 15 c-23 8 -57 15
-74 16 -17 0 -25 3 -18 6 8 3 11 16 6 38 -5 28 -3 33 18 39 18 5 42 45 111
189 87 177 89 181 104 157 l14 -25 -6 25 c-4 14 -12 62 -18 108 -8 63 -8 85 1
94 9 9 12 3 13 -28 1 -38 1 -38 9 -9 5 17 13 50 19 75 13 62 46 168 63 210 15
34 15 33 12 -45 -3 -77 -3 -78 6 -25 18 106 33 165 47 187 18 27 118 78 192
98 48 13 52 12 46 -3 -4 -9 -9 -49 -12 -89 -6 -70 -5 -73 24 -101 37 -37 87
-52 178 -52 224 0 407 138 447 336 10 53 13 56 37 51 14 -3 78 -13 141 -22z
m-765 -202 c4 -23 18 -41 54 -67 43 -32 73 -76 52 -76 -23 0 -106 31 -122 46
-23 21 -25 86 -7 166 l13 53 2 -45 c2 -25 5 -59 8 -77z m-1210 -125 c7 -7 40
-141 74 -298 34 -157 84 -379 110 -495 l47 -210 -34 -10 c-22 -6 -47 -25 -70
-55 -20 -25 -60 -71 -89 -102 -29 -31 -53 -64 -53 -72 0 -10 13 -2 35 22 19
20 35 32 35 25 0 -6 -6 -18 -13 -25 -7 -7 -16 -21 -20 -30 -5 -15 -20 -18 -93
-18 -84 0 -86 0 -81 23 3 12 9 46 13 75 4 30 12 55 18 57 6 2 29 6 51 10 58
10 131 87 140 149 10 65 -21 128 -79 155 -23 12 -48 21 -54 21 -7 0 -12 15
-12 38 0 21 -5 43 -12 50 -9 9 -92 12 -314 12 -257 0 -303 -2 -314 -15 -10
-13 -3 -62 39 -268 28 -138 54 -262 57 -274 6 -22 4 -23 -55 -23 l-62 0 5 33
c3 17 8 64 11 102 3 39 9 84 12 102 l5 32 -103 3 -104 3 -7 40 c-4 22 -42 211
-84 420 -43 209 -83 408 -89 442 -11 53 -10 65 3 84 l15 22 530 -6 c417 -5
533 -9 542 -19z m1395 -14 c0 -2 -11 -4 -25 -4 -18 0 -25 5 -25 20 0 20 1 20
25 4 14 -9 25 -18 25 -20z m1034 -377 c21 -142 22 -137 -15 -137 l-32 0 7 73
c10 111 18 178 21 175 2 -2 10 -52 19 -111z m111 -37 c46 -10 85 -50 85 -87 0
-21 -3 -24 -22 -19 -13 3 -44 6 -70 6 -50 0 -51 1 -64 73 -7 42 -2 44 71 27z
m388 -140 c374 -8 379 -8 403 -31 35 -33 31 -76 -25 -257 -26 -86 -95 -319
-152 -517 -89 -310 -108 -365 -134 -393 l-30 -33 -475 -55 c-261 -30 -489 -54
-507 -54 -51 0 -57 24 -33 122 42 163 163 605 205 748 24 80 51 174 60 209 22
84 47 134 81 156 26 17 55 18 378 16 193 -2 415 -6 494 -9 141 -7 164 -2 130
26 -8 6 -197 14 -490 21 -411 10 -482 10 -505 -3 -31 -16 -65 -50 -81 -82 -28
-54 -312 -1088 -312 -1136 0 -12 -3 -19 -6 -15 -15 15 -2 99 46 284 87 338
251 910 271 942 10 17 33 40 51 51 39 23 54 24 631 10z m-3287 -140 c-115 -3
-161 -9 -164 -17 -3 -10 30 -13 141 -13 79 0 172 -3 206 -6 61 -7 62 -7 36
-23 -25 -15 -26 -22 -31 -117 -2 -56 -11 -144 -19 -195 -9 -62 -10 -96 -4
-100 6 -3 8 -22 4 -45 -12 -73 -25 -102 -48 -108 -37 -10 -277 -7 -297 4 -12
6 -26 34 -36 65 -27 94 -123 548 -118 557 3 4 114 7 247 6 234 -2 237 -2 83
-8z m316 -100 c114 -32 119 -186 8 -249 -20 -11 -56 -23 -81 -26 -43 -6 -43
-5 19 19 35 13 75 34 88 47 28 26 44 75 37 113 -10 53 -112 105 -114 59 0 -13
-3 -11 -12 7 -6 14 -16 28 -22 32 -15 11 34 9 77 -2z m-77 -158 c-4 -40 -9
-71 -12 -69 -2 3 -1 47 3 99 5 51 10 82 12 68 2 -13 1 -57 -3 -98z m105 88
c39 -39 17 -112 -44 -145 -19 -11 -38 -16 -41 -13 -7 6 13 156 22 171 8 14 43
7 63 -13z m591 -41 c42 -21 157 -141 140 -147 -6 -2 -29 16 -50 40 -42 47
-131 98 -171 98 -20 -1 -15 -6 25 -25 28 -13 68 -42 90 -65 l39 -40 -104 36
c-79 26 -117 34 -151 31 l-47 -4 50 40 c92 72 103 74 179 36z m459 -24 c13
-14 52 -46 87 -72 35 -25 63 -48 63 -51 0 -3 -51 -2 -112 1 -88 5 -119 3 -138
-8 -14 -8 -38 -14 -54 -15 -29 0 -29 0 23 53 28 29 62 67 74 85 12 17 25 32
28 32 3 0 16 -11 29 -25z m-1827 -72 c-40 -2 -107 -2 -150 0 -43 1 -10 3 72 3
83 0 118 -2 78 -3z m1305 -28 c149 -48 222 -64 331 -71 72 -6 97 -11 111 -26
23 -25 40 -85 40 -140 0 -43 -2 -46 -31 -52 -17 -3 -62 -1 -99 5 -51 9 -76 9
-101 0 -54 -19 -114 -13 -194 19 -42 17 -82 30 -90 30 -9 0 -56 -17 -105 -37
-63 -25 -94 -33 -101 -26 -12 12 57 59 140 94 30 13 49 25 42 27 -21 7 -154
-47 -206 -83 -47 -34 -85 -45 -85 -26 0 20 95 91 143 107 58 19 131 53 125 59
-2 2 -46 -9 -98 -25 -90 -29 -107 -39 -212 -128 -16 -13 -18 -13 -24 1 -4 10
8 33 30 60 20 24 36 48 36 53 0 25 53 66 120 93 41 17 86 41 100 52 20 17 21
19 5 13 -11 -4 -62 -21 -113 -39 -90 -31 -93 -33 -135 -92 -96 -137 -127 -159
-85 -61 36 85 109 186 141 193 12 3 63 12 112 19 50 8 91 14 93 15 1 1 51 -15
110 -34z m-1385 -2 c-113 -4 -111 -2 -97 -72 4 -21 12 -31 25 -31 19 0 22 -12
34 -152 6 -58 4 -68 -9 -68 -9 0 -21 12 -27 27 -12 31 -49 243 -49 279 l0 24
113 -2 112 -2 -102 -3z m131 -40 c-3 -21 -9 -76 -14 -123 l-9 -85 5 100 c4 94
11 145 20 145 2 0 2 -17 -2 -37z m1816 -10 c60 -6 63 -8 77 -42 10 -24 14 -60
11 -112 -4 -94 -21 -119 -80 -119 l-38 0 0 49 c0 59 -32 169 -61 205 l-20 26
24 0 c13 0 52 -3 87 -7z m-2062 -175 c10 -62 0 -74 -33 -42 -12 12 -13 19 -4
30 6 7 8 17 5 23 -3 5 -1 22 5 38 13 32 15 28 27 -49z m382 -12 c0 -2 3 -11 6
-20 5 -14 -5 -16 -70 -16 -76 0 -98 12 -53 30 22 9 117 14 117 6z m603 -27 c5
-18 12 -21 41 -17 20 2 36 0 36 -5 0 -6 -27 -7 -67 -4 -38 4 -92 7 -120 7 -46
0 -53 3 -53 20 0 18 7 20 79 20 72 0 79 -2 84 -21z m552 -18 l40 -18 -46 -7
c-50 -7 -126 1 -135 15 -7 12 34 28 71 28 17 0 48 -8 70 -18z m-1202 -28 c37
-3 67 -9 67 -14 0 -11 -30 -11 -122 -3 -52 5 -65 10 -61 21 4 10 13 12 27 8
11 -4 51 -9 89 -12z m1537 -8 c23 -8 61 -15 84 -15 23 0 47 -5 53 -11 20 -20
157 -39 284 -39 129 0 475 15 608 26 l74 6 -7 -29 c-4 -15 -9 -29 -11 -31 -1
-2 -56 -7 -121 -13 -125 -10 -478 1 -754 23 -98 8 -446 11 -1070 10 -509 -1
-968 3 -1020 7 -83 7 -67 8 122 9 132 1 219 6 223 12 4 6 203 10 563 10 551 1
780 11 842 38 36 15 81 14 130 -3z m870 -170 c0 -10 -10 -15 -30 -15 -20 0
-30 5 -30 15 0 10 10 15 30 15 20 0 30 -5 30 -15z m194 -15 c-5 -5 -42 -12
-82 -16 -63 -6 -72 -5 -72 10 0 13 13 16 82 16 53 0 79 -3 72 -10z m-217 -46
c-3 -3 -12 -4 -19 -1 -8 3 -5 6 6 6 11 1 17 -2 13 -5z m201 -11 c-4 -22 -36
-27 -97 -17 l-46 7 55 13 c80 17 92 17 88 -3z m-24 -106 c-3 -9 -62 -20 -192
-35 -349 -40 -436 -35 -131 7 336 47 330 46 323 28z m-19 -37 c-11 -4 -60 -13
-110 -20 -49 -6 -102 -13 -117 -15 -16 -3 -28 -1 -28 3 0 5 57 15 128 24 154
19 152 19 127 8z m-12 -27 c-13 -2 -33 -2 -45 0 -13 2 -3 4 22 4 25 0 35 -2
23 -4z m-280 -10 c-13 -2 -33 -2 -45 0 -13 2 -3 4 22 4 25 0 35 -2 23 -4z
m-35 -35 c170 -16 236 -19 278 -11 42 8 54 7 54 -3 0 -7 -17 -18 -38 -23 -29
-8 -98 -4 -302 19 -146 16 -283 30 -305 31 -22 0 -49 5 -60 10 -26 12 80 6
373 -23z m269 15 c-20 -2 -52 -2 -70 0 -17 2 0 4 38 4 39 0 53 -2 32 -4z
m-292 -59 c132 -15 244 -31 249 -36 6 -4 0 -8 -14 -8 -38 0 -451 50 -490 60
-69 16 11 11 255 -16z m380 -44 c-10 -16 -58 -21 -66 -8 -14 21 -11 26 19 36
21 8 30 6 39 -6 7 -8 10 -18 8 -22z m506 -102 c40 -78 49 -159 24 -211 -37
-78 -198 -118 -334 -83 -63 16 -211 81 -211 92 0 4 18 4 40 1 104 -14 243 28
301 89 19 20 12 18 -51 -14 l-73 -37 -141 -2 -141 -2 62 14 c34 8 97 26 140
40 107 36 226 53 247 36 9 -8 16 -19 16 -26 0 -15 69 -75 85 -75 5 1 -10 19
-35 40 l-45 40 39 -11 c55 -15 54 -6 -3 30 -48 29 -117 108 -105 120 5 5 80
16 131 20 18 1 29 -11 54 -61z m269 -120 c-41 -131 -95 -270 -128 -327 -46
-79 -34 -28 23 97 30 67 72 173 93 235 20 63 38 110 40 106 2 -5 -11 -55 -28
-111z"/>
<path d="M3130 3861 c-17 -32 -12 -46 10 -26 26 23 47 13 58 -27 l9 -33 8 28
c15 57 -58 107 -85 58z"/>
<path d="M3121 3798 c0 -7 4 -22 8 -33 5 -11 4 -25 -1 -32 -18 -22 20 -15 42
7 26 26 25 35 -2 54 -27 19 -48 21 -47 4z"/>
<path d="M3152 3678 c-14 -14 -16 -28 -3 -28 5 0 11 9 14 20 6 23 5 24 -11 8z"/>
<path d="M2638 3517 c21 -25 5 -39 -34 -31 -27 5 -38 2 -48 -12 -13 -17 -15
-17 -40 -1 -29 20 -36 8 -8 -15 21 -19 70 -29 75 -15 1 5 18 15 37 21 27 8 35
16 35 35 0 13 -7 27 -15 29 -13 4 -13 3 -2 -11z"/>
<path d="M2610 3390 c-8 -5 -27 -10 -42 -10 -16 0 -28 -5 -28 -12 1 -20 43
-65 67 -72 30 -9 82 15 121 57 l34 35 -49 -1 c-26 0 -57 3 -68 6 -11 4 -27 2
-35 -3z"/>
<path d="M3475 3161 c-45 -8 -76 -23 -95 -45 -10 -13 -3 -12 31 3 24 11 87 26
139 34 l95 15 -65 0 c-36 0 -83 -4 -105 -7z"/>
<path d="M3684 2966 c-52 -53 -119 -167 -111 -189 2 -6 34 36 71 93 38 56 80
114 94 127 14 13 19 23 12 23 -8 0 -38 -24 -66 -54z"/>
<path d="M3706 2930 c-20 -22 -36 -43 -36 -47 0 -4 3 -3 8 3 4 5 23 26 41 47
19 20 32 37 29 37 -3 0 -22 -18 -42 -40z"/>
<path d="M2892 2730 c0 -52 3 -104 8 -115 11 -26 11 150 0 185 -5 16 -8 -8 -8
-70z"/>
<path d="M3751 2487 c-21 -38 -28 -56 -17 -48 20 17 59 88 54 101 -2 5 -18
-19 -37 -53z"/>
<path d="M3633 2292 c-87 -76 -137 -131 -163 -183 -30 -58 -18 -59 20 -2 18
26 76 92 129 146 52 53 92 97 89 97 -4 0 -38 -26 -75 -58z"/>
<path d="M3408 1955 c-28 -15 -36 -39 -19 -49 5 -3 14 1 21 9 7 8 27 17 45 21
34 6 89 -16 147 -59 15 -11 31 -17 35 -13 12 12 -12 40 -61 70 -56 35 -128 44
-168 21z"/>
<path d="M3424 1796 c19 -25 44 -75 56 -111 14 -43 30 -71 46 -82 37 -24 40
-9 14 55 -31 74 -66 132 -99 159 -44 37 -53 26 -17 -21z"/>
<path d="M2861 1682 c31 -89 105 -123 267 -121 l87 1 -104 14 c-70 9 -121 21
-157 39 -30 15 -54 30 -54 33 -1 4 -12 21 -26 37 l-24 30 11 -33z"/>
<path d="M1935 1783 c-115 -48 -148 -63 -143 -68 5 -5 179 63 214 84 35 20 -8
10 -71 -16z"/>
<path d="M2282 570 c-18 -107 -32 -201 -32 -207 0 -9 17 -13 50 -13 l50 0 0
58 c0 70 -18 274 -28 322 -7 29 -14 0 -40 -160z"/>
<path d="M2620 626 c0 -13 102 -270 111 -281 24 -25 4 39 -47 154 -58 128 -64
140 -64 127z"/>
<path d="M2690 536 c0 -23 77 -186 88 -186 18 0 16 8 -29 95 -40 78 -59 107
-59 91z"/>
<path d="M3954 505 c-17 -8 -76 -18 -130 -23 l-99 -9 76 -2 c74 -1 172 20 184
39 7 12 8 12 -31 -5z"/>
</g>
</svg>