<?xml version="1.0" standalone="no"?>
<!DOCTYPE svg PUBLIC "-//W3C//DTD SVG 20010904//EN"
 "http://www.w3.org/TR/2001/REC-SVG-20010904/DTD/svg10.dtd">
<svg version="1.0" xmlns="http://www.w3.org/2000/svg"
 width="512.000000pt" height="512.000000pt" viewBox="0 0 512.000000 512.000000"
 preserveAspectRatio="xMidYMid meet">
<metadata>
Created by potrace 1.16, written by Peter Selinger 2001-2019
</metadata>
<g transform="translate(0.000000,512.000000) scale(0.100000,-0.100000)"
fill="#000000" stroke="none">
<path d="M2405 4933 c-230 -28 -432 -108 -613 -243 -148 -110 -307 -300 -390
-465 -16 -33 -43 -98 -58 -145 -28 -83 -29 -89 -29 -305 l0 -220 -44 -118
c-37 -98 -49 -121 -70 -129 -14 -5 -33 -7 -43 -5 -10 3 -18 1 -18 -4 0 -5 16
-9 35 -9 19 0 35 -3 35 -6 0 -3 -7 -31 -16 -61 -25 -86 -15 -148 51 -318 74
-192 74 -195 10 -217 -81 -28 -195 -19 -225 17 -16 19 8 58 49 79 35 19 46 10
26 -20 -13 -21 -13 -23 0 -18 9 4 20 15 26 25 31 59 -71 49 -118 -11 -34 -42
4 -107 74 -131 49 -16 127 -5 186 26 27 14 50 25 52 25 8 0 135 -252 131 -259
-12 -19 -159 -83 -216 -93 -118 -22 -267 22 -359 106 -58 53 -83 110 -82 188
0 131 95 242 282 331 60 29 109 55 109 59 0 10 -20 2 -135 -52 -125 -60 -211
-137 -251 -223 -34 -75 -31 -166 6 -241 53 -105 210 -212 349 -236 85 -16 187
-2 270 35 l54 25 -7 -42 c-24 -148 -126 -241 -399 -363 -70 -32 -126 -59 -124
-61 2 -3 24 4 48 15 24 10 88 37 142 60 229 97 356 224 357 355 0 24 3 28 10
16 35 -52 55 -214 32 -257 -6 -10 -48 -42 -94 -70 -93 -57 -147 -111 -180
-178 -13 -26 -32 -48 -47 -54 -14 -6 -95 -35 -180 -66 -84 -31 -165 -62 -180
-69 -88 -46 -199 -248 -298 -543 -49 -147 -56 -179 -58 -255 -2 -74 -6 -93
-29 -133 -31 -52 -45 -111 -107 -430 -23 -121 -44 -226 -46 -232 -3 -8 4 -13
20 -13 16 0 28 7 31 18 3 9 29 132 57 271 28 140 62 284 77 320 l26 65 23 -69
c30 -90 93 -218 189 -385 53 -91 80 -150 84 -180 9 -62 13 -39 40 204 12 110
24 207 26 215 3 9 0 7 -6 -4 -6 -11 -23 -82 -38 -158 l-27 -138 -107 178 c-58
98 -115 196 -126 218 -30 60 -46 156 -39 238 9 125 139 490 227 638 41 69 104
134 121 124 5 -4 9 -2 9 3 0 12 63 39 213 93 226 82 397 137 390 126 -3 -7
-19 -30 -34 -52 -15 -22 -61 -101 -102 -175 -97 -175 -143 -255 -180 -309
l-30 -45 34 -28 34 -29 -25 -19 -25 -19 67 -68 68 -68 -122 -60 c-73 -35 -130
-70 -140 -85 -36 -53 -48 -582 -17 -752 7 -38 17 -68 22 -68 5 0 7 10 3 23
-32 115 -28 753 4 793 20 23 167 91 311 143 64 22 149 55 189 71 85 35 84 35
75 13 -4 -10 -38 -153 -76 -318 -38 -165 -92 -394 -119 -508 -28 -114 -50
-210 -50 -212 0 -3 17 -5 38 -5 l38 0 57 248 c70 297 164 762 173 848 6 57 10
65 43 88 l36 26 -38 0 c-34 0 -37 2 -37 28 1 69 71 292 92 292 19 0 54 -23 97
-64 l44 -41 -19 34 c-10 18 -42 49 -71 69 -29 19 -55 43 -58 53 -8 26 30 163
62 221 34 62 49 75 146 123 51 25 86 49 92 63 5 12 13 22 16 22 8 0 19 -132
19 -229 0 -128 20 -68 27 81 l6 136 63 -30 c111 -52 248 -49 359 9 113 58 287
203 355 296 l28 38 7 -78 c11 -136 32 -223 67 -278 30 -47 33 -57 38 -165 l5
-115 9 87 c8 85 -1 196 -24 279 -8 31 -4 29 53 -36 107 -121 169 -176 270
-242 112 -72 143 -113 182 -233 33 -106 45 -207 45 -380 0 -165 -5 -180 -62
-180 -55 0 -232 -40 -282 -64 l-48 -24 -129 96 c-95 71 -128 100 -123 111 10
27 65 294 60 298 -2 2 -12 -20 -21 -49 -33 -102 -43 -116 -94 -133 -47 -15
-97 -52 -87 -63 3 -3 31 3 61 13 30 11 57 16 60 13 8 -7 -223 -649 -256 -710
-7 -13 -21 -18 -54 -18 l-44 0 -3 63 -3 62 -53 17 c-86 29 -316 43 -479 30
-77 -7 -163 -19 -193 -28 l-53 -16 6 -106 c6 -112 22 -213 58 -370 17 -77 24
-92 40 -92 10 0 19 2 19 4 0 3 -11 51 -25 108 -25 105 -55 282 -55 329 0 25 1
26 48 19 103 -17 331 -22 462 -11 74 7 142 14 151 16 13 5 14 -4 7 -69 -9 -87
-52 -297 -73 -355 l-14 -41 40 0 c33 0 58 11 122 53 186 122 246 226 174 305
-11 12 -29 22 -40 22 -15 0 -13 -5 12 -26 80 -67 2 -195 -184 -304 l-40 -23
32 34 c17 19 61 91 97 162 l64 127 -45 0 c-36 0 -50 -6 -74 -29 -28 -29 -39
-61 -20 -61 6 0 22 16 37 35 15 20 29 34 31 31 9 -9 -56 -122 -87 -151 l-32
-30 7 60 c12 118 16 132 44 159 30 29 123 51 171 41 44 -10 80 -58 80 -108 0
-31 3 -38 10 -27 5 8 10 35 10 58 0 37 -6 50 -34 78 -19 19 -41 34 -50 34 -9
0 -16 7 -16 15 0 8 40 120 89 247 48 128 96 257 105 285 16 49 19 52 39 42 65
-34 549 -417 571 -451 7 -12 6 -24 -3 -41 -7 -13 -146 -139 -308 -278 -184
-158 -289 -255 -279 -257 21 -5 26 -1 242 188 244 213 353 318 360 346 10 41
-6 63 -127 165 -65 56 -119 105 -119 109 0 13 106 50 205 71 50 11 101 22 114
25 l23 5 -7 162 c-11 285 -34 412 -95 539 -16 34 -28 63 -27 64 3 3 504 -200
642 -260 61 -26 162 -73 225 -104 l115 -57 32 -65 c45 -91 67 -212 59 -318
l-6 -85 44 -86 c58 -114 69 -156 71 -281 3 -187 18 -411 27 -416 5 -3 12 -3
16 1 4 3 8 122 9 263 2 290 -4 337 -62 452 -32 63 -35 78 -35 152 0 199 -60
371 -145 416 -16 9 -50 29 -75 44 -65 38 -572 266 -785 351 l-40 16 45 1 c85
1 175 21 248 56 58 28 83 48 125 99 28 35 67 91 85 126 17 35 32 58 32 51 0
-21 -37 -111 -66 -159 -16 -27 -29 -51 -29 -55 0 -4 -7 -13 -15 -20 -12 -11
-12 -10 0 7 11 15 8 14 -13 -4 -28 -25 -38 -43 -12 -21 9 8 15 8 15 2 0 -6
-35 -43 -77 -83 -87 -81 -82 -81 26 0 112 83 181 180 214 301 25 87 22 447 -3
547 -18 70 -108 269 -117 259 -2 -2 10 -32 27 -65 71 -142 114 -331 95 -427
l-7 -38 -23 57 c-40 99 -128 197 -278 310 -26 19 -67 53 -90 73 -39 36 -42 43
-48 104 l-6 65 -1 -76 c-2 -74 -1 -79 39 -138 23 -34 73 -87 112 -120 156
-127 240 -249 261 -377 15 -85 -86 -259 -196 -340 -85 -63 -174 -88 -308 -88
-121 0 -182 18 -277 80 -130 87 -206 187 -259 339 -25 72 -28 94 -28 215 -1
102 4 149 17 192 20 63 65 131 99 149 20 11 20 9 -5 -21 -132 -156 -126 -455
13 -691 32 -54 84 -118 69 -84 -3 6 -28 58 -57 116 -73 148 -95 240 -90 382 4
150 26 198 141 310 87 85 136 163 163 257 l12 45 1 -61 c1 -33 -6 -83 -14
-109 -19 -64 -12 -69 10 -8 43 119 23 453 -33 563 -25 49 -38 61 -127 117 -55
33 -120 76 -145 94 -25 19 -48 34 -52 34 -4 0 -13 6 -20 13 -24 24 12 12 110
-37 125 -63 194 -115 260 -198 137 -171 192 -388 147 -581 -18 -75 -37 -114
-114 -232 -73 -111 -95 -173 -94 -265 2 -129 67 -259 167 -335 61 -46 140 -80
187 -80 37 0 85 24 99 49 24 46 2 179 -46 276 -13 28 -21 41 -18 30 28 -84 45
-160 50 -217 6 -63 5 -68 -20 -93 -24 -24 -33 -26 -68 -21 -58 9 -96 32 -154
92 -88 92 -142 232 -131 344 7 76 26 111 111 200 40 41 83 90 97 108 l26 34 6
-66 c3 -36 16 -88 28 -116 39 -91 134 -152 204 -131 l30 9 -35 1 c-120 4 -211
154 -196 326 16 188 18 263 7 313 -17 79 -71 190 -152 310 -97 143 -183 294
-243 425 -27 59 -51 106 -53 103 -2 -2 12 -46 32 -97 42 -109 153 -317 235
-439 121 -181 168 -311 156 -441 -10 -115 -45 -184 -147 -291 l-50 -53 35 65
c62 117 81 197 81 345 -1 115 -4 139 -28 209 -29 83 -87 189 -146 269 -43 57
-114 114 -237 189 -143 87 -319 233 -412 341 -46 54 -95 105 -109 114 -37 25
-134 24 -161 0 -13 -12 -28 -16 -40 -12 -11 3 -23 1 -26 -4 -4 -5 8 -13 26
-16 42 -9 71 -30 188 -134 93 -83 176 -142 224 -161 17 -6 36 -33 64 -92 21
-46 59 -109 83 -142 28 -37 52 -84 65 -130 l22 -71 -47 -22 c-25 -13 -57 -23
-71 -23 -25 1 -124 24 -230 54 -69 20 -156 20 -254 1 -84 -16 -137 -37 -210
-83 -70 -45 -123 -44 -192 3 -84 58 -152 77 -296 83 l-128 5 0 38 c0 27 6 42
21 52 26 19 52 12 139 -36 79 -43 200 -81 213 -68 6 6 3 22 -10 43 -16 27 -34
39 -104 64 -46 18 -111 43 -143 57 -44 19 -65 23 -78 16 -22 -12 -22 -7 -2 62
35 116 103 220 206 313 88 80 178 122 313 146 131 24 151 31 230 84 102 69
145 128 145 201 0 29 5 37 26 45 80 31 183 -7 278 -102 82 -83 144 -172 238
-342 43 -77 78 -137 78 -133 0 21 -127 271 -174 341 -62 94 -172 203 -235 235
-50 26 -139 43 -161 31 -12 -7 -14 -1 -12 35 7 77 -68 134 -225 171 -117 28
-326 5 -458 -50 -21 -9 -36 -19 -32 -22 3 -3 18 1 34 9 95 49 336 71 456 43
37 -9 85 -25 106 -35 47 -25 91 -75 91 -104 -1 -21 -2 -20 -15 4 -8 14 -27 34
-42 44 l-28 19 28 -34 c27 -31 28 -36 21 -99 -7 -71 -19 -111 -31 -111 -5 1
-17 15 -28 33 -11 17 -40 43 -65 57 -65 36 -240 41 -361 11 -296 -74 -507
-295 -584 -611 -49 -204 -59 -234 -92 -301 -36 -72 -87 -126 -154 -159 -39
-20 -41 -21 -34 -3 4 10 22 63 41 117 33 97 34 105 34 257 0 226 21 323 109
496 168 333 497 590 851 666 190 40 473 22 546 -35 33 -27 54 -76 53 -125 -1
-21 -3 -29 -6 -18 -2 11 -6 30 -8 41 -3 12 -12 24 -20 28 -13 4 -14 2 -5 -14
19 -36 11 -85 -26 -146 -49 -81 -51 -82 -46 -16 8 113 -48 174 -192 208 -95
22 -286 22 -384 -1 -89 -20 -89 -30 -1 -15 35 5 116 10 179 10 176 0 291 -31
350 -94 37 -40 40 -134 7 -199 -23 -45 -23 -47 -5 -41 11 3 42 20 68 36 44 27
55 30 112 26 227 -16 522 -341 664 -732 45 -123 43 -89 -2 43 -72 211 -194
418 -321 544 -81 80 -119 107 -219 154 -60 28 -88 36 -139 37 -62 1 -63 1 -47
21 56 65 145 143 171 148 108 22 351 -160 506 -378 125 -176 184 -339 205
-565 6 -75 22 -160 45 -240 66 -235 69 -353 10 -487 -37 -83 -30 -89 9 -8 77
165 80 301 11 514 -28 86 -36 132 -44 246 -6 80 -19 172 -31 215 -28 100 -116
278 -182 365 -78 104 -203 224 -299 287 -108 70 -158 90 -226 87 -49 -2 -56 0
-66 22 -48 96 -337 170 -562 142z m528 -131 c10 -11 17 -30 15 -43 -4 -26 -28
-39 -28 -14 0 8 -9 34 -21 56 -18 37 -19 39 -2 31 10 -6 26 -19 36 -30z m-502
-402 c48 -13 103 -51 107 -74 14 -70 -46 -102 -214 -117 -65 -6 -121 -13 -124
-16 -12 -13 249 6 286 21 33 14 36 14 19 1 -25 -20 -73 -33 -165 -45 -228 -31
-348 -80 -466 -192 -103 -98 -165 -202 -221 -368 -21 -64 -65 -161 -70 -156
-3 2 0 14 7 25 6 12 26 81 44 154 63 251 175 411 359 515 71 41 159 69 285 92
74 13 94 19 65 19 -62 1 -229 -33 -298 -61 -174 -71 -321 -226 -393 -416 -34
-89 -86 -308 -77 -330 8 -23 -53 -109 -100 -142 -23 -16 -76 -41 -116 -54 -96
-33 -64 -34 39 -1 104 33 159 81 206 178 19 40 35 65 35 57 1 -30 -48 -116
-91 -161 -55 -57 -149 -104 -247 -125 -41 -8 -78 -17 -83 -20 -11 -7 -10 -6 7
53 14 47 18 52 80 82 121 60 195 161 231 316 48 210 66 273 92 329 101 211
303 370 547 432 61 15 207 17 256 4z m224 -274 c21 -9 52 -39 82 -78 51 -68
136 -157 193 -201 35 -28 35 -28 -27 3 -34 18 -106 72 -160 121 -54 49 -125
103 -158 120 -50 27 -56 34 -40 40 32 12 73 10 110 -5z m533 -551 c51 -31 105
-68 120 -81 24 -21 25 -23 7 -24 -39 0 -141 58 -203 115 -74 68 -105 113 -51
73 19 -14 76 -51 127 -83z m71 -165 l45 -22 -25 -19 c-25 -20 -50 -21 -56 -3
-2 6 10 11 28 12 41 1 52 12 12 12 -37 0 -78 30 -99 73 l-16 32 33 -31 c19
-18 54 -42 78 -54z m56 39 c15 -14 -22 -11 -60 5 -19 8 -35 17 -35 19 0 7 84
-15 95 -24z m-577 -96 c-27 -2 -69 -2 -95 0 -27 2 -5 3 47 3 52 0 74 -1 48 -3z
m651 -19 c28 -35 36 -107 22 -179 -12 -60 -141 -336 -141 -302 0 23 -35 57
-60 57 -34 0 -63 -37 -58 -76 5 -44 -15 -45 -42 -2 -22 37 -18 45 -60 -117
-37 -147 -67 -208 -142 -289 -167 -183 -419 -316 -596 -316 -135 0 -209 53
-334 243 -66 97 -164 289 -202 390 -23 62 -24 66 -6 57 28 -15 146 -12 187 5
51 22 38 26 -40 12 -52 -9 -76 -8 -110 1 -23 7 -47 14 -54 14 -12 1 -27 27
-20 35 2 2 16 -1 31 -7 41 -15 176 -12 228 5 53 19 108 72 143 140 14 28 24
42 21 32 -3 -10 -13 -45 -22 -79 -8 -34 -24 -79 -35 -100 -33 -65 -22 -115 31
-143 40 -21 47 -19 19 6 -23 19 -23 19 -2 10 54 -27 72 -31 66 -15 -9 25 -76
66 -84 52 -10 -15 -14 -10 -22 23 -5 18 1 41 18 73 27 51 79 241 71 261 -11
30 44 46 84 25 11 -6 38 -46 60 -90 56 -107 155 -222 212 -245 55 -22 208 -31
266 -16 78 21 131 84 158 186 21 76 17 76 -20 -1 -61 -127 -118 -164 -253
-164 -80 0 -147 18 -193 50 -41 29 -32 35 24 16 58 -20 174 -20 243 -2 106 28
153 78 188 200 9 32 27 69 41 82 27 28 123 76 136 68 4 -3 8 -17 9 -32 1 -15
4 -38 8 -52 7 -24 8 -23 34 21 15 25 27 51 27 56 0 6 14 25 30 43 17 18 30 37
30 43 0 21 34 47 61 47 18 0 35 -9 48 -26z m-1436 -8 c32 -15 32 -15 -18 -9
-27 3 -57 9 -66 14 -9 4 -25 6 -37 3 -11 -3 -29 -1 -39 6 -27 17 118 4 160
-14z m625 17 c-10 -2 -26 -2 -35 0 -10 3 -2 5 17 5 19 0 27 -2 18 -5z m279 1
c-3 -3 -12 -4 -19 -1 -8 3 -5 6 6 6 11 1 17 -2 13 -5z m-1081 -18 c18 -19 18
-26 -2 -26 -14 0 -14 -3 -4 -15 10 -13 9 -15 -9 -15 -11 0 -22 3 -22 8 -8 51
-7 62 7 62 9 0 22 -6 30 -14z m737 7 c-7 -2 -19 -2 -25 0 -7 3 -2 5 12 5 14 0
19 -2 13 -5z m394 1 c-3 -3 -12 -4 -19 -1 -8 3 -5 6 6 6 11 1 17 -2 13 -5z
m-440 -10 c-3 -3 -12 -4 -19 -1 -8 3 -5 6 6 6 11 1 17 -2 13 -5z m228 -4 c-11
-5 -41 -11 -66 -15 -38 -5 -54 -14 -99 -60 -30 -30 -50 -55 -44 -55 6 0 36 14
67 31 56 30 77 31 77 3 0 -8 11 -19 25 -26 33 -15 78 4 95 40 l12 27 11 -22
c21 -47 -41 -75 -152 -68 l-66 5 80 -19 c88 -22 155 -26 155 -11 0 6 6 10 13
10 7 0 23 10 34 23 12 12 33 32 47 44 l25 21 7 -35 c4 -19 4 -63 2 -98 -7 -82
-40 -142 -93 -172 -81 -45 -235 -49 -312 -10 -67 35 -113 123 -121 230 -4 61
-2 70 18 92 39 41 149 71 270 73 28 1 31 -1 15 -8z m156 -21 c21 -10 41 -24
45 -31 6 -10 4 -10 -9 0 -9 8 -47 25 -84 38 -52 19 -58 24 -28 19 21 -4 56
-15 76 -26z m96 25 c-3 -3 -12 -4 -19 -1 -8 3 -5 6 6 6 11 1 17 -2 13 -5z
m-1304 -24 c-52 -31 -56 -99 -12 -216 11 -28 34 -71 52 -95 l32 -44 6 75 c20
228 25 240 75 180 32 -37 83 -52 138 -40 23 6 64 14 91 19 47 8 43 9 -44 10
-73 1 -99 5 -113 18 -25 22 -23 38 7 51 22 10 25 9 25 -7 0 -42 71 -64 115
-35 26 17 28 17 40 1 17 -23 24 -21 18 6 -5 21 -5 21 12 5 48 -45 17 -228 -50
-287 -104 -91 -284 -71 -365 41 -83 114 -103 294 -37 326 37 18 44 13 10 -8z
m437 5 c14 -8 21 -14 15 -14 -5 0 -21 6 -35 14 -14 8 -20 14 -15 14 6 0 21 -6
35 -14z m335 5 c-27 -12 -43 -12 -25 0 8 5 22 9 30 9 10 0 8 -3 -5 -9z m632
-6 c-3 -3 -12 -4 -19 -1 -8 3 -5 6 6 6 11 1 17 -2 13 -5z m-717 -29 c-25 -13
-52 -24 -60 -24 -8 -1 8 10 35 23 65 32 83 32 25 1z m-195 -3 c-3 -3 -11 0
-18 7 -9 10 -8 11 6 5 10 -3 15 -9 12 -12z m-195 -12 c0 -5 -2 -10 -4 -10 -3
0 -8 5 -11 10 -3 6 -1 10 4 10 6 0 11 -4 11 -10z m55 -10 c3 -5 -1 -10 -9 -10
-8 0 -18 5 -21 10 -3 6 1 10 9 10 8 0 18 -4 21 -10z m202 4 c-3 -3 -12 -4 -19
-1 -8 3 -5 6 6 6 11 1 17 -2 13 -5z m523 -4 c0 -5 -7 -10 -15 -10 -8 0 -15 5
-15 10 0 6 7 10 15 10 8 0 15 -4 15 -10z m-55 -10 c-3 -5 -10 -10 -16 -10 -5
0 -9 5 -9 10 0 6 7 10 16 10 8 0 12 -4 9 -10z m-1200 -117 c13 -49 40 -131 60
-183 21 -52 48 -129 61 -170 13 -41 23 -65 23 -52 1 13 -26 103 -59 201 -32
98 -62 197 -66 222 -7 44 -7 44 15 29 13 -9 43 -60 70 -121 26 -58 57 -119 68
-135 12 -16 35 -76 53 -132 36 -116 35 -153 -5 -201 -27 -31 -32 -47 -13 -35
7 4 8 3 4 -5 -4 -6 -12 -9 -17 -5 -5 3 -27 -10 -48 -28 -21 -18 -57 -43 -78
-55 l-40 -23 -70 143 c-68 137 -70 143 -54 167 15 24 15 24 -2 11 -10 -8 -19
-12 -22 -10 -2 3 -21 47 -41 99 -33 83 -38 106 -38 182 -1 108 13 131 105 169
35 14 66 25 68 23 2 -2 14 -43 26 -91z m1775 -243 c24 -24 25 -47 3 -72 -20
-22 -46 -23 -67 -2 -23 22 -20 60 6 78 29 20 34 20 58 -4z m-1422 -402 c39
-79 77 -167 86 -197 46 -158 -8 -282 -154 -356 -27 -14 -52 -25 -55 -25 -3 0
5 19 19 43 13 23 41 89 61 147 33 95 36 113 32 185 -4 84 -42 200 -78 240 -15
17 -16 26 -6 63 6 23 14 42 18 42 3 0 38 -64 77 -142z m-199 -1 c-25 -23 -95
-70 -155 -105 -163 -92 -262 -109 -397 -65 -65 20 -56 25 13 7 35 -10 83 -14
134 -11 75 4 86 8 213 73 74 38 155 85 181 106 63 49 67 47 11 -5z m137 -42
c25 -62 29 -82 29 -175 0 -95 -3 -113 -32 -185 -18 -44 -47 -105 -65 -135
l-33 -54 -175 -58 c-96 -31 -181 -57 -188 -57 -17 -1 35 73 80 115 18 17 67
54 110 82 61 41 78 58 84 84 14 61 6 151 -20 223 l-25 70 22 17 c12 10 26 16
31 15 18 -6 38 -83 43 -168 5 -82 3 -97 -33 -209 -3 -8 4 1 15 20 44 80 52
230 17 329 l-16 43 58 63 c31 34 60 60 63 56 3 -3 19 -37 35 -76z m109 -507
c-42 -49 -109 -192 -149 -316 -21 -64 -51 -198 -71 -315 -20 -111 -38 -209
-40 -218 -3 -8 -37 -29 -76 -47 l-71 -31 -57 50 c-31 27 -91 73 -133 101 l-77
50 39 57 c21 31 75 121 120 201 198 349 180 327 314 375 68 24 124 52 162 81
33 24 61 44 62 44 2 0 -8 -14 -23 -32z m590 -1359 c72 -13 104 -35 36 -25
-171 26 -452 26 -580 0 -23 -5 -32 -4 -28 4 23 36 412 51 572 21z m9 -55 c25
-4 46 -10 46 -14 0 -14 -52 -20 -220 -26 -165 -7 -370 8 -370 27 0 4 26 10 58
12 107 6 439 7 486 1z"/>
<path d="M2398 4263 c7 -3 16 -2 19 1 4 3 -2 6 -13 5 -11 0 -14 -3 -6 -6z"/>
<path d="M1258 3223 c7 -3 16 -2 19 1 4 3 -2 6 -13 5 -11 0 -14 -3 -6 -6z"/>
<path d="M3313 3305 c-24 -17 -69 -89 -78 -128 -8 -30 2 -35 19 -11 35 48 86
-59 56 -117 -6 -10 -8 -19 -5 -19 3 0 13 16 21 37 20 48 11 92 -26 128 -27 26
-28 29 -15 55 16 32 54 45 73 26 7 -7 16 -41 21 -77 l7 -64 8 48 c18 106 -21
164 -81 122z"/>
<path d="M3212 3043 c-12 -31 -19 -59 -16 -62 8 -9 52 43 54 64 7 73 -11 72
-38 -2z"/>
<path d="M2404 2832 c24 -46 20 -70 -16 -103 -35 -31 -25 -38 22 -14 38 20 48
64 23 107 -25 43 -51 52 -29 10z"/>
<path d="M2288 2759 c-33 -19 -18 -29 37 -26 33 1 55 7 55 13 0 24 -60 32 -92
13z"/>
<path d="M2127 2585 c-20 -7 -50 -24 -67 -39 -17 -14 -38 -26 -47 -26 -12 0
-11 -4 5 -22 11 -13 39 -44 62 -70 53 -60 88 -71 204 -66 104 5 138 19 210 86
45 42 51 62 19 62 -8 0 -52 18 -97 41 -71 36 -87 40 -126 34 -61 -8 -61 -8
-96 3 -21 7 -41 6 -67 -3z m296 -111 c17 -10 17 -11 -2 -28 -66 -60 -251 -61
-300 -3 -7 9 -10 24 -7 33 5 14 24 16 149 12 78 -2 150 -8 160 -14z"/>
<path d="M1419 2809 c5 -14 25 -56 44 -95 48 -93 62 -151 48 -200 -6 -21 -9
-40 -6 -42 2 -2 9 16 15 39 9 33 9 56 1 95 -12 53 -67 174 -95 209 -16 19 -16
19 -7 -6z"/>
<path d="M1612 2650 c0 -19 2 -27 5 -17 2 9 2 25 0 35 -3 9 -5 1 -5 -18z"/>
<path d="M1421 1882 c-23 -15 -49 -39 -58 -52 -11 -17 -2 -11 28 15 25 22 54
45 65 52 10 6 16 12 13 12 -3 1 -25 -12 -48 -27z"/>
<path d="M2164 4705 c-214 -39 -439 -191 -583 -395 -108 -154 -145 -257 -166
-469 -14 -134 -51 -306 -74 -336 -10 -13 -22 -45 -16 -45 9 0 43 76 63 141 11
36 28 117 37 179 24 165 49 253 104 365 59 120 123 206 221 299 132 124 263
196 445 245 116 31 100 40 -31 16z"/>
<path d="M2968 4653 c7 -3 16 -2 19 1 4 3 -2 6 -13 5 -11 0 -14 -3 -6 -6z"/>
<path d="M2846 4441 c27 -10 64 -26 82 -35 18 -9 32 -14 32 -11 0 10 -124 65
-145 64 -11 0 3 -9 31 -18z"/>
<path d="M2720 4212 c30 -10 84 -33 119 -51 34 -18 65 -30 68 -27 9 9 -159 85
-202 91 -36 5 -34 4 15 -13z"/>
<path d="M2869 4033 c35 -46 81 -99 103 -119 47 -42 182 -131 253 -166 86 -43
104 -41 26 2 -133 74 -224 143 -335 255 l-109 110 62 -82z"/>
<path d="M3621 3674 c0 -11 3 -14 6 -6 3 7 2 16 -1 19 -3 4 -6 -2 -5 -13z"/>
<path d="M2570 3518 c-80 -27 -151 -56 -157 -65 -7 -9 -13 -27 -13 -40 0 -41
63 -28 236 48 62 27 127 49 145 49 19 0 63 -14 97 -30 35 -17 67 -30 70 -30
12 0 -83 92 -110 106 -46 24 -115 15 -268 -38z"/>
<path d="M3763 2935 c0 -27 2 -38 4 -22 2 15 2 37 0 50 -2 12 -4 0 -4 -28z"/>
<path d="M3238 2618 c-65 -104 -85 -249 -48 -358 12 -35 32 -82 45 -105 69
-116 222 -238 348 -277 77 -23 186 -22 244 4 30 13 26 14 -61 10 -68 -3 -109
0 -152 13 -161 46 -301 160 -370 300 -39 78 -39 80 -39 195 0 101 4 123 27
178 27 66 29 76 6 40z"/>
<path d="M3951 2395 c0 -5 8 -43 19 -84 24 -90 26 -226 5 -297 -30 -102 -133
-179 -274 -205 -113 -20 -212 11 -316 100 -23 19 -18 12 12 -16 76 -73 161
-106 278 -107 75 -1 103 4 167 27 85 32 150 84 174 142 34 83 27 243 -16 359
-20 52 -49 100 -49 81z"/>
<path d="M3310 1986 c0 -2 8 -10 18 -17 15 -13 16 -12 3 4 -13 16 -21 21 -21
13z"/>
<path d="M2021 1750 c-10 -39 -26 -66 -60 -101 -26 -27 -43 -49 -37 -49 5 0
28 19 51 43 39 42 73 119 63 147 -2 7 -10 -12 -17 -40z"/>
<path d="M880 1519 c-7 -11 -10 -23 -7 -25 2 -2 9 7 15 21 14 30 7 33 -8 4z"/>
<path d="M841 1419 c-6 -18 -11 -37 -10 -43 0 -6 7 7 15 28 8 22 12 41 10 43
-2 2 -9 -10 -15 -28z"/>
<path d="M2815 1399 c-106 -13 -200 -45 -224 -74 -19 -25 -75 -175 -67 -182 2
-2 19 26 37 63 19 37 47 80 62 95 32 33 117 62 227 78 41 6 100 15 130 20 l55
9 -75 0 c-41 0 -106 -4 -145 -9z"/>
<path d="M816 1334 c-4 -14 -5 -28 -3 -31 3 -2 8 8 11 23 4 14 5 28 3 31 -3 2
-8 -8 -11 -23z"/>
<path d="M2119 1332 c57 -40 64 -50 75 -106 13 -65 32 -75 28 -14 -5 72 -29
104 -99 128 l-28 10 24 -18z"/>
<path d="M801 1274 c0 -11 3 -14 6 -6 3 7 2 16 -1 19 -3 4 -6 -2 -5 -13z"/>
<path d="M792 1230 c0 -14 2 -19 5 -12 2 6 2 18 0 25 -3 6 -5 1 -5 -13z"/>
<path d="M782 1180 c0 -14 2 -19 5 -12 2 6 2 18 0 25 -3 6 -5 1 -5 -13z"/>
<path d="M772 1130 c0 -14 2 -19 5 -12 2 6 2 18 0 25 -3 6 -5 1 -5 -13z"/>
<path d="M762 1070 c0 -19 2 -27 5 -17 2 9 2 25 0 35 -3 9 -5 1 -5 -18z"/>
<path d="M752 1000 c0 -19 2 -27 5 -17 2 9 2 25 0 35 -3 9 -5 1 -5 -18z"/>
<path d="M743 915 c0 -22 2 -30 4 -17 2 12 2 30 0 40 -3 9 -5 -1 -4 -23z"/>
<path d="M4140 890 c-6 -11 -8 -20 -6 -20 3 0 10 9 16 20 6 11 8 20 6 20 -3 0
-10 -9 -16 -20z"/>
<path d="M4086 798 c-94 -169 -158 -420 -182 -715 l-7 -83 27 0 26 0 0 83 c0
99 24 315 50 452 15 76 33 127 74 213 31 61 53 112 51 112 -2 0 -20 -28 -39
-62z"/>
<path d="M2695 77 c-28 -23 -61 -50 -75 -59 l-25 -17 37 0 c32 -1 40 3 54 31
9 18 28 45 42 61 36 38 26 33 -33 -16z"/>
</g>
</svg>