<?xml version="1.0" standalone="no"?>
<!DOCTYPE svg PUBLIC "-//W3C//DTD SVG 20010904//EN"
 "http://www.w3.org/TR/2001/REC-SVG-20010904/DTD/svg10.dtd">
<svg version="1.0" xmlns="http://www.w3.org/2000/svg"
 width="512.000000pt" height="512.000000pt" viewBox="0 0 512.000000 512.000000"
 preserveAspectRatio="xMidYMid meet">
<metadata>
Created by potrace 1.16, written by Peter Selinger 2001-2019
</metadata>
<g transform="translate(0.000000,512.000000) scale(0.100000,-0.100000)"
fill="#000000" stroke="none">
<path d="M3298 5021 l-388 -96 0 -122 0 -123 -40 0 c-29 0 -42 5 -50 20 -16
30 -90 76 -150 94 -106 32 -270 15 -385 -40 -80 -37 -186 -125 -240 -196 -58
-77 -93 -146 -134 -262 -18 -49 -44 -112 -59 -140 -29 -54 -112 -145 -151
-165 -23 -13 -24 -13 -16 25 9 49 37 103 77 151 l32 38 -43 -40 c-47 -43 -91
-124 -91 -167 0 -19 -10 -33 -32 -49 -104 -71 -168 -160 -186 -259 -10 -56 -2
-147 14 -159 5 -3 17 -29 26 -58 15 -49 15 -54 -2 -85 -24 -46 -120 -95 -158
-82 -14 5 -32 21 -39 34 -10 20 -13 21 -13 7 0 -10 13 -32 29 -48 23 -23 38
-29 70 -29 l41 0 -41 -52 c-23 -29 -56 -62 -75 -73 -19 -11 -42 -32 -51 -45
-17 -24 -16 -24 16 3 38 31 67 37 56 10 -14 -34 -17 -120 -5 -142 10 -19 6
-31 -33 -94 -25 -40 -61 -106 -82 -147 -47 -95 -61 -110 -99 -110 -39 0 -52 9
-65 43 -9 24 -8 31 14 53 13 13 32 24 42 25 16 0 16 1 -2 9 -14 5 -29 1 -52
-16 -19 -14 -47 -25 -70 -26 -35 -1 -35 -2 -7 -5 l31 -4 -14 -40 c-8 -23 -11
-55 -7 -74 8 -43 56 -101 97 -116 l33 -12 -10 -48 c-8 -40 -14 -49 -31 -49
-12 0 -26 5 -33 12 -9 9 -12 9 -12 -1 0 -6 13 -17 29 -22 28 -10 41 -32 41
-74 0 -11 14 -49 30 -84 l30 -64 -10 -246 c-5 -135 -13 -326 -17 -423 l-6
-178 -241 0 c-375 0 -654 -27 -746 -73 -61 -30 -84 -72 -84 -156 0 -58 6 -79
51 -178 62 -134 116 -297 137 -413 25 -136 38 -299 31 -382 l-7 -78 35 0 c31
0 35 3 41 31 11 54 7 193 -9 312 -28 217 -62 324 -211 667 -64 149 -15 193
261 227 185 22 748 25 752 3 6 -32 -14 -39 -137 -49 -261 -22 -504 -68 -572
-108 -56 -33 -56 -40 -10 -180 78 -238 98 -347 113 -603 6 -102 8 -211 4 -242
-6 -54 -5 -58 15 -58 12 0 20 7 20 18 2 83 52 303 66 289 3 -2 0 -17 -6 -32
-14 -37 -36 -202 -32 -242 l3 -33 751 0 c413 0 749 2 747 5 -9 8 -672 166
-1109 265 -265 59 -300 68 -300 78 0 5 48 16 108 25 59 10 301 53 537 97 237
44 516 96 620 115 105 20 213 40 240 45 66 13 358 50 394 50 28 0 29 -2 24
-38 -8 -57 12 -116 51 -149 31 -28 32 -31 16 -50 -9 -11 -32 -24 -51 -28 -44
-9 -79 -31 -79 -50 0 -55 391 -117 610 -96 115 11 156 22 212 58 84 52 86 107
4 138 l-46 18 20 32 c11 18 20 40 20 49 0 9 3 16 8 16 4 0 90 -9 192 -20 286
-31 274 -32 587 71 100 33 187 58 192 55 5 -4 11 -2 13 3 3 11 348 114 355
107 9 -9 -53 -35 -143 -60 -49 -14 -109 -32 -134 -41 -25 -9 -59 -16 -77 -17
-18 -1 -30 -5 -27 -9 3 -5 -30 -18 -72 -31 -42 -12 -73 -23 -67 -25 5 -2 38 5
73 16 62 19 84 20 64 2 -5 -5 -42 -18 -83 -30 -51 -16 -75 -28 -78 -41 -3 -11
-21 -22 -51 -31 -70 -18 -119 -46 -125 -69 -3 -11 -1 -22 4 -25 13 -8 604 -95
646 -95 44 0 493 147 493 162 0 5 -6 8 -13 5 -99 -38 -413 -130 -456 -134 -57
-5 -679 76 -652 85 12 4 102 -5 303 -32 125 -17 103 -21 453 86 127 38 260 79
298 91 l67 20 0 59 c0 52 -2 59 -17 54 -10 -2 -121 -35 -248 -71 -126 -36
-307 -91 -402 -121 -139 -44 -180 -53 -212 -48 -43 7 -71 29 -55 43 13 12 376
111 407 111 34 0 34 13 2 34 -24 16 -31 15 -138 -19 -129 -40 -127 -40 -127
-22 0 8 26 21 63 31 196 54 292 89 320 118 l29 29 189 -7 189 -7 0 391 0 390
-102 7 c-57 4 -130 5 -163 3 -42 -3 -26 -5 50 -7 83 -2 104 -5 84 -12 -14 -5
-33 -25 -42 -44 -16 -34 -18 -35 -75 -35 -74 0 -102 -18 -102 -66 0 -20 5 -34
13 -35 6 0 -3 -5 -22 -10 -18 -6 -35 -8 -38 -6 -11 12 89 352 248 844 27 83
49 158 49 167 0 9 -10 22 -22 29 -13 8 -159 30 -336 52 -308 37 -314 38 -332
19 -10 -11 -45 -108 -80 -224 -63 -210 -270 -928 -270 -937 0 -2 -5 -1 -11 3
-6 3 -72 13 -147 20 -260 27 -465 93 -538 174 -23 25 -47 62 -53 82 -7 20 -27
48 -45 62 -30 22 -38 40 -79 183 -26 87 -55 192 -65 233 -11 41 -35 116 -55
165 -37 92 -101 334 -95 359 2 8 23 29 48 48 63 48 94 107 96 188 2 36 6 92
10 125 5 52 3 70 -19 123 l-25 63 36 15 c98 40 152 124 152 233 0 62 1 65 40
98 45 39 114 167 108 203 -2 16 -13 27 -35 34 -57 20 -59 31 -11 64 41 28 104
91 124 124 7 10 74 22 239 42 332 40 1304 182 1313 191 16 16 -2 13 -753 -99
-93 -14 -289 -41 -435 -61 -146 -19 -285 -38 -310 -42 -42 -6 -44 -5 -30 12 8
10 14 20 12 22 -2 2 0 28 3 58 8 63 1 60 170 75 l100 9 -116 -4 c-64 -2 -122
-5 -130 -7 -9 -2 -15 14 -20 54 -3 31 -16 75 -27 97 l-21 40 37 10 c38 11 191
41 205 41 4 0 7 -6 7 -12 0 -10 26 -13 94 -13 89 0 96 2 123 26 15 15 53 39
83 54 30 15 90 56 133 90 43 35 107 77 143 95 39 20 64 39 64 49 0 10 -3 12
-8 5 -4 -5 -37 -27 -74 -47 -37 -21 -97 -62 -135 -93 -37 -31 -90 -68 -118
-81 -27 -14 -65 -37 -83 -51 l-32 -24 -19 43 c-10 24 -21 53 -25 64 -6 17 -10
14 -29 -20 -14 -25 -31 -41 -45 -43 -19 -3 -22 1 -22 32 0 36 -5 41 -34 30
-11 -4 -16 -19 -16 -49 l0 -43 -67 -12 c-38 -6 -95 -18 -128 -26 l-59 -16 -31
38 c-39 50 -208 175 -282 209 -32 15 -84 44 -115 64 l-57 36 0 120 -1 120 383
94 c210 51 391 97 402 102 l20 8 -20 -1 c-11 0 -194 -44 -407 -97z m-580 -273
c23 -11 45 -24 48 -29 7 -12 -19 -7 -27 4 -3 5 -35 19 -70 33 -40 15 -51 22
-29 18 19 -4 54 -15 78 -26z m-143 2 c-3 -5 -21 -10 -39 -10 -47 0 -98 -20
-191 -74 -44 -25 -68 -36 -52 -23 50 42 168 99 220 107 29 4 56 8 60 9 5 0 5
-3 2 -9z m196 -66 c10 -13 8 -13 -15 -4 -15 5 -43 10 -62 10 -38 0 -47 17 -11
22 28 5 72 -9 88 -28z m-13 -29 c52 -16 112 -58 112 -78 0 -7 -17 -20 -38 -29
-20 -10 -53 -33 -73 -52 -20 -19 -39 -33 -42 -30 -3 3 -15 -9 -27 -25 -12 -17
-28 -31 -36 -31 -25 0 146 148 188 163 22 7 -20 44 -70 61 -25 9 -77 16 -116
16 -50 0 -66 3 -56 10 22 15 100 12 158 -5z m195 -52 c-7 -2 -21 -2 -30 0 -10
3 -4 5 12 5 17 0 24 -2 18 -5z m117 -33 c17 -6 2 -8 -50 -8 -50 0 -68 2 -55 8
25 11 72 11 105 0z m-815 -8 c-6 -4 -46 -42 -89 -82 -62 -59 -72 -66 -45 -31
29 37 124 120 139 121 2 0 0 -4 -5 -8z m40 -34 c-22 -18 -62 -53 -90 -78 -46
-41 -48 -42 -15 -6 36 40 127 116 138 116 4 0 -11 -15 -33 -32z m315 -8 c-8
-6 -53 -31 -100 -57 -47 -26 -103 -58 -125 -73 -60 -40 -69 -45 -62 -33 16 25
265 173 292 173 6 0 3 -5 -5 -10z m554 -30 c36 -11 68 -25 71 -30 3 -5 -10 -3
-29 5 -19 8 -72 21 -118 29 -72 12 -77 14 -37 15 26 0 76 -8 113 -19z m-254
-25 c0 -23 -120 -113 -175 -131 -27 -9 -76 -27 -107 -40 -32 -13 -68 -23 -80
-23 -20 1 -21 2 -3 6 64 14 103 40 176 116 43 45 79 77 79 71 0 -6 -27 -39
-61 -73 -33 -33 -57 -61 -53 -61 4 0 16 7 26 17 10 9 18 11 18 5 0 -17 65 25
124 79 28 27 52 48 54 49 1 0 2 -7 2 -15z m788 -32 c-4 -48 -28 -57 -28 -10 0
18 3 37 7 40 16 16 24 4 21 -30z m142 -75 c0 -5 -12 -7 -27 -4 -16 4 -54 7
-85 7 -32 1 -58 5 -58 10 0 4 21 14 48 21 36 10 50 20 62 44 l15 30 22 -49
c13 -27 23 -53 23 -59z m-863 55 c-26 -49 -117 -124 -167 -137 -14 -4 -7 3 17
16 50 27 140 111 149 140 3 11 8 17 11 15 2 -3 -2 -18 -10 -34z m331 -17 c16
-8 35 -22 42 -31 10 -12 4 -11 -22 5 -20 11 -69 27 -110 35 l-73 15 67 -5 c37
-2 80 -11 96 -19z m-212 -64 c-14 -27 -99 -112 -112 -112 -6 0 116 137 124
139 1 1 -4 -12 -12 -27z m-915 3 c5 4 6 -1 3 -9 -6 -16 27 -86 50 -105 9 -8
16 -10 16 -7 0 4 22 -15 49 -43 27 -27 77 -68 111 -90 75 -49 70 -53 -12 -9
-71 38 -151 106 -141 120 3 6 1 8 -4 5 -19 -12 -73 71 -87 133 -3 14 -3 19 0
12 3 -6 10 -10 15 -7z m800 -23 c-5 -10 -18 -25 -27 -33 -11 -9 -9 -2 6 19 26
35 36 42 21 14z m397 -1 c12 -6 26 -20 32 -31 11 -20 11 -20 -22 0 -44 26 -74
25 -134 -5 -58 -29 -54 -29 -54 -11 0 16 46 56 64 56 6 0 -4 -10 -21 -21 -18
-12 -33 -25 -33 -30 0 -6 16 3 35 18 19 15 35 31 35 34 0 10 74 3 98 -10z
m-1149 -47 c12 -20 20 -39 17 -41 -2 -3 -14 13 -26 36 -25 51 -20 54 9 5z
m525 22 c-17 -8 -46 -16 -65 -20 -26 -4 -22 -1 16 13 58 21 95 27 49 7z m406
-6 c0 -12 -21 -42 -47 -68 -38 -38 -63 -52 -118 -70 -131 -40 -189 -52 -255
-50 l-65 1 65 7 65 7 -75 2 c-41 1 -93 9 -115 16 l-40 14 40 -7 c128 -21 346
7 438 56 51 27 97 74 97 98 0 8 2 14 5 14 3 0 5 -9 5 -20z m-513 -26 c-3 -3
-12 -4 -19 -1 -8 3 -5 6 6 6 11 1 17 -2 13 -5z m744 -45 c45 -48 52 -141 15
-219 -9 -19 -14 -26 -10 -15 34 115 27 184 -26 237 -16 15 -24 28 -18 28 5 0
23 -14 39 -31z m-220 -28 c-6 -10 -27 -33 -48 -51 -103 -91 -326 -134 -492
-95 -71 17 -170 66 -198 98 -14 16 -10 15 17 -5 90 -66 182 -93 310 -92 163 2
307 48 377 123 43 46 48 49 34 22z m67 -206 l4 -160 -43 -35 c-24 -19 -61 -47
-82 -62 l-40 -26 -17 21 c-17 20 -17 22 4 32 35 17 24 36 -39 71 -46 26 -72
34 -112 34 -51 0 -158 -18 -151 -26 3 -2 40 -6 84 -9 61 -5 88 -12 117 -31 22
-14 37 -27 35 -29 -1 -1 -50 3 -108 10 -71 9 -131 24 -185 45 -44 18 -91 36
-104 41 -20 8 -21 11 -10 26 8 10 9 14 2 10 -6 -4 -14 -3 -17 2 -3 5 25 12 62
15 104 11 196 40 333 104 135 64 184 100 214 156 l19 35 15 -32 c11 -23 16
-78 19 -192z m-1279 128 c-48 -65 -103 -109 -184 -150 -188 -95 -259 -154
-296 -245 -10 -24 -18 -35 -18 -25 -1 33 48 114 94 155 26 22 86 61 136 87 49
25 89 50 89 56 0 6 5 7 10 4 6 -3 10 -1 10 6 0 7 3 9 7 6 3 -4 12 1 20 11 10
11 12 12 8 2 -4 -8 3 -4 15 10 12 14 18 18 14 10 -4 -8 17 9 47 37 56 55 71
66 48 36z m136 -31 c-2 -2 -17 4 -35 13 -18 9 -33 15 -34 13 -1 -2 -15 -25
-30 -51 -58 -101 -114 -147 -259 -215 -119 -56 -100 -34 26 29 110 56 179 117
232 206 l30 51 37 -21 c20 -12 35 -23 33 -25z m112 -79 c-46 -33 -101 -114
-129 -191 -29 -79 -29 -238 1 -337 25 -84 26 -128 5 -231 -10 -49 -14 -97 -10
-131 7 -62 41 -156 62 -174 8 -7 24 -26 35 -43 14 -21 7 -16 -20 14 -48 53
-53 43 -11 -23 40 -63 80 -143 80 -159 0 -7 -9 6 -20 30 -10 23 -32 54 -47 69
-15 14 -21 22 -13 18 8 -5 -1 7 -20 27 -54 56 -106 120 -120 148 -7 14 9 1 36
-29 27 -29 57 -69 67 -87 9 -19 20 -34 22 -34 3 0 -2 14 -10 31 -9 17 -14 37
-11 44 2 7 -5 37 -16 67 -24 60 -29 169 -14 305 8 70 6 93 -14 173 -51 206 3
423 127 512 21 15 42 27 48 28 5 0 -7 -12 -28 -27z m133 -43 c10 -10 27 -45
36 -77 9 -32 25 -75 35 -95 11 -22 19 -58 19 -89 l0 -51 33 48 c17 26 42 53
53 61 20 13 25 9 79 -64 31 -43 70 -105 87 -138 39 -78 54 -93 95 -101 26 -5
54 1 106 21 89 35 113 53 158 120 22 32 41 50 47 46 14 -9 45 -177 37 -201 -8
-24 -32 -32 -57 -19 -12 6 -38 8 -60 5 -30 -5 -40 -3 -45 10 -8 21 21 44 54
44 13 0 23 5 23 11 0 8 -12 10 -36 6 -42 -7 -64 -23 -64 -47 0 -29 30 -45 82
-45 31 1 43 -2 33 -8 -8 -4 -15 -20 -15 -34 0 -18 -4 -24 -15 -19 -8 3 -30 3
-47 -1 -28 -6 -30 -7 -13 -15 17 -7 16 -8 -5 -4 -31 5 -143 -17 -134 -27 4 -4
23 -7 43 -7 20 0 60 -3 89 -7 48 -5 52 -8 46 -27 -12 -38 -35 -42 -114 -20
-25 7 -25 7 -6 -14 11 -12 27 -22 38 -22 15 0 17 -5 12 -27 -16 -65 -40 -86
-98 -85 -24 0 -65 9 -90 21 -117 51 -321 223 -351 294 -10 25 -15 71 -15 146
l0 111 -25 -12 c-40 -18 -69 2 -104 73 -25 50 -31 75 -31 126 0 64 18 116 42
126 28 11 59 6 78 -13z m-380 -126 c-55 -109 -111 -171 -208 -231 -42 -26 -90
-58 -107 -71 -43 -35 -85 -100 -86 -136 -1 -24 -3 -26 -6 -8 -12 63 44 136
173 223 102 68 147 117 214 227 30 50 57 89 59 86 3 -2 -15 -43 -39 -90z m520
60 c0 -2 -9 0 -20 6 -11 6 -20 13 -20 16 0 2 9 0 20 -6 11 -6 20 -13 20 -16z
m-39 -31 c13 -16 12 -17 -3 -4 -10 7 -18 15 -18 17 0 8 8 3 21 -13z m-344 -65
c-3 -8 -6 -5 -6 6 -1 11 2 17 5 13 3 -3 4 -12 1 -19z m556 -29 c45 -23 95 -51
111 -62 28 -20 28 -22 22 -87 -7 -82 7 -107 66 -116 40 -7 40 -7 17 -20 -35
-20 -103 -18 -121 4 -9 9 -25 38 -36 63 -11 26 -47 88 -81 138 -63 93 -78 121
-67 121 4 0 43 -19 89 -41z m-553 -56 c6 -37 38 -147 71 -244 48 -145 59 -188
57 -235 l-2 -59 -3 50 c-2 28 -8 54 -14 59 -5 6 -9 20 -9 31 0 12 -14 61 -30
111 -60 175 -103 354 -86 354 2 0 9 -30 16 -67z m-466 5 c-56 -60 -62 -69 -85
-129 -14 -39 -19 -45 -15 -21 9 53 37 103 83 150 23 23 46 42 50 42 4 0 -11
-19 -33 -42z m381 -126 c-11 -119 -18 -74 -9 55 6 80 10 102 12 68 2 -27 1
-83 -3 -123z m995 135 c33 -16 36 -49 11 -91 -11 -18 -17 -37 -13 -41 4 -5 2
-5 -4 -2 -12 7 -68 -46 -58 -56 11 -11 -67 -20 -99 -10 -31 9 -32 10 -32 68 1
83 8 98 39 83 14 -6 24 -14 22 -17 -2 -3 6 -7 19 -7 14 -1 35 10 51 27 l28 29
-26 0 c-40 0 -88 12 -88 21 0 14 122 10 150 -4z m-1049 -155 c-9 -134 -14
-163 -48 -259 -36 -104 -37 -113 -38 -243 0 -123 2 -139 24 -180 13 -25 33
-56 45 -70 l21 -25 -24 20 c-13 11 -35 43 -50 70 -25 47 -26 58 -26 190 1 119
5 155 28 240 14 55 36 171 48 258 12 86 24 155 26 153 2 -2 0 -71 -6 -154z
m1264 149 c-16 -4 -40 -13 -52 -20 -13 -6 -23 -9 -23 -7 0 11 56 35 80 35 23
-1 22 -2 -5 -8z m62 -83 c-26 -57 -86 -128 -108 -128 -8 0 -1 9 15 19 35 23
92 110 102 155 4 17 9 25 11 19 3 -7 -6 -36 -20 -65z m-22 30 c-12 -40 -55
-107 -75 -118 -17 -9 -19 -6 -23 42 l-3 53 -2 -57 c-2 -44 -6 -58 -17 -58 -11
0 -15 11 -15 43 1 76 62 119 73 50 4 -27 4 -27 6 4 1 34 23 63 47 63 11 0 13
-6 9 -22z m-1808 -80 c-2 -18 -4 -6 -4 27 0 33 2 48 4 33 2 -15 2 -42 0 -60z
m383 28 c0 -2 -8 -10 -17 -17 -16 -13 -17 -12 -4 4 13 16 21 21 21 13z m-40
-31 c0 -2 -10 -9 -22 -15 -22 -11 -22 -10 -4 4 21 17 26 19 26 11z m1200 -8
c0 -2 -10 -12 -22 -23 l-23 -19 19 23 c18 21 26 27 26 19z m-880 -156 c11 -56
20 -117 19 -135 0 -17 -11 30 -25 104 -13 74 -23 146 -22 160 l1 25 4 -25 c2
-14 13 -72 23 -129z m206 129 c6 6 9 -27 9 -93 l0 -102 73 -132 c41 -73 76
-140 78 -150 3 -11 -18 -51 -48 -97 -109 -163 -117 -185 -77 -206 27 -15 38
-4 15 13 -22 16 -16 58 13 97 24 30 40 19 72 -46 23 -48 21 -99 -7 -141 -18
-29 -63 -30 -120 -4 -40 18 -41 20 -48 81 -7 64 -41 167 -72 220 -17 28 -17
31 11 91 36 81 45 213 21 305 -18 69 -16 88 16 143 20 35 25 38 39 26 10 -10
19 -11 25 -5z m-432 -2 c-38 -63 -105 -120 -234 -200 -80 -49 -128 -94 -153
-143 -9 -16 -16 -24 -17 -17 -1 47 59 106 199 197 58 37 127 91 155 121 52 54
63 64 50 42z m-367 -50 c-3 -7 -5 -2 -5 12 0 14 2 19 5 13 2 -7 2 -19 0 -25z
m490 -135 c-3 -10 -5 -4 -5 12 0 17 2 24 5 18 2 -7 2 -21 0 -30z m-10 -55 c-3
-7 -5 -2 -5 12 0 14 2 19 5 13 2 -7 2 -19 0 -25z m1018 22 c3 -5 1 -10 -4 -10
-6 0 -11 5 -11 10 0 6 2 10 4 10 3 0 8 -4 11 -10z m-990 -105 c-11 -67 -13
-73 -14 -36 -1 38 18 126 25 118 2 -1 -3 -38 -11 -82z m-215 44 c-56 -49 -142
-88 -289 -134 -73 -23 -32 0 64 35 105 38 166 68 214 104 47 35 54 32 11 -5z
m-354 -12 c-36 -47 -48 -83 -56 -167 l-7 -75 -1 68 c-1 41 4 82 13 104 15 36
61 103 71 103 3 0 -6 -15 -20 -33z m741 -44 c-3 -10 -5 -2 -5 17 0 19 2 27 5
18 2 -10 2 -26 0 -35z m-80 15 c-3 -8 -6 -5 -6 6 -1 11 2 17 5 13 3 -3 4 -12
1 -19z m68 -65 c-4 -16 -22 -53 -42 -83 -19 -30 -33 -50 -32 -44 6 19 74 153
78 153 2 1 0 -11 -4 -26z m-390 -60 c24 -136 47 -230 65 -266 70 -133 91 -182
120 -272 l32 -100 -32 -26 c-30 -26 -30 -27 -9 -32 12 -3 38 1 57 9 19 7 40
14 47 14 7 0 23 -44 40 -107 28 -111 84 -268 91 -260 3 3 -2 22 -10 43 -20 53
-62 196 -80 271 l-14 63 34 21 c44 27 91 96 118 173 l22 61 29 -14 c16 -8 49
-16 73 -19 54 -6 62 -22 87 -172 9 -58 33 -186 53 -285 29 -147 35 -204 36
-311 1 -131 1 -131 -34 -200 -42 -82 -93 -125 -227 -190 -90 -44 -237 -89
-254 -79 -4 3 -6 12 -3 19 4 10 -5 16 -28 21 -45 10 -127 55 -139 76 -10 20
-59 325 -59 371 0 17 9 45 19 62 10 17 33 101 51 186 40 189 38 280 -9 464
-71 279 -181 401 -369 414 -53 3 -70 8 -62 16 12 12 282 83 322 85 24 1 28 -4
33 -36z m152 -35 c-3 -7 -5 -2 -5 12 0 14 2 19 5 13 2 -7 2 -19 0 -25z m958
-42 c54 -71 80 -185 55 -241 -6 -14 -7 -7 -3 21 7 52 -9 102 -59 180 -21 34
-38 64 -38 68 0 16 21 3 45 -28z m-892 -141 c21 -39 29 -59 17 -45 -32 40 -70
123 -76 166 l-4 39 13 -45 c7 -25 30 -77 50 -115z m767 -7 c0 -17 -9 -6 -59
70 -68 104 -65 117 4 17 30 -43 55 -82 55 -87z m-1155 116 c96 -45 181 -164
221 -309 23 -83 30 -294 13 -371 l-13 -59 -7 135 c-7 145 -16 179 -74 288 -34
64 -82 128 -90 121 -2 -2 19 -40 46 -84 27 -44 59 -109 69 -144 22 -70 26
-116 6 -61 -17 46 -70 150 -90 175 -8 11 2 -15 24 -58 44 -90 63 -181 58 -281
l-3 -70 -34 87 c-39 101 -53 110 -21 13 12 -36 26 -96 31 -133 5 -37 12 -77
15 -88 5 -15 -3 -11 -32 16 -75 70 -236 200 -241 195 -3 -3 60 -70 141 -149
145 -143 189 -202 99 -133 -89 68 -238 164 -278 180 l-40 16 45 -41 c84 -76
136 -114 218 -159 78 -43 82 -47 82 -80 0 -19 5 -52 11 -73 6 -22 9 -40 7 -42
-5 -5 -123 97 -212 183 -65 63 -76 70 -60 42 26 -48 150 -171 218 -216 43 -28
57 -44 61 -68 3 -17 17 -110 30 -206 14 -96 28 -190 31 -207 l6 -33 -59 0
c-70 0 -147 -24 -221 -70 -91 -56 -58 -47 133 34 67 28 97 31 144 15 24 -9 31
-16 29 -33 -2 -17 -10 -21 -43 -22 -100 -2 -183 -35 -249 -100 -33 -32 -66
-87 -66 -111 0 -4 32 27 70 69 81 88 149 128 219 128 32 0 51 -6 68 -22 34
-32 29 -41 -19 -35 -24 3 -37 3 -29 0 11 -5 11 -7 0 -14 -9 -6 3 -7 29 -3 25
4 52 2 65 -4 28 -14 193 -47 317 -63 118 -15 583 -15 805 1 271 19 484 23 598
11 60 -6 114 -14 120 -18 6 -4 19 -8 28 -8 27 -2 69 -34 69 -52 0 -13 -7 -10
-30 12 -16 16 -30 24 -30 18 0 -6 7 -16 16 -23 23 -20 35 -47 28 -65 -5 -12
-15 -7 -53 28 -37 35 -60 47 -115 61 -38 9 -82 24 -98 32 -17 9 -27 11 -23 5
9 -15 58 -35 125 -51 40 -10 66 -24 102 -58 53 -49 52 -49 38 -87 l-10 -27
-50 60 c-48 57 -51 59 -142 84 -51 14 -102 28 -113 32 l-20 8 20 -17 c11 -9
52 -25 90 -36 105 -30 111 -34 149 -86 50 -68 61 -92 50 -103 -5 -5 -34 14
-74 50 -58 53 -76 63 -173 95 -60 19 -111 35 -114 35 -17 0 14 -14 108 -49 92
-34 112 -45 172 -102 69 -66 87 -102 45 -92 -27 7 -72 36 -110 71 -38 35 -48
19 -13 -18 35 -37 23 -38 -56 -5 -102 43 -139 46 -217 18 -61 -23 -76 -25
-171 -19 -126 8 -165 23 -188 70 -14 30 -15 41 -4 77 15 50 53 91 76 82 13 -4
16 -1 13 18 -5 38 -44 31 -91 -15 -50 -50 -67 -92 -74 -183 l-6 -73 -51 0
c-73 -1 -124 -15 -155 -43 -18 -18 -42 -26 -81 -31 -30 -3 -129 -15 -220 -25
-179 -22 -384 -37 -635 -47 -155 -6 -161 -5 -188 16 -43 34 -85 128 -128 293
-126 475 -131 498 -184 836 -19 123 -51 289 -70 368 -41 167 -43 222 -14 369
36 189 91 326 161 401 55 59 170 71 263 27z m1053 -56 c8 -10 12 -18 9 -18
-10 0 -67 81 -67 94 0 6 10 -5 21 -24 12 -19 28 -43 37 -52z m306 40 c10 -39
7 -44 -9 -14 -17 33 -18 36 -6 36 5 0 11 -10 15 -22z m-184 -28 c6 -11 8 -20
6 -20 -3 0 -10 9 -16 20 -6 11 -8 20 -6 20 3 0 10 -9 16 -20z m-123 -146 c39
-19 78 -34 87 -34 20 0 25 -10 42 -88 l14 -67 -5 55 c-3 30 -8 65 -11 78 -9
32 11 27 25 -5 6 -16 20 -78 31 -139 24 -134 60 -263 101 -358 17 -39 49 -138
71 -221 54 -208 108 -365 124 -365 19 0 43 -28 50 -58 4 -15 24 -46 46 -68
l40 -42 -50 -16 c-27 -9 -67 -33 -88 -52 -39 -35 -39 -35 -4 -11 99 69 117 70
287 9 103 -36 178 -51 386 -77 l48 -6 -30 -28 c-34 -31 -51 -68 -51 -108 0
-26 0 -26 -62 -19 -35 3 -147 10 -250 15 -188 10 -260 21 -289 47 -9 8 -18 12
-21 9 -3 -3 -11 1 -18 10 -10 12 -9 24 8 65 12 28 17 50 12 50 -5 0 -28 -25
-52 -56 -42 -55 -103 -127 -78 -91 11 14 11 22 0 42 -20 37 21 158 71 208 21
21 31 37 22 37 -23 0 -111 -89 -156 -157 -22 -34 -42 -61 -44 -59 -8 8 20 113
38 143 12 18 44 47 73 64 28 17 40 27 26 23 -48 -13 -96 -43 -138 -85 -38 -37
-41 -39 -32 -15 12 32 82 137 103 154 8 7 39 26 68 43 42 24 47 29 24 24 -50
-11 -117 -55 -172 -113 l-52 -55 -11 27 c-15 39 -12 180 5 261 8 38 15 117 15
174 0 85 3 108 18 125 16 20 16 20 -1 7 -9 -8 -19 -12 -22 -10 -2 3 -11 72
-20 154 -15 137 -15 183 0 262 4 23 2 21 -9 -7 l-14 -35 -3 75 c-2 41 -6 -78
-9 -265 l-5 -340 -27 -58 c-37 -79 -117 -161 -192 -196 -108 -52 -108 -52 -62
41 41 81 41 82 40 192 -1 80 -10 154 -32 266 -17 85 -42 221 -56 301 -14 80
-30 157 -35 172 -8 19 -6 28 5 38 24 20 41 60 49 113 7 45 9 48 21 31 8 -11
14 -45 15 -79 0 -54 2 -58 11 -33 12 33 -5 144 -29 191 -15 28 -13 28 33 -13
27 -24 81 -59 121 -77z m-686 -31 c13 -16 12 -17 -3 -4 -10 7 -18 15 -18 17 0
8 8 3 21 -13z m888 -5 c0 -13 -4 -32 -8 -43 -8 -17 -10 -16 -18 15 -7 24 -6
37 1 42 19 13 26 9 25 -14z m-787 -86 c26 -24 48 -49 48 -54 0 -5 -17 8 -37
30 -21 21 -54 51 -73 66 -22 18 -26 23 -11 15 14 -6 46 -32 73 -57z m125 6
c-3 -8 -6 -5 -6 6 -1 11 2 17 5 13 3 -3 4 -12 1 -19z m-157 -149 c9 -16 -12
-59 -29 -59 -4 0 -14 26 -21 58 -7 31 -15 64 -17 72 -5 16 51 -43 67 -71z
m-988 1 c31 -8 32 -8 5 -9 -18 -1 -38 10 -60 32 -18 17 -21 21 -6 8 15 -13 42
-27 61 -31z m3603 -81 c149 -17 280 -35 293 -40 13 -5 22 -17 22 -30 0 -12
-32 -119 -71 -238 -86 -264 -156 -487 -199 -643 l-33 -118 -76 -1 c-42 0 -98
-4 -126 -7 l-50 -7 -9 -48 c-6 -36 -14 -51 -32 -59 -13 -6 -26 -20 -30 -30 -3
-11 -19 -28 -36 -38 -60 -36 -76 -107 -39 -176 26 -48 26 -70 2 -126 l-19 -45
-218 -61 c-145 -41 -221 -59 -228 -52 -7 7 -6 10 3 10 7 0 10 4 7 9 -3 5 24
107 60 228 36 120 76 256 89 303 12 47 39 141 60 210 20 69 70 240 110 380 94
322 173 591 180 608 3 9 16 11 37 8 18 -3 155 -19 303 -37z m-3499 -407 c-3
-47 -11 -91 -19 -102 -13 -18 -14 -7 -11 91 2 61 4 143 5 183 l1 71 14 -80 c9
-49 13 -112 10 -163z m64 -527 c-20 -42 -69 -100 -77 -92 -2 3 15 52 39 110
l43 106 7 -42 c6 -32 3 -51 -12 -82z m3736 13 c-8 -18 -48 -107 -91 -198 -42
-91 -106 -232 -142 -315 -36 -82 -72 -158 -82 -169 -15 -18 -15 -18 9 -11 14
4 22 4 18 0 -3 -3 -42 -16 -85 -27 -43 -11 -198 -55 -344 -99 -423 -126 -469
-136 -469 -100 0 14 12 23 40 33 37 12 28 13 -115 14 -145 1 -155 0 -155 -17
0 -14 7 -19 30 -19 20 0 30 5 30 15 0 22 17 18 23 -5 6 -24 57 -29 57 -5 0 20
39 19 47 -1 3 -8 2 -19 -3 -23 -5 -5 -74 0 -154 9 -84 10 -125 18 -97 19 40 1
48 4 45 19 -3 14 -20 19 -96 26 -50 4 -92 11 -92 15 0 4 102 6 228 3 253 -5
224 -9 527 79 94 28 182 59 197 69 15 11 40 20 55 19 25 0 26 -1 8 -9 -12 -5
5 -6 44 -3 45 4 62 3 57 -5 -3 -6 -20 -13 -37 -17 -17 -4 -28 -9 -25 -12 2 -3
28 3 57 12 37 13 69 16 113 12 74 -7 63 -21 156 191 82 189 214 482 229 511
19 34 33 24 17 -11z m-2231 -103 c37 -68 89 -157 115 -197 l48 -73 -270 -3
c-149 -1 -273 0 -276 2 -5 6 43 135 73 196 13 25 34 55 47 67 17 16 187 132
194 133 1 0 32 -56 69 -125z m2158 48 c3 -5 1 -18 -4 -30 -6 -18 -16 -23 -41
-23 -69 0 -95 19 -66 48 13 13 104 17 111 5z m-3619 -50 c4 -27 16 -117 26
-201 11 -84 24 -172 30 -195 15 -68 15 -69 -32 -50 -61 24 -149 77 -176 106
l-23 24 22 102 c19 88 29 112 64 160 24 32 48 67 54 79 18 34 28 26 35 -25z
m1055 -47 c-8 -8 -212 -76 -216 -72 -5 4 186 75 206 75 8 1 12 -1 10 -3z
m2491 -21 c0 -12 -22 -15 -127 -17 -71 -1 -103 -3 -73 -5 91 -5 182 -14 177
-19 -6 -7 -319 17 -341 26 -21 9 -21 9 -1 11 19 1 246 14 328 17 27 2 37 -2
37 -13z m-2516 -57 c-19 -62 -23 -67 -61 -73 -21 -3 -50 -8 -65 -10 -16 -3
-28 -1 -28 4 0 14 70 72 104 87 46 20 59 18 50 -8z m1631 12 c7 -12 -47 -131
-68 -149 -14 -11 -20 -11 -32 -1 -31 26 -9 125 32 149 23 13 60 14 68 1z m728
-17 c81 -3 147 -10 147 -14 0 -5 -10 -29 -22 -53 l-21 -45 -25 20 c-14 10 -34
19 -46 19 -17 0 -15 -3 11 -16 54 -27 55 -21 -43 -251 l-39 -93 -68 0 c-109 0
-107 -3 -107 163 0 78 -4 168 -10 200 -12 78 -6 91 39 83 20 -4 102 -9 184
-13z m-237 -116 c10 -42 14 -80 11 -83 -8 -9 -108 66 -102 76 2 4 16 5 30 2
15 -2 25 0 25 7 0 6 -4 11 -10 11 -16 0 -12 32 7 52 9 10 18 17 19 15 2 -2 11
-38 20 -80z m-505 -33 c-41 -126 -109 -345 -114 -369 -3 -11 -3 -2 -1 20 3 43
136 463 141 448 2 -5 -10 -50 -26 -99z m449 -101 c65 -71 65 -83 0 -83 -34 0
-50 4 -50 13 0 7 -9 29 -20 50 -20 37 -25 81 -14 112 5 13 9 11 20 -11 8 -14
36 -51 64 -81z m50 8 c0 -9 -18 2 -45 29 -25 24 -45 51 -45 59 0 9 18 -2 45
-29 25 -24 45 -51 45 -59z m-3050 -189 c3 -2 -56 -2 -131 1 -201 8 -225 26
-174 127 l25 49 137 -86 c76 -47 140 -88 143 -91z m-334 27 c13 -22 129 -68
220 -89 l94 -22 -43 -49 c-145 -169 -346 -284 -572 -329 -33 -6 -68 -14 -79
-17 -15 -4 -12 7 19 66 21 39 60 104 89 145 56 82 245 306 257 306 4 0 11 -5
15 -11z m3384 -19 c0 -5 -10 -10 -22 -10 -19 0 -20 2 -8 10 19 13 30 13 30 0z
m-3942 -155 c11 -55 23 -131 26 -170 5 -65 4 -61 -19 45 -13 63 -32 147 -42
186 -20 76 -18 120 3 69 6 -16 21 -75 32 -130z m2774 74 c38 -6 70 -14 73 -19
9 -15 -58 -20 -128 -9 -46 8 -142 10 -264 6 -106 -3 -193 -4 -193 -2 0 38 321
53 512 24z m155 -5 c-3 -3 -12 -4 -19 -1 -8 3 -5 6 6 6 11 1 17 -2 13 -5z m26
-21 c-7 -2 -21 -2 -30 0 -10 3 -4 5 12 5 17 0 24 -2 18 -5z m67 -13 c0 -13
-11 -13 -30 0 -12 8 -11 10 8 10 12 0 22 -4 22 -10z m37 4 c-3 -3 -12 -4 -19
-1 -8 3 -5 6 6 6 11 1 17 -2 13 -5z m-669 -25 c92 -11 334 -7 426 7 l39 7 -5
-69 c-9 -124 -72 -210 -198 -268 -42 -20 -71 -26 -125 -26 -138 0 -201 39
-230 142 -24 87 -35 230 -17 223 8 -3 57 -10 110 -16z m604 0 c2 -6 39 -11 97
-11 63 -1 88 -4 76 -10 -20 -12 -295 1 -295 13 0 18 116 26 122 8z m105 5 c-3
-3 -12 -4 -19 -1 -8 3 -5 6 6 6 11 1 17 -2 13 -5z m-857 -33 c0 -16 -6 -18
-45 -13 -44 4 -45 4 -60 -32 -21 -51 -10 -103 31 -143 35 -36 31 -46 -5 -12
-46 43 -65 133 -40 182 17 31 28 37 77 37 34 0 42 -3 42 -19z m1030 9 c-8 -5
-26 -9 -40 -9 -23 1 -23 2 5 9 43 11 52 11 35 0z m-1016 -136 c11 -82 10 -84
-26 -73 -41 11 -78 55 -78 92 0 26 2 27 49 27 l48 0 7 -46z m16 -113 c0 -4
-15 -12 -32 -17 -23 -7 -33 -16 -33 -29 0 -72 479 -102 612 -39 38 19 35 30
-14 50 -43 18 -33 38 15 31 37 -6 72 -32 72 -53 0 -23 -68 -72 -121 -85 -37
-10 -114 -14 -244 -13 -170 0 -196 2 -250 22 -124 46 -139 101 -36 133 14 4
27 8 29 8 1 1 2 -3 2 -8z"/>
<path d="M2258 3928 c-10 -8 -19 -34 -22 -63 l-5 -50 10 42 c13 55 40 72 69
43 22 -22 19 -40 -8 -40 -15 0 -15 -2 -2 -10 13 -9 13 -10 0 -10 -43 -1 -59
-47 -30 -81 20 -22 20 -22 11 -2 -17 34 -13 50 12 55 20 4 23 1 19 -24 -4 -25
21 -98 34 -98 3 0 4 19 4 43 -1 23 2 52 5 65 6 18 4 21 -10 16 -15 -6 -16 -4
-6 14 17 33 13 61 -14 87 -27 28 -44 31 -67 13z"/>
<path d="M1670 2726 c0 -2 8 -10 18 -17 15 -13 16 -12 3 4 -13 16 -21 21 -21
13z"/>
<path d="M1752 1169 c-101 -49 -179 -164 -189 -278 -7 -72 12 -92 21 -23 7 56
63 173 103 219 15 17 55 50 87 72 70 49 64 52 -22 10z"/>
<path d="M1820 1128 c-23 -24 -54 -60 -67 -80 -14 -21 -27 -38 -29 -38 -2 0
-1 20 1 45 3 25 3 45 1 45 -20 0 -73 -227 -58 -242 5 -5 37 40 72 99 35 60 75
126 89 148 40 61 42 65 38 65 -2 0 -23 -19 -47 -42z"/>
<path d="M3070 1050 c-6 -11 -8 -20 -6 -20 3 0 10 9 16 20 6 11 8 20 6 20 -3
0 -10 -9 -16 -20z"/>
<path d="M2482 914 c-68 -37 -121 -68 -118 -71 6 -6 215 103 236 123 22 22 13
18 -118 -52z"/>
<path d="M2695 910 c-16 -17 -67 -55 -113 -86 -46 -31 -81 -58 -79 -61 6 -5
101 42 139 70 31 23 92 96 86 103 -3 2 -17 -10 -33 -26z"/>
<path d="M2700 2725 c35 -36 67 -65 69 -65 3 0 -24 29 -59 65 -35 36 -67 65
-69 65 -3 0 24 -29 59 -65z"/>
<path d="M2632 2598 c-23 -18 -42 -37 -42 -43 0 -6 13 -21 30 -33 28 -21 29
-26 33 -105 l3 -82 2 86 c2 85 2 85 -30 109 l-32 23 43 39 c53 46 49 49 -7 6z"/>
<path d="M3160 1271 c0 -6 4 -13 10 -16 6 -3 7 1 4 9 -7 18 -14 21 -14 7z"/>
<path d="M4362 2463 c-12 -22 -126 -421 -177 -618 -20 -77 -65 -228 -101 -335
-35 -107 -64 -199 -63 -205 0 -5 25 60 55 145 46 131 87 271 179 615 31 115
108 371 117 388 5 10 7 21 5 24 -3 2 -10 -4 -15 -14z"/>
<path d="M4378 803 c7 -3 16 -2 19 1 4 3 -2 6 -13 5 -11 0 -14 -3 -6 -6z"/>
<path d="M4435 795 c-33 -7 -161 -43 -284 -79 -123 -36 -241 -69 -262 -72 -40
-7 -44 -24 -6 -24 18 0 354 96 592 170 69 22 48 24 -40 5z"/>
<path d="M4238 763 c7 -3 16 -2 19 1 4 3 -2 6 -13 5 -11 0 -14 -3 -6 -6z"/>
<path d="M4198 753 c7 -3 16 -2 19 1 4 3 -2 6 -13 5 -11 0 -14 -3 -6 -6z"/>
<path d="M4028 703 c7 -3 16 -2 19 1 4 3 -2 6 -13 5 -11 0 -14 -3 -6 -6z"/>
<path d="M3928 673 c7 -3 16 -2 19 1 4 3 -2 6 -13 5 -11 0 -14 -3 -6 -6z"/>
<path d="M3988 5113 c7 -3 16 -2 19 1 4 3 -2 6 -13 5 -11 0 -14 -3 -6 -6z"/>
<path d="M4275 5085 c-71 -18 -123 -33 -115 -34 8 0 57 10 109 24 l94 24 -6
-460 c-5 -325 -4 -459 4 -459 7 0 9 41 7 128 -2 70 -2 276 0 459 l2 331 38 10
c20 5 28 10 17 10 -11 1 -78 -14 -150 -33z"/>
<path d="M4938 4660 c-2 -253 0 -460 5 -460 4 0 7 207 7 460 0 253 -2 460 -5
460 -2 0 -6 -207 -7 -460z"/>
<path d="M4980 4703 c0 -276 3 -423 10 -423 13 0 13 809 0 830 -6 10 -10 -131
-10 -407z"/>
<path d="M3850 5085 c-47 -13 -78 -23 -70 -24 8 0 56 10 105 23 50 13 81 24
70 24 -11 0 -58 -10 -105 -23z"/>
<path d="M4716 4943 c-25 -76 -46 -145 -46 -153 0 -8 23 52 50 134 28 82 48
151 46 153 -2 2 -25 -58 -50 -134z"/>
<path d="M3510 5015 c-96 -24 -228 -55 -292 -70 -114 -26 -136 -36 -102 -49 8
-3 13 -2 10 3 -6 9 61 29 229 66 148 33 335 82 343 90 9 8 -3 6 -188 -40z"/>
<path d="M125 5040 c83 -34 319 -119 322 -116 2 2 -26 15 -64 30 -169 64 -259
96 -268 95 -5 0 -1 -4 10 -9z"/>
<path d="M400 5037 c0 -10 5 -28 11 -39 11 -20 12 -21 24 -4 12 16 14 16 20
-3 6 -20 12 -23 68 -35 23 -5 27 -3 28 16 1 19 3 18 9 -7 5 -21 8 -24 10 -10
1 19 2 19 9 1 11 -29 41 -29 41 -1 0 13 -5 27 -11 31 -8 4 -9 0 -4 -15 4 -12
2 -21 -4 -21 -6 0 -11 8 -11 18 0 11 -11 24 -25 30 -23 11 -25 10 -26 -16 l-1
-27 -7 30 c-7 35 -23 36 -32 3 -6 -21 -6 -21 -10 7 -2 18 -10 30 -19 30 -8 0
-18 4 -22 10 -4 5 -10 1 -14 -9 -6 -17 -8 -16 -20 5 -11 20 -13 21 -14 6z m80
-32 c0 -8 -4 -15 -10 -15 -5 0 -10 7 -10 15 0 8 5 15 10 15 6 0 10 -7 10 -15z"/>
<path d="M4118 5043 c7 -3 16 -2 19 1 4 3 -2 6 -13 5 -11 0 -14 -3 -6 -6z"/>
<path d="M4078 5033 c7 -3 16 -2 19 1 4 3 -2 6 -13 5 -11 0 -14 -3 -6 -6z"/>
<path d="M3815 4975 c-115 -29 -203 -53 -195 -54 8 0 112 24 230 53 118 30
206 54 195 54 -11 0 -114 -24 -230 -53z"/>
<path d="M4818 4873 c-2 -74 -7 -108 -15 -111 -9 -2 -13 -26 -13 -72 l0 -69
-40 -12 c-40 -12 -40 -13 -40 -61 0 -43 -3 -50 -26 -58 -33 -13 -34 -13 -34 5
0 8 -4 15 -10 15 -6 0 -10 -55 -10 -145 0 -90 4 -145 10 -145 6 0 10 48 10
124 l0 124 29 7 c39 8 49 22 53 75 3 38 6 45 31 51 l27 7 0 -133 c0 -79 -4
-136 -10 -140 -5 -3 -10 -26 -10 -51 0 -31 4 -43 11 -38 7 4 9 21 6 40 -3 19
-2 34 4 34 5 0 9 -16 9 -35 0 -19 4 -35 10 -35 6 0 8 89 4 255 -6 231 -5 255
10 255 14 0 16 15 16 110 0 61 -4 110 -9 110 -5 0 -11 -48 -13 -107z"/>
<path d="M4890 4620 c0 -233 4 -360 10 -360 6 0 10 127 10 360 0 233 -4 360
-10 360 -6 0 -10 -127 -10 -360z"/>
<path d="M630 4946 c0 -35 20 -43 21 -9 l1 28 7 -30 c3 -16 9 -28 12 -25 3 3
13 -1 22 -9 15 -11 17 -11 17 2 0 8 3 22 6 31 3 9 1 16 -5 16 -6 0 -11 -7 -11
-15 0 -8 -5 -15 -11 -15 -6 0 -9 7 -5 15 3 8 -3 19 -14 25 -29 16 -40 12 -40
-14z"/>
<path d="M3485 4959 c-22 -5 -73 -16 -112 -25 -65 -14 -73 -18 -73 -39 0 -12
7 -26 16 -29 24 -9 92 5 98 20 3 8 1 14 -4 14 -6 0 -10 -4 -10 -10 0 -5 -20
-10 -45 -10 -65 0 -61 25 8 39 28 6 77 16 107 23 30 6 59 15 65 20 11 10 5 9
-50 -3z"/>
<path d="M122 4752 l3 -197 2 188 c2 121 7 187 14 187 6 0 19 -5 30 -11 11 -6
25 -9 30 -7 6 2 -10 11 -36 20 l-45 17 2 -197z"/>
<path d="M250 4942 c0 -4 10 -8 22 -9 11 -1 24 -6 27 -12 4 -6 12 -6 20 -2 9
6 4 12 -20 20 -38 13 -49 14 -49 3z"/>
<path d="M727 4919 c-9 -34 -9 -40 6 -37 6 1 22 -4 35 -11 13 -7 28 -10 35 -8
7 2 24 -4 39 -15 27 -18 48 -17 48 3 0 5 -7 9 -15 9 -8 0 -15 4 -15 10 0 5 7
6 17 3 11 -4 14 -3 9 6 -5 8 -18 10 -32 7 -19 -5 -24 -2 -24 11 0 15 -2 16
-10 3 -6 -10 -10 -11 -10 -2 0 18 -18 15 -23 -5 -4 -15 -6 -15 -12 5 -4 12
-12 22 -17 22 -5 0 -6 -4 -3 -10 3 -5 4 -10 0 -10 -3 0 -9 10 -14 22 -8 21 -8
21 -14 -3z"/>
<path d="M3460 4918 c-19 -6 -30 -12 -24 -15 7 -2 27 3 45 11 39 17 29 19 -21
4z"/>
<path d="M245 4911 c13 -11 77 -32 82 -27 2 2 -17 11 -44 20 -26 9 -43 12 -38
7z"/>
<path d="M343 4908 c2 -7 12 -13 23 -13 10 0 24 -7 31 -15 11 -13 12 -13 13 2
0 9 -13 21 -31 27 -40 14 -42 14 -36 -1z"/>
<path d="M470 4910 c8 -5 20 -10 25 -10 6 0 3 5 -5 10 -8 5 -19 10 -25 10 -5
0 -3 -5 5 -10z"/>
<path d="M3540 4910 c-20 -6 -21 -8 -5 -8 11 0 31 4 45 8 20 6 21 8 5 8 -11 0
-31 -4 -45 -8z"/>
<path d="M4254 4877 c-11 -18 -41 -75 -66 -127 -25 -52 -55 -103 -65 -113 -19
-17 -20 -15 -43 95 -13 62 -28 118 -33 123 -7 7 -8 5 -5 -5 3 -8 16 -64 28
-125 13 -60 26 -114 30 -118 9 -10 80 94 105 153 24 57 23 56 68 63 l37 6 1
-277 c0 -152 4 -314 7 -359 l7 -83 -30 -1 c-18 -1 -22 -3 -10 -5 11 -3 40 0
65 5 38 7 40 9 14 10 l-31 1 -7 275 c-6 242 -5 277 8 291 12 11 16 35 16 85 0
38 -3 69 -7 69 -5 0 -8 -30 -7 -67 1 -68 1 -68 -3 -8 -2 33 -8 64 -14 70 -5 5
-10 23 -10 40 l-2 30 -7 -35 c-4 -20 -8 -27 -9 -15 -2 19 -3 18 -11 -2 -8 -20
-40 -33 -40 -18 0 15 33 54 41 49 5 -3 9 -1 9 5 0 23 -17 17 -36 -12z"/>
<path d="M150 4492 l0 -408 104 -27 c57 -15 112 -27 122 -27 14 1 -198 60
-213 60 -2 0 -3 138 -3 307 0 305 0 306 20 288 11 -10 20 -14 20 -9 0 5 4 4 8
-2 5 -9 11 -8 20 2 9 10 10 14 1 14 -6 0 -18 8 -25 18 -8 10 -13 12 -14 5 0
-7 -7 -10 -16 -6 -14 5 -16 20 -12 100 2 51 0 93 -4 93 -4 0 -8 -184 -8 -408z"/>
<path d="M204 4875 c10 -15 16 -36 13 -46 -6 -21 9 -27 15 -7 8 23 -4 54 -25
67 -21 14 -21 14 -3 -14z"/>
<path d="M520 4890 c8 -5 20 -10 25 -10 6 0 3 5 -5 10 -8 5 -19 10 -25 10 -5
0 -3 -5 5 -10z"/>
<path d="M3038 4892 c-13 -5 -15 -11 -8 -22 6 -9 10 -10 10 -3 0 7 6 11 13 9
6 -1 9 -1 4 1 -4 3 -5 9 -1 14 6 10 6 10 -18 1z"/>
<path d="M3478 4893 c6 -2 18 -2 25 0 6 3 1 5 -13 5 -14 0 -19 -2 -12 -5z"/>
<path d="M570 4870 c8 -5 20 -10 25 -10 6 0 3 5 -5 10 -8 5 -19 10 -25 10 -5
0 -3 -5 5 -10z"/>
<path d="M2960 4865 c0 -8 5 -15 10 -15 6 0 10 7 10 15 0 8 -4 15 -10 15 -5 0
-10 -7 -10 -15z"/>
<path d="M380 4862 c8 -5 26 -13 40 -16 17 -5 20 -4 10 2 -8 5 -26 13 -40 16
-17 5 -20 4 -10 -2z"/>
<path d="M3000 4860 c-9 -6 -10 -10 -3 -10 6 0 15 5 18 10 8 12 4 12 -15 0z"/>
<path d="M3195 4860 c-3 -5 1 -10 9 -10 9 0 16 5 16 10 0 6 -4 10 -9 10 -6 0
-13 -4 -16 -10z"/>
<path d="M3128 4853 c-16 -2 -28 -9 -28 -15 0 -5 7 -7 16 -4 9 3 24 6 35 6 10
0 19 5 19 10 0 6 -3 9 -7 9 -5 -1 -20 -4 -35 -6z"/>
<path d="M650 4840 c8 -5 20 -10 25 -10 6 0 3 5 -5 10 -8 5 -19 10 -25 10 -5
0 -3 -5 5 -10z"/>
<path d="M990 4842 c8 -5 26 -13 40 -16 17 -5 20 -4 10 2 -8 5 -26 13 -40 16
-17 5 -20 4 -10 -2z"/>
<path d="M3225 4829 c-39 -10 -52 -16 -30 -13 50 6 115 23 115 29 0 6 -3 6
-85 -16z"/>
<path d="M177 4829 c7 -7 15 -10 18 -7 3 3 -2 9 -12 12 -14 6 -15 5 -6 -5z"/>
<path d="M263 4808 c-1 -14 3 -18 13 -14 9 3 21 6 26 6 12 0 1 15 -10 15 -4 0
-12 3 -17 7 -6 4 -12 -2 -12 -14z"/>
<path d="M700 4820 c8 -5 20 -10 25 -10 6 0 3 5 -5 10 -8 5 -19 10 -25 10 -5
0 -3 -5 5 -10z"/>
<path d="M3045 4820 c3 -5 8 -10 11 -10 2 0 4 5 4 10 0 6 -5 10 -11 10 -5 0
-7 -4 -4 -10z"/>
<path d="M4032 4810 c0 -14 2 -19 5 -12 2 6 2 18 0 25 -3 6 -5 1 -5 -13z"/>
<path d="M520 4810 c8 -5 20 -10 25 -10 6 0 3 5 -5 10 -8 5 -19 10 -25 10 -5
0 -3 -5 5 -10z"/>
<path d="M3000 4810 c0 -6 7 -10 15 -10 8 0 15 2 15 4 0 2 -7 6 -15 10 -8 3
-15 1 -15 -4z"/>
<path d="M3128 4803 c7 -3 16 -2 19 1 4 3 -2 6 -13 5 -11 0 -14 -3 -6 -6z"/>
<path d="M2968 4793 c7 -3 16 -2 19 1 4 3 -2 6 -13 5 -11 0 -14 -3 -6 -6z"/>
<path d="M3405 4769 c-71 -15 -141 -26 -155 -23 -14 2 -50 -2 -80 -11 -52 -14
-47 -14 45 -1 22 3 2 -5 -45 -18 -47 -13 -80 -25 -73 -25 7 -1 112 19 235 44
123 25 226 45 231 45 4 0 7 5 7 10 0 14 -15 12 -165 -21z"/>
<path d="M810 4782 c8 -5 26 -13 40 -16 17 -5 20 -4 10 2 -8 5 -26 13 -40 16
-17 5 -20 4 -10 -2z"/>
<path d="M330 4772 c8 -5 26 -13 40 -16 17 -5 20 -4 10 2 -8 5 -26 13 -40 16
-17 5 -20 4 -10 -2z"/>
<path d="M4016 4744 c-4 -20 -5 -38 -3 -40 3 -3 8 11 11 32 4 20 5 38 3 40 -3
3 -8 -11 -11 -32z"/>
<path d="M4662 4745 c0 -16 2 -22 5 -12 2 9 2 23 0 30 -3 6 -5 -1 -5 -18z"/>
<path d="M890 4752 c8 -5 26 -13 40 -16 17 -5 20 -4 10 2 -8 5 -26 13 -40 16
-17 5 -20 4 -10 -2z"/>
<path d="M3005 4744 l-50 -14 45 6 c25 3 49 9 55 15 5 5 7 8 5 8 -3 -1 -27 -8
-55 -15z"/>
<path d="M450 4725 c14 -8 32 -14 40 -14 8 0 0 6 -19 14 -42 19 -54 19 -21 0z"/>
<path d="M4860 4680 c0 -50 -3 -60 -17 -61 -11 0 -13 -3 -5 -6 9 -3 12 -49 12
-179 0 -150 2 -174 15 -174 14 0 15 31 15 240 -1 141 -5 240 -11 240 -5 0 -9
-27 -9 -60z"/>
<path d="M360 4704 c0 -25 -33 -118 -44 -126 -6 -4 -16 -2 -23 3 -9 8 -14 4
-19 -16 -8 -33 -15 -26 -35 38 -13 41 -17 46 -16 22 0 -16 -1 -34 -4 -40 -2
-5 1 -11 6 -12 6 -1 18 -25 27 -55 14 -44 17 -48 18 -23 1 49 11 74 26 68 21
-8 54 26 55 56 0 23 1 24 8 6 6 -14 9 -2 9 38 1 31 -1 57 -3 57 -3 0 -5 -7 -5
-16z"/>
<path d="M4291 4704 c0 -11 3 -14 6 -6 3 7 2 16 -1 19 -3 4 -6 -2 -5 -13z"/>
<path d="M4647 4697 c-5 -13 -122 -57 -151 -57 -8 0 -21 -18 -30 -40 -22 -54
-19 -65 3 -15 18 38 23 41 101 64 73 22 103 41 87 57 -2 3 -7 -1 -10 -9z"/>
<path d="M785 4686 c17 -7 41 -16 55 -20 20 -5 19 -3 -5 8 -16 7 -41 16 -55
20 -20 5 -19 3 5 -8z"/>
<path d="M460 4654 c0 -21 4 -45 9 -53 5 -8 7 5 4 35 -7 61 -13 70 -13 18z"/>
<path d="M580 4685 c0 -2 10 -10 23 -16 20 -11 21 -11 8 4 -13 16 -31 23 -31
12z"/>
<path d="M3991 4598 c-13 -102 -19 -114 -61 -123 -15 -3 -39 -19 -54 -35 -37
-42 -32 -50 7 -13 17 17 48 38 68 46 l36 15 12 97 c7 53 11 99 8 101 -2 3 -10
-37 -16 -88z"/>
<path d="M428 4655 c5 -29 -4 -32 -32 -7 -11 9 -5 -1 14 -24 19 -22 35 -40 36
-40 5 5 -10 96 -16 96 -4 0 -5 -11 -2 -25z"/>
<path d="M636 4643 c8 -90 25 -205 33 -226 6 -14 19 -31 30 -39 12 -8 18 -18
13 -23 -4 -4 3 -3 14 3 20 11 23 8 34 -33 7 -25 19 -50 26 -56 19 -15 18 -4
-2 26 -11 17 -14 38 -10 72 4 34 3 40 -3 18 -8 -29 -10 -28 -24 15 -4 12 -6
11 -6 -2 -1 -19 -9 -22 -35 -12 -14 5 -13 9 5 25 12 11 18 19 14 19 -5 0 -16
-7 -26 -16 -20 -18 -18 -25 -39 123 -13 90 -13 116 0 108 6 -3 10 -2 10 3 0 8
-22 22 -34 22 -2 0 -2 -12 0 -27z"/>
<path d="M3083 4630 c0 -25 2 -35 4 -22 2 12 2 32 0 45 -2 12 -4 2 -4 -23z"/>
<path d="M3323 4646 c-89 -18 -143 -37 -102 -35 31 1 238 45 245 52 12 12 -34
6 -143 -17z"/>
<path d="M685 4640 c-3 -5 -2 -10 4 -10 5 0 13 5 16 10 3 6 2 10 -4 10 -5 0
-13 -4 -16 -10z"/>
<path d="M901 4646 c8 -9 181 -67 186 -62 3 2 -33 16 -79 31 -46 16 -90 30
-98 33 -8 3 -12 2 -9 -2z"/>
<path d="M715 4630 c-3 -5 -2 -10 4 -10 5 0 13 5 16 10 3 6 2 10 -4 10 -5 0
-13 -4 -16 -10z"/>
<path d="M745 4621 c-3 -7 0 -8 9 -5 9 3 16 1 16 -5 0 -6 7 -8 15 -5 8 4 15 1
15 -6 0 -6 4 -9 9 -6 5 3 28 -1 50 -9 23 -8 39 -10 36 -5 -3 5 -32 17 -63 26
-31 9 -62 19 -68 21 -7 2 -15 0 -19 -6z"/>
<path d="M616 4585 c-3 -9 -6 -26 -5 -38 1 -14 4 -9 9 13 9 37 7 52 -4 25z"/>
<path d="M4291 4574 c0 -11 3 -14 6 -6 3 7 2 16 -1 19 -3 4 -6 -2 -5 -13z"/>
<path d="M3150 4569 c0 -5 5 -7 10 -4 6 3 10 8 10 11 0 2 -4 4 -10 4 -5 0 -10
-5 -10 -11z"/>
<path d="M470 4563 c21 -8 30 -24 30 -55 0 -31 16 -38 22 -10 5 22 -31 72 -51
71 -14 0 -14 -1 -1 -6z"/>
<path d="M1095 4205 c0 -198 1 -280 2 -183 2 97 2 259 0 360 -1 101 -2 21 -2
-177z"/>
<path d="M124 4265 c0 -154 2 -216 3 -137 2 79 2 205 0 280 -1 75 -3 11 -3
-143z"/>
<path d="M4265 4530 c-8 -13 5 -13 25 0 13 8 13 10 -2 10 -9 0 -20 -4 -23 -10z"/>
<path d="M4435 4521 c-3 -11 -14 -22 -23 -24 -16 -4 -16 -5 0 -6 17 -1 45 36
35 46 -3 2 -8 -5 -12 -16z"/>
<path d="M578 4471 c-2 -22 -2 -41 -1 -41 6 0 33 74 28 78 -3 3 -5 -1 -5 -9 0
-12 -2 -12 -9 0 -6 9 -10 0 -13 -28z"/>
<path d="M4190 4500 c-8 -5 -10 -10 -5 -10 6 0 17 5 25 10 8 5 11 10 5 10 -5
0 -17 -5 -25 -10z"/>
<path d="M4550 4360 c0 -133 2 -150 16 -150 15 0 16 11 10 92 -3 50 -6 117 -6
150 0 32 -4 58 -10 58 -6 0 -10 -57 -10 -150z"/>
<path d="M4105 4461 c-104 -58 -140 -81 -130 -81 6 0 26 10 45 22 19 12 62 37
95 55 33 18 56 33 50 33 -5 0 -32 -13 -60 -29z"/>
<path d="M511 4408 c1 -55 5 -50 11 15 2 20 0 37 -4 37 -4 0 -7 -24 -7 -52z"/>
<path d="M184 4435 c11 -8 25 -15 30 -15 6 0 2 7 -8 15 -11 8 -25 15 -30 15
-6 0 -2 -7 8 -15z"/>
<path d="M4510 4325 c0 -99 2 -115 16 -115 12 0 15 6 10 23 -3 12 -6 64 -6
115 0 54 -4 92 -10 92 -6 0 -10 -45 -10 -115z"/>
<path d="M4380 4305 c0 -70 4 -115 10 -115 6 0 10 45 10 115 0 70 -4 115 -10
115 -6 0 -10 -45 -10 -115z"/>
<path d="M4410 4305 c0 -70 4 -115 10 -115 6 0 10 45 10 115 0 70 -4 115 -10
115 -6 0 -10 -45 -10 -115z"/>
<path d="M640 4369 c-18 -44 -37 -64 -43 -46 -5 16 -44 -17 -54 -47 -6 -19 -8
-18 -14 9 -5 25 -7 21 -7 -20 l-1 -50 24 47 c18 33 30 46 40 42 8 -4 22 0 31
7 20 17 46 67 42 81 -2 6 -10 -4 -18 -23z"/>
<path d="M4450 4291 c0 -56 4 -91 10 -91 13 0 12 168 -1 176 -5 3 -9 -36 -9
-85z"/>
<path d="M4707 4373 c-11 -10 -8 -143 3 -143 6 0 10 32 10 75 0 75 -1 81 -13
68z"/>
<path d="M4730 4305 c0 -45 4 -65 13 -65 9 0 11 18 9 65 -5 84 -22 84 -22 0z"/>
<path d="M4590 4280 c0 -41 4 -60 13 -60 8 0 11 17 9 60 -5 78 -22 78 -22 0z"/>
<path d="M4669 4338 c0 -2 -1 -27 -3 -55 -1 -38 2 -53 11 -53 9 0 13 16 13 55
0 30 -4 55 -10 55 -5 0 -10 -1 -11 -2z"/>
<path d="M3627 4250 c-16 -44 -33 -82 -38 -86 -6 -3 -21 3 -33 15 -13 12 -36
21 -54 21 -27 0 -32 -4 -32 -22 1 -21 2 -21 11 -5 13 23 42 22 64 -3 34 -38
51 -26 85 61 17 45 30 85 28 90 -2 5 -16 -27 -31 -71z"/>
<path d="M4480 4265 c0 -37 4 -65 10 -65 6 0 10 28 10 65 0 37 -4 65 -10 65
-6 0 -10 -28 -10 -65z"/>
<path d="M803 4226 c7 -14 13 -23 15 -21 7 6 -9 45 -18 45 -4 0 -3 -11 3 -24z"/>
<path d="M4267 4213 c12 -2 24 -11 26 -19 3 -9 4 -8 3 3 -1 12 -10 18 -26 19
-21 1 -21 0 -3 -3z"/>
<path d="M1006 4203 c5 -5 12 -12 16 -18 4 -6 8 -2 8 8 0 9 -7 17 -17 17 -9 0
-12 -3 -7 -7z"/>
<path d="M4173 4203 c9 -2 25 -2 35 0 9 3 1 5 -18 5 -19 0 -27 -2 -17 -5z"/>
<path d="M4103 4193 c9 -2 25 -2 35 0 9 3 1 5 -18 5 -19 0 -27 -2 -17 -5z"/>
<path d="M4873 4193 c9 -2 25 -2 35 0 9 3 1 5 -18 5 -19 0 -27 -2 -17 -5z"/>
<path d="M4033 4183 c9 -2 23 -2 30 0 6 3 -1 5 -18 5 -16 0 -22 -2 -12 -5z"/>
<path d="M4700 4172 c-52 -9 -88 -17 -80 -19 8 -2 65 5 125 16 61 10 97 19 80
18 -16 0 -73 -7 -125 -15z"/>
<path d="M834 4164 c9 -8 16 -21 16 -28 0 -7 9 -21 20 -31 11 -10 21 -30 21
-44 2 -24 2 -24 6 -3 2 12 11 22 19 22 8 0 14 8 14 18 0 25 21 44 35 32 7 -6
21 -4 39 5 15 8 31 13 35 11 4 -3 12 4 19 15 7 10 8 19 3 19 -6 0 -12 -4 -16
-9 -3 -6 -14 -8 -25 -6 -12 2 -18 0 -15 -5 3 -5 -4 -14 -15 -20 -16 -9 -22 -8
-26 5 -6 14 -8 14 -19 -2 -11 -15 -15 -15 -29 -4 -19 16 -21 8 -4 -19 7 -10 9
-22 6 -26 -14 -13 -36 5 -54 45 -11 22 -25 41 -32 41 -10 0 -9 -4 2 -16z"/>
<path d="M3963 4173 c9 -2 23 -2 30 0 6 3 -1 5 -18 5 -16 0 -22 -2 -12 -5z"/>
<path d="M4226 4169 c2 -4 -2 -10 -8 -12 -7 -3 -4 -6 8 -6 11 -1 21 5 21 12 0
8 -6 14 -13 14 -7 0 -11 -4 -8 -8z"/>
<path d="M882 4150 c0 -14 2 -19 5 -12 2 6 2 18 0 25 -3 6 -5 1 -5 -13z"/>
<path d="M3893 4163 c9 -2 23 -2 30 0 6 3 -1 5 -18 5 -16 0 -22 -2 -12 -5z"/>
<path d="M3813 4153 c9 -2 25 -2 35 0 9 3 1 5 -18 5 -19 0 -27 -2 -17 -5z"/>
<path d="M4130 4150 c0 -5 7 -10 15 -10 8 0 15 5 15 10 0 6 -7 10 -15 10 -8 0
-15 -4 -15 -10z"/>
<path d="M3743 4143 c9 -2 25 -2 35 0 9 3 1 5 -18 5 -19 0 -27 -2 -17 -5z"/>
<path d="M4045 4140 c-3 -5 3 -10 14 -10 12 0 21 5 21 10 0 6 -6 10 -14 10 -8
0 -18 -4 -21 -10z"/>
<path d="M4543 4143 c9 -2 25 -2 35 0 9 3 1 5 -18 5 -19 0 -27 -2 -17 -5z"/>
<path d="M3941 4128 c-1 -20 0 -21 23 -12 9 3 16 11 16 16 0 6 -6 6 -14 -1
-11 -9 -15 -9 -19 1 -4 8 -6 7 -6 -4z"/>
<path d="M4483 4133 c9 -2 23 -2 30 0 6 3 -1 5 -18 5 -16 0 -22 -2 -12 -5z"/>
<path d="M3866 4114 c-4 -10 -1 -14 6 -12 15 5 23 28 10 28 -5 0 -13 -7 -16
-16z"/>
<path d="M4413 4123 c9 -2 25 -2 35 0 9 3 1 5 -18 5 -19 0 -27 -2 -17 -5z"/>
<path d="M4223 4093 c9 -2 23 -2 30 0 6 3 -1 5 -18 5 -16 0 -22 -2 -12 -5z"/>
<path d="M4153 4083 c9 -2 25 -2 35 0 9 3 1 5 -18 5 -19 0 -27 -2 -17 -5z"/>
<path d="M4785 4064 c-77 -13 -160 -24 -185 -25 -41 -2 -42 -3 -10 -6 20 -2
96 5 169 17 74 11 140 20 147 20 11 0 14 -44 14 -235 0 -150 4 -235 10 -235
12 0 14 477 3 482 -5 2 -71 -6 -148 -18z"/>
<path d="M4083 4073 c9 -2 25 -2 35 0 9 3 1 5 -18 5 -19 0 -27 -2 -17 -5z"/>
<path d="M1008 4063 c7 -3 16 -2 19 1 4 3 -2 6 -13 5 -11 0 -14 -3 -6 -6z"/>
<path d="M4013 4063 c9 -2 25 -2 35 0 9 3 1 5 -18 5 -19 0 -27 -2 -17 -5z"/>
<path d="M192 4050 c5 -16 48 -24 48 -10 0 6 -4 10 -9 10 -5 0 -17 3 -27 7
-11 4 -15 2 -12 -7z"/>
<path d="M3938 4053 c12 -2 30 -2 40 0 9 3 -1 5 -23 4 -22 0 -30 -2 -17 -4z"/>
<path d="M3858 4043 c12 -2 30 -2 40 0 9 3 -1 5 -23 4 -22 0 -30 -2 -17 -4z"/>
<path d="M255 4030 c3 -5 13 -10 21 -10 8 0 12 5 9 10 -3 6 -13 10 -21 10 -8
0 -12 -4 -9 -10z"/>
<path d="M3783 4033 c9 -2 25 -2 35 0 9 3 1 5 -18 5 -19 0 -27 -2 -17 -5z"/>
<path d="M4768 4027 c-32 -6 -58 -15 -58 -20 0 -5 15 -7 33 -3 17 3 56 8 85
12 28 4 52 10 52 15 0 11 -36 9 -112 -4z"/>
<path d="M408 4023 c6 -2 18 -2 25 0 6 3 1 5 -13 5 -14 0 -19 -2 -12 -5z"/>
<path d="M3655 4020 c-34 -6 -35 -7 -10 -8 17 0 50 3 75 7 40 8 41 8 10 8 -19
0 -53 -3 -75 -7z"/>
<path d="M4498 4023 c12 -2 30 -2 40 0 9 3 -1 5 -23 4 -22 0 -30 -2 -17 -4z"/>
<path d="M4320 4005 c-47 -7 -70 -13 -52 -14 l33 -1 -7 -140 c-6 -125 -5 -140
9 -140 14 0 17 19 19 143 l3 142 75 11 c41 6 59 11 40 11 -19 0 -73 -5 -120
-12z"/>
<path d="M488 4003 c7 -3 16 -2 19 1 4 3 -2 6 -13 5 -11 0 -14 -3 -6 -6z"/>
<path d="M3563 4003 c9 -2 25 -2 35 0 9 3 1 5 -18 5 -19 0 -27 -2 -17 -5z"/>
<path d="M4580 3963 c0 -50 -11 -48 140 -28 139 19 160 23 160 34 0 4 -55 0
-122 -10 -68 -10 -133 -19 -145 -19 -33 0 -30 34 5 46 l27 10 -32 5 c-33 6
-33 5 -33 -38z"/>
<path d="M430 3996 c0 -9 30 -14 35 -6 4 6 -3 10 -14 10 -12 0 -21 -2 -21 -4z"/>
<path d="M555 3985 c22 -8 49 -13 60 -13 11 0 -2 6 -30 14 -63 17 -84 16 -30
-1z"/>
<path d="M3478 3993 c12 -2 32 -2 45 0 12 2 2 4 -23 4 -25 0 -35 -2 -22 -4z"/>
<path d="M4531 3986 c-16 -19 -11 -29 8 -17 7 5 12 14 9 21 -3 9 -8 7 -17 -4z"/>
<path d="M480 3978 c0 -6 3 -8 7 -5 3 4 12 2 20 -4 8 -7 13 -8 13 -1 0 5 -7
13 -16 16 -22 8 -24 8 -24 -6z"/>
<path d="M4198 3983 c7 -3 16 -2 19 1 4 3 -2 6 -13 5 -11 0 -14 -3 -6 -6z"/>
<path d="M130 3972 c18 -12 320 -85 326 -79 2 2 -67 21 -153 42 -87 21 -165
40 -173 42 -13 4 -13 3 0 -5z"/>
<path d="M648 3963 c7 -3 16 -2 19 1 4 3 -2 6 -13 5 -11 0 -14 -3 -6 -6z"/>
<path d="M4194 3765 c-1 -115 1 -196 3 -178 3 23 10 33 26 36 l22 4 -22 2
c-22 1 -23 3 -26 174 -2 166 -3 164 -3 -38z"/>
<path d="M4488 3963 c7 -3 16 -2 19 1 4 3 -2 6 -13 5 -11 0 -14 -3 -6 -6z"/>
<path d="M613 3950 c2 -9 15 -15 30 -15 15 1 27 -2 27 -5 0 -3 10 -6 23 -7 21
-2 21 -1 -4 12 -14 8 -34 12 -45 11 -10 -2 -23 2 -27 8 -6 7 -7 6 -4 -4z"/>
<path d="M688 3953 c7 -3 16 -2 19 1 4 3 -2 6 -13 5 -11 0 -14 -3 -6 -6z"/>
<path d="M4015 3949 c-29 -5 -21 -6 28 -2 l67 5 0 -421 0 -420 -37 -4 -38 -4
38 -1 37 -2 0 -289 c0 -254 -2 -290 -16 -295 -9 -3 -79 -7 -157 -7 -78 -1
-214 -5 -302 -9 -105 -5 -53 -6 150 -3 187 3 315 9 323 15 9 8 12 166 12 729
l0 719 -32 -1 c-18 -1 -51 -5 -73 -10z"/>
<path d="M4413 3953 c9 -2 25 -2 35 0 9 3 1 5 -18 5 -19 0 -27 -2 -17 -5z"/>
<path d="M740 3940 c14 -4 34 -8 45 -8 16 0 15 2 -5 8 -14 4 -34 8 -45 8 -16
0 -15 -2 5 -8z"/>
<path d="M3933 3933 c9 -2 23 -2 30 0 6 3 -1 5 -18 5 -16 0 -22 -2 -12 -5z"/>
<path d="M818 3923 c7 -3 16 -2 19 1 4 3 -2 6 -13 5 -11 0 -14 -3 -6 -6z"/>
<path d="M3858 3923 c12 -2 30 -2 40 0 9 3 -1 5 -23 4 -22 0 -30 -2 -17 -4z"/>
<path d="M4260 3897 c0 -19 -3 -36 -6 -39 -3 -4 -6 -40 -7 -81 -2 -56 1 -73
11 -70 8 4 12 36 12 114 0 60 -2 109 -5 109 -3 0 -5 -15 -5 -33z"/>
<path d="M4483 3916 c-46 -7 -86 -16 -90 -20 -5 -5 1 -6 12 -3 11 3 50 9 88
13 37 3 70 10 73 15 3 5 4 8 2 8 -2 -1 -40 -7 -85 -13z"/>
<path d="M140 3893 c0 -21 3 -24 9 -14 5 8 7 20 4 28 -8 21 -13 15 -13 -14z"/>
<path d="M858 3913 c7 -3 16 -2 19 1 4 3 -2 6 -13 5 -11 0 -14 -3 -6 -6z"/>
<path d="M3725 3910 c-34 -6 -35 -7 -10 -8 17 0 50 3 75 7 40 8 41 8 10 8 -19
0 -53 -3 -75 -7z"/>
<path d="M163 3888 c-1 -13 3 -18 12 -14 8 3 17 1 20 -4 11 -17 25 -11 25 11
0 12 -5 19 -12 16 -7 -2 -20 -1 -28 4 -12 5 -16 2 -17 -13z"/>
<path d="M770 3902 c0 -11 69 -26 78 -18 8 9 1 13 -40 20 -22 4 -38 3 -38 -2z"/>
<path d="M898 3903 c7 -3 16 -2 19 1 4 3 -2 6 -13 5 -11 0 -14 -3 -6 -6z"/>
<path d="M3980 3894 c0 -9 7 -14 17 -12 24 4 27 23 3 25 -12 1 -20 -4 -20 -13z"/>
<path d="M4030 3900 c0 -5 7 -10 15 -10 8 0 15 5 15 10 0 6 -7 10 -15 10 -8 0
-15 -4 -15 -10z"/>
<path d="M4670 3884 c-162 -29 -184 -34 -105 -27 78 6 318 43 324 48 11 11
-94 1 -219 -21z"/>
<path d="M938 3893 c6 -2 18 -2 25 0 6 3 1 5 -13 5 -14 0 -19 -2 -12 -5z"/>
<path d="M3618 3893 c12 -2 32 -2 45 0 12 2 2 4 -23 4 -25 0 -35 -2 -22 -4z"/>
<path d="M243 3883 c-7 -3 -13 -12 -13 -21 0 -13 3 -12 15 4 13 16 14 16 9 2
-5 -13 -1 -18 14 -18 11 0 23 6 25 13 3 7 6 5 6 -5 1 -19 9 -22 35 -12 9 3 13
10 10 16 -3 5 -12 4 -20 -3 -12 -10 -13 -9 -8 5 4 11 1 16 -12 17 -11 0 -26 2
-34 3 -8 2 -21 1 -27 -1z"/>
<path d="M471 3886 c7 -7 420 -98 424 -94 4 4 -399 98 -419 98 -5 0 -7 -2 -5
-4z"/>
<path d="M988 3883 c7 -3 16 -2 19 1 4 3 -2 6 -13 5 -11 0 -14 -3 -6 -6z"/>
<path d="M3514 3877 c-2 -7 -3 -89 -1 -182 l3 -170 2 177 2 177 38 4 37 4 -38
1 c-23 1 -40 -3 -43 -11z"/>
<path d="M1028 3873 c6 -2 18 -2 25 0 6 3 1 5 -13 5 -14 0 -19 -2 -12 -5z"/>
<path d="M1010 3850 c0 -5 9 -10 20 -10 11 0 20 5 20 10 0 6 -9 10 -20 10 -11
0 -20 -4 -20 -10z"/>
<path d="M4405 3840 c-12 -5 1 -6 35 -3 30 3 57 7 59 9 9 8 -75 2 -94 -6z"/>
<path d="M4685 3824 c-71 -13 -107 -22 -80 -19 85 7 278 35 283 40 11 11 -79
1 -203 -21z"/>
<path d="M3552 3820 c0 -14 2 -19 5 -12 2 6 2 18 0 25 -3 6 -5 1 -5 -13z"/>
<path d="M3861 3703 c-1 -76 3 -123 9 -123 12 0 12 183 0 220 -5 16 -8 -21 -9
-97z"/>
<path d="M4513 3793 c9 -2 23 -2 30 0 6 3 -1 5 -18 5 -16 0 -22 -2 -12 -5z"/>
<path d="M918 3783 c6 -2 18 -2 25 0 6 3 1 5 -13 5 -14 0 -19 -2 -12 -5z"/>
<path d="M3548 3660 l-3 -130 25 1 c14 1 18 3 10 5 -13 4 -14 25 -12 129 2 79
-1 125 -7 125 -6 0 -11 -52 -13 -130z"/>
<path d="M3740 3680 c0 -67 4 -110 10 -110 6 0 10 43 10 110 0 67 -4 110 -10
110 -6 0 -10 -43 -10 -110z"/>
<path d="M3900 3685 c0 -63 4 -105 10 -105 6 0 10 42 10 105 0 63 -4 105 -10
105 -6 0 -10 -42 -10 -105z"/>
<path d="M4336 3757 c-5 -21 -6 -41 -2 -44 12 -12 17 5 14 43 l-4 39 -8 -38z"/>
<path d="M4443 3783 c9 -2 23 -2 30 0 6 3 -1 5 -18 5 -16 0 -22 -2 -12 -5z"/>
<path d="M980 3770 c14 -4 34 -8 45 -8 16 0 15 2 -5 8 -14 4 -34 8 -45 8 -16
0 -15 -2 5 -8z"/>
<path d="M4760 3764 l-85 -13 83 6 c46 3 96 9 110 13 l27 8 -25 0 c-14 0 -63
-7 -110 -14z"/>
<path d="M4465 3759 c-22 -6 -49 -8 -59 -5 -13 3 -16 2 -8 -6 13 -13 135 0
126 13 -6 10 -5 10 -59 -2z"/>
<path d="M1058 3753 c6 -2 18 -2 25 0 6 3 1 5 -13 5 -14 0 -19 -2 -12 -5z"/>
<path d="M132 3438 c-2 -294 -1 -317 15 -322 10 -3 56 -7 103 -10 l85 -5 -95
12 -95 12 -5 315 -5 315 -3 -317z"/>
<path d="M3590 3653 c0 -113 1 -114 85 -111 38 1 38 1 -10 7 l-50 6 -3 90 c-4
128 -22 134 -22 8z"/>
<path d="M4608 3743 c12 -2 32 -2 45 0 12 2 2 4 -23 4 -25 0 -35 -2 -22 -4z"/>
<path d="M151 3724 c0 -11 3 -14 6 -6 3 7 2 16 -1 19 -3 4 -6 -2 -5 -13z"/>
<path d="M4533 3733 c9 -2 25 -2 35 0 9 3 1 5 -18 5 -19 0 -27 -2 -17 -5z"/>
<path d="M183 3718 c3 -17 18 -28 40 -28 21 0 23 26 1 34 -26 10 -44 7 -41 -6z
m47 -14 c0 -2 -7 -4 -15 -4 -8 0 -15 4 -15 10 0 5 7 7 15 4 8 -4 15 -8 15 -10z"/>
<path d="M3700 3645 c0 -81 1 -85 24 -91 13 -3 38 -4 57 -1 28 3 25 4 -13 5
l-48 2 0 85 c0 50 -4 85 -10 85 -6 0 -10 -35 -10 -85z"/>
<path d="M4463 3723 c9 -2 25 -2 35 0 9 3 1 5 -18 5 -19 0 -27 -2 -17 -5z"/>
<path d="M260 3711 c13 -10 13 -11 0 -12 -17 -1 96 -28 122 -29 12 0 15 5 11
16 -3 8 -15 14 -27 12 -11 -1 -27 1 -33 5 -8 5 -13 3 -13 -5 0 -9 -2 -10 -8
-1 -4 6 -21 14 -37 18 -23 5 -26 4 -15 -4z"/>
<path d="M3630 3635 c0 -43 4 -75 10 -75 6 0 10 31 10 72 0 90 17 80 23 -12
l3 -65 2 71 c2 58 -1 73 -14 78 -31 12 -34 5 -34 -69z"/>
<path d="M3780 3640 c0 -49 4 -70 13 -70 9 0 11 19 9 70 -5 91 -22 91 -22 0z"/>
<path d="M4016 3679 c-9 -47 -7 -89 4 -89 6 0 10 27 10 60 0 67 -4 76 -14 29z"/>
<path d="M4828 3693 c12 -2 32 -2 45 0 12 2 2 4 -23 4 -25 0 -35 -2 -22 -4z"/>
<path d="M4748 3683 c12 -2 30 -2 40 0 9 3 -1 5 -23 4 -22 0 -30 -2 -17 -4z"/>
<path d="M3828 3620 l4 -60 61 2 62 2 -55 3 -55 4 2 54 c1 36 -3 55 -10 55 -8
0 -11 -19 -9 -60z"/>
<path d="M3938 3630 c-2 -35 1 -50 10 -50 8 0 12 17 12 50 0 65 -17 65 -22 0z"/>
<path d="M4658 3673 c12 -2 32 -2 45 0 12 2 2 4 -23 4 -25 0 -35 -2 -22 -4z"/>
<path d="M505 3650 c110 -22 192 -34 185 -27 -7 7 -234 47 -257 46 -10 -1 23
-9 72 -19z"/>
<path d="M3970 3620 l0 -50 33 1 c23 1 26 3 10 6 -20 4 -23 11 -23 49 0 24 -4
44 -10 44 -5 0 -10 -22 -10 -50z"/>
<path d="M4558 3663 c12 -2 32 -2 45 0 12 2 2 4 -23 4 -25 0 -35 -2 -22 -4z"/>
<path d="M4042 3618 c-2 -43 -1 -46 21 -40 17 5 18 7 5 10 -11 2 -18 16 -21
40 -3 34 -4 33 -5 -10z"/>
<path d="M4478 3653 c12 -2 30 -2 40 0 9 3 -1 5 -23 4 -22 0 -30 -2 -17 -4z"/>
<path d="M4378 3643 c12 -2 32 -2 45 0 12 2 2 4 -23 4 -25 0 -35 -2 -22 -4z"/>
<path d="M160 3630 c0 -6 11 -10 25 -10 14 0 25 4 25 8 0 4 -11 9 -25 10 -14
1 -25 -3 -25 -8z"/>
<path d="M4278 3633 c12 -2 32 -2 45 0 12 2 2 4 -23 4 -25 0 -35 -2 -22 -4z"/>
<path d="M220 3620 c0 -5 5 -10 10 -10 6 0 10 5 10 10 0 6 -4 10 -10 10 -5 0
-10 -4 -10 -10z"/>
<path d="M261 3614 c13 -16 29 -19 29 -5 0 5 -9 11 -21 14 -16 4 -18 3 -8 -9z"/>
<path d="M1093 3575 c0 -33 2 -45 4 -27 2 18 2 45 0 60 -2 15 -4 0 -4 -33z"/>
<path d="M1055 3610 c3 -5 10 -10 16 -10 5 0 9 5 9 10 0 6 -7 10 -16 10 -8 0
-12 -4 -9 -10z"/>
<path d="M860 3536 c0 -60 -1 -64 -21 -59 -22 6 -23 9 -34 58 -7 34 -18 22
-28 -31 l-6 -30 150 -18 c82 -11 152 -16 156 -12 3 3 -5 6 -20 6 -19 0 -27 6
-30 23 l-4 22 -2 -23 c-2 -34 -24 -22 -32 17 -4 18 -12 38 -19 44 -10 10 -11
8 -5 -8 15 -39 17 -65 6 -65 -6 0 -12 12 -12 28 l-1 27 -7 -30 c-7 -27 -8 -24
-15 28 -10 70 -26 75 -26 7 0 -38 -4 -50 -15 -50 -12 0 -15 14 -15 65 0 37 -4
65 -10 65 -6 0 -10 -28 -10 -64z m-63 -48 c-3 -7 -5 -2 -5 12 0 14 2 19 5 13
2 -7 2 -19 0 -25z"/>
<path d="M195 3560 c3 -5 13 -10 21 -10 8 0 12 5 9 10 -3 6 -13 10 -21 10 -8
0 -12 -4 -9 -10z"/>
<path d="M748 3530 c4 -37 -11 -57 -20 -28 -3 9 -9 8 -22 -5 -17 -16 -16 -17
18 -17 36 0 36 0 36 45 0 25 -3 45 -8 45 -4 0 -6 -18 -4 -40z"/>
<path d="M4323 3563 c9 -2 23 -2 30 0 6 3 -1 5 -18 5 -16 0 -22 -2 -12 -5z"/>
<path d="M270 3550 c-20 -6 -21 -8 -5 -8 11 0 31 4 45 8 20 6 21 8 5 8 -11 0
-31 -4 -45 -8z"/>
<path d="M4248 3553 c12 -2 30 -2 40 0 9 3 -1 5 -23 4 -22 0 -30 -2 -17 -4z"/>
<path d="M330 3540 c-20 -6 -21 -8 -5 -8 11 0 31 4 45 8 20 6 21 8 5 8 -11 0
-31 -4 -45 -8z"/>
<path d="M390 3530 l-25 -8 25 0 c14 0 36 4 50 8 l25 8 -25 0 c-14 0 -36 -4
-50 -8z"/>
<path d="M455 3520 c-18 -8 -18 -9 5 -9 14 0 34 4 45 9 18 8 18 9 -5 9 -14 0
-34 -4 -45 -9z"/>
<path d="M4605 3505 c-154 -13 -309 -24 -344 -24 -40 -1 -61 -5 -55 -10 5 -6
99 -2 244 9 129 11 279 22 333 26 54 4 100 11 103 15 3 5 4 8 2 8 -2 -1 -129
-12 -283 -24z"/>
<path d="M535 3510 l-20 -9 20 0 c11 0 29 4 40 9 l20 9 -20 0 c-11 0 -29 -4
-40 -9z"/>
<path d="M600 3499 c-19 -5 -14 -7 23 -8 26 -1 47 1 47 3 0 8 -46 12 -70 5z"/>
<path d="M1093 3425 c0 -38 2 -53 4 -32 2 20 2 52 0 70 -2 17 -4 1 -4 -38z"/>
<path d="M3937 3473 c18 -2 50 -2 70 0 21 2 7 4 -32 4 -38 0 -55 -2 -38 -4z"/>
<path d="M4590 3449 c-195 -15 -368 -29 -385 -30 -22 -1 -24 -3 -9 -6 12 -2
173 7 359 22 186 14 353 25 372 25 l33 0 3 -247 2 -248 3 258 c1 201 -1 257
-10 256 -7 -1 -173 -14 -368 -30z"/>
<path d="M283 3445 c2 -34 -28 -58 -43 -35 -8 12 -10 12 -10 1 0 -8 -7 -11
-20 -8 -11 3 -20 1 -20 -4 0 -5 -7 -9 -15 -9 -8 0 -15 -4 -15 -10 0 -5 8 -10
17 -10 13 0 14 -3 5 -12 -17 -17 -15 -33 3 -18 10 8 13 20 9 34 -6 18 -5 19
10 7 10 -9 16 -10 16 -2 0 6 19 11 48 12 27 0 40 3 30 7 -15 6 -15 9 -2 26 8
11 14 16 14 12 0 -5 6 -3 14 4 12 9 16 5 22 -24 5 -29 11 -36 30 -36 13 0 24
-5 24 -11 0 -7 10 -9 24 -7 34 7 37 -6 35 -154 0 -70 2 -128 5 -128 79 0 86 1
86 14 0 15 30 77 41 86 4 3 1 10 -6 17 -10 9 -14 3 -19 -28 -3 -21 -11 -39
-16 -39 -6 0 -10 -9 -10 -20 0 -16 -7 -20 -35 -20 l-36 0 1 118 c1 112 -10
205 -25 220 -4 4 -6 0 -5 -8 5 -32 -1 -50 -15 -50 -8 0 -15 7 -15 15 0 11 -7
14 -23 10 -21 -6 -25 -1 -36 35 -10 34 -15 39 -27 29 -11 -9 -17 -9 -28 1 -13
10 -15 7 -13 -15z"/>
<path d="M3823 3463 c15 -2 39 -2 55 0 15 2 2 4 -28 4 -30 0 -43 -2 -27 -4z"/>
<path d="M3713 3453 c15 -2 37 -2 50 0 12 2 0 4 -28 4 -27 0 -38 -2 -22 -4z"/>
<path d="M3603 3443 c15 -2 37 -2 50 0 12 2 0 4 -28 4 -27 0 -38 -2 -22 -4z"/>
<path d="M3780 3429 c-107 -10 -206 -23 -220 -28 -21 -9 -19 -9 15 -6 133 15
405 39 433 40 17 0 32 3 32 8 0 10 -33 8 -260 -14z"/>
<path d="M3538 3433 c7 -3 16 -2 19 1 4 3 -2 6 -13 5 -11 0 -14 -3 -6 -6z"/>
<path d="M160 3414 c0 -8 5 -12 10 -9 6 4 8 11 5 16 -9 14 -15 11 -15 -7z"/>
<path d="M4840 3391 c0 -6 17 -7 38 -4 51 8 53 13 4 13 -23 0 -42 -4 -42 -9z"/>
<path d="M488 3383 c12 -2 30 -2 40 0 9 3 -1 5 -23 4 -22 0 -30 -2 -17 -4z"/>
<path d="M4798 3383 c6 -2 18 -2 25 0 6 3 1 5 -13 5 -14 0 -19 -2 -12 -5z"/>
<path d="M588 3373 c12 -2 32 -2 45 0 12 2 2 4 -23 4 -25 0 -35 -2 -22 -4z"/>
<path d="M674 3368 c-3 -4 21 -7 53 -7 60 1 56 5 -10 11 -21 2 -40 0 -43 -4z"/>
<path d="M4008 3373 c6 -2 18 -2 25 0 6 3 1 5 -13 5 -14 0 -19 -2 -12 -5z"/>
<path d="M3948 3363 c7 -3 16 -2 19 1 4 3 -2 6 -13 5 -11 0 -14 -3 -6 -6z"/>
<path d="M818 3353 c12 -2 30 -2 40 0 9 3 -1 5 -23 4 -22 0 -30 -2 -17 -4z"/>
<path d="M3760 3350 c0 -6 19 -7 48 -3 64 8 66 13 4 13 -29 0 -52 -4 -52 -10z"/>
<path d="M4878 3353 c12 -2 32 -2 45 0 12 2 2 4 -23 4 -25 0 -35 -2 -22 -4z"/>
<path d="M913 3343 c9 -2 23 -2 30 0 6 3 -1 5 -18 5 -16 0 -22 -2 -12 -5z"/>
<path d="M948 3325 c-10 -13 -18 -30 -18 -37 1 -7 8 -1 16 15 11 20 22 27 47
28 27 0 29 2 12 9 -31 13 -39 11 -57 -15z"/>
<path d="M3608 3341 c-31 -3 -60 -9 -64 -13 -10 -10 157 3 176 13 17 10 -22
10 -112 0z"/>
<path d="M4768 3343 c18 -2 45 -2 60 0 15 2 0 4 -33 4 -33 0 -45 -2 -27 -4z"/>
<path d="M4598 3333 c17 -2 47 -2 65 0 17 2 3 4 -33 4 -36 0 -50 -2 -32 -4z"/>
<path d="M4458 3323 c17 -2 47 -2 65 0 17 2 3 4 -33 4 -36 0 -50 -2 -32 -4z"/>
<path d="M4278 3313 c23 -2 61 -2 85 0 23 2 4 4 -43 4 -47 0 -66 -2 -42 -4z"/>
<path d="M4698 3195 c-2 -95 0 -125 10 -125 9 0 12 32 12 125 0 72 -4 125 -9
125 -6 0 -11 -56 -13 -125z"/>
<path d="M4750 3193 l0 -123 36 0 37 0 -7 38 c-3 20 -6 43 -6 50 0 6 -4 12
-10 12 -5 0 -10 -21 -10 -46 0 -27 -4 -43 -10 -39 -6 3 -10 52 -10 111 l0 104
35 0 c52 0 43 15 -10 16 l-45 1 0 -124z"/>
<path d="M3948 3303 c12 -2 30 -2 40 0 9 3 -1 5 -23 4 -22 0 -30 -2 -17 -4z"/>
<path d="M4195 3299 c-4 -6 -5 -12 -2 -15 2 -3 7 2 10 11 7 17 1 20 -8 4z"/>
<path d="M4909 3303 c0 -5 -1 -53 -2 -108 l0 -100 -7 90 -6 90 -2 -97 c-2 -92
-1 -98 18 -98 19 0 20 7 20 115 0 70 -4 115 -10 115 -5 0 -10 -3 -11 -7z"/>
<path d="M637 3258 c-8 -57 -1 -61 10 -6 l9 43 19 -60 c21 -67 30 -82 39 -66
4 6 2 11 -4 11 -7 0 -9 8 -5 21 5 15 4 19 -4 15 -7 -5 -11 1 -11 14 0 22 -27
70 -40 70 -4 0 -10 -19 -13 -42z"/>
<path d="M900 3280 c-6 -11 -7 -20 -2 -20 6 0 12 9 15 20 3 11 3 20 1 20 -2 0
-8 -9 -14 -20z"/>
<path d="M3776 3291 c-4 -5 12 -7 36 -4 57 8 61 13 10 13 -22 0 -43 -4 -46 -9z"/>
<path d="M502 3270 c0 -14 2 -19 5 -12 2 6 2 18 0 25 -3 6 -5 1 -5 -13z"/>
<path d="M3585 3280 c-47 -6 -45 -7 25 -7 41 0 89 3 105 7 24 6 19 8 -25 7
-30 0 -77 -3 -105 -7z"/>
<path d="M4310 3175 c0 -98 -2 -115 -16 -115 -13 0 -15 11 -12 70 2 51 0 70
-9 70 -9 0 -13 -22 -13 -76 l0 -75 33 3 32 3 3 118 c2 75 -1 117 -8 117 -6 0
-10 -43 -10 -115z"/>
<path d="M4620 3180 c0 -93 2 -110 16 -110 13 0 15 16 13 110 -2 84 -6 110
-16 110 -10 0 -13 -25 -13 -110z"/>
<path d="M4660 3180 c0 -67 4 -110 10 -110 6 0 10 43 10 110 0 67 -4 110 -10
110 -6 0 -10 -43 -10 -110z"/>
<path d="M4590 3175 c0 -63 4 -105 10 -105 6 0 10 42 10 105 0 63 -4 105 -10
105 -6 0 -10 -42 -10 -105z"/>
<path d="M522 3250 c0 -14 3 -45 7 -70 6 -34 9 -37 9 -15 1 17 -3 48 -7 70 -6
25 -9 31 -9 15z"/>
<path d="M856 3254 c-3 -8 -10 -12 -16 -9 -5 3 -10 2 -10 -4 0 -5 -10 -12 -22
-14 -18 -3 -16 -5 7 -5 21 -1 35 6 48 23 10 14 14 25 9 25 -6 0 -13 -7 -16
-16z"/>
<path d="M4442 3170 c3 -55 1 -100 -4 -100 -4 0 -8 27 -8 60 0 33 -4 60 -10
60 -6 0 -10 -28 -10 -65 0 -63 1 -65 25 -65 l25 0 0 105 c0 72 -4 105 -11 105
-8 0 -10 -29 -7 -100z"/>
<path d="M4858 3168 c-2 -83 -2 -86 -5 -25 -5 86 -23 79 -23 -9 0 -62 1 -65
23 -62 21 3 22 8 25 96 2 59 -1 92 -8 92 -6 0 -11 -37 -12 -92z"/>
<path d="M730 3215 c0 -19 4 -35 8 -35 4 0 6 16 4 35 -2 19 -6 35 -8 35 -2 0
-4 -16 -4 -35z"/>
<path d="M761 3217 c-13 -21 -12 -21 5 -5 10 10 16 20 13 22 -3 3 -11 -5 -18
-17z"/>
<path d="M601 3224 c1 -21 16 -47 21 -38 4 5 0 18 -8 29 -8 10 -14 15 -13 9z"/>
<path d="M4360 3145 c0 -50 4 -85 10 -85 6 0 10 35 10 85 0 50 -4 85 -10 85
-6 0 -10 -35 -10 -85z"/>
<path d="M4550 3150 c0 -47 4 -80 10 -80 6 0 10 33 10 80 0 47 -4 80 -10 80
-6 0 -10 -33 -10 -80z"/>
<path d="M4192 3108 l-2 -108 123 2 122 2 -117 3 -117 4 -4 102 -3 102 -2
-107z"/>
<path d="M4220 3200 c0 -5 5 -10 10 -10 6 0 10 5 10 10 0 6 -4 10 -10 10 -5 0
-10 -4 -10 -10z"/>
<path d="M765 3190 c-3 -5 -1 -10 4 -10 6 0 11 5 11 10 0 6 -2 10 -4 10 -3 0
-8 -4 -11 -10z"/>
<path d="M4480 3126 c0 -64 1 -67 23 -64 19 3 22 10 25 51 2 28 -1 47 -7 47
-6 0 -12 -21 -12 -47 l-1 -48 -9 59 c-12 81 -19 82 -19 2z"/>
<path d="M4231 3154 c0 -11 3 -14 6 -6 3 7 2 16 -1 19 -3 4 -6 -2 -5 -13z"/>
<path d="M363 3093 c15 -2 39 -2 55 0 15 2 2 4 -28 4 -30 0 -43 -2 -27 -4z"/>
<path d="M3948 3093 c18 -2 45 -2 60 0 15 2 0 4 -33 4 -33 0 -45 -2 -27 -4z"/>
<path d="M3828 3083 c18 -2 45 -2 60 0 15 2 0 4 -33 4 -33 0 -45 -2 -27 -4z"/>
<path d="M578 3073 c12 -2 32 -2 45 0 12 2 2 4 -23 4 -25 0 -35 -2 -22 -4z"/>
<path d="M3708 3073 c18 -2 45 -2 60 0 15 2 0 4 -33 4 -33 0 -45 -2 -27 -4z"/>
<path d="M673 3063 c15 -2 37 -2 50 0 12 2 0 4 -28 4 -27 0 -38 -2 -22 -4z"/>
<path d="M3568 3063 c17 -2 47 -2 65 0 17 2 3 4 -33 4 -36 0 -50 -2 -32 -4z"/>
<path d="M768 3053 c12 -2 32 -2 45 0 12 2 2 4 -23 4 -25 0 -35 -2 -22 -4z"/>
<path d="M3448 3053 c18 -2 45 -2 60 0 15 2 0 4 -33 4 -33 0 -45 -2 -27 -4z"/>
<path d="M863 3043 c15 -2 37 -2 50 0 12 2 0 4 -28 4 -27 0 -38 -2 -22 -4z"/>
<path d="M1090 3041 c0 -5 -10 -12 -22 -14 -20 -4 -19 -4 5 -6 18 -1 27 4 27
14 0 8 -2 15 -5 15 -3 0 -5 -4 -5 -9z"/>
<path d="M3333 3043 c15 -2 39 -2 55 0 15 2 2 4 -28 4 -30 0 -43 -2 -27 -4z"/>
<path d="M4053 3043 c-7 -2 -13 -9 -13 -14 0 -6 4 -8 9 -5 5 4 11 0 14 -6 3
-7 4 -3 4 10 -1 12 -1 22 -2 21 0 0 -6 -3 -12 -6z"/>
<path d="M963 3033 c15 -2 39 -2 55 0 15 2 2 4 -28 4 -30 0 -43 -2 -27 -4z"/>
<path d="M3228 3033 c12 -2 32 -2 45 0 12 2 2 4 -23 4 -25 0 -35 -2 -22 -4z"/>
<path d="M4758 3023 c34 -2 88 -2 120 0 31 2 3 3 -63 3 -66 0 -92 -1 -57 -3z"/>
<path d="M4523 3013 c31 -2 83 -2 115 0 31 2 5 3 -58 3 -63 0 -89 -1 -57 -3z"/>
<path d="M3794 2977 c-16 -18 -16 -19 -2 -8 15 11 24 11 48 1 17 -7 42 -9 57
-5 16 3 51 10 78 14 l50 8 -52 2 c-28 0 -54 -3 -57 -8 -8 -12 -56 -8 -82 7
-18 10 -24 8 -40 -11z"/>
<path d="M4037 2982 c-17 -11 -35 -38 -50 -77 -13 -33 -29 -59 -34 -58 -6 1
-13 -11 -15 -27 -6 -42 15 -38 30 5 9 23 18 32 27 28 8 -3 15 -1 15 5 0 6 -5
12 -11 14 -8 3 -6 15 4 41 16 38 31 47 41 25 3 -7 4 -1 1 15 -4 20 -1 27 10
27 8 0 15 5 15 10 0 13 0 13 -33 -8z"/>
<path d="M4683 2993 c23 -4 27 -9 27 -38 0 -29 -4 -34 -27 -38 -26 -4 -26 -4
5 -6 32 -1 32 0 32 44 0 44 0 45 -32 44 -31 -2 -31 -2 -5 -6z"/>
<path d="M4768 2993 c23 -2 59 -2 80 0 20 2 1 4 -43 4 -44 0 -61 -2 -37 -4z"/>
<path d="M4365 2948 l0 -43 -90 -6 -90 -5 80 -2 c114 -2 121 1 117 49 l-4 39
76 0 76 0 0 -35 0 -34 -67 -4 -68 -3 73 -2 72 -2 0 45 0 45 -87 0 -88 0 0 -42z"/>
<path d="M4568 2983 c6 -2 18 -2 25 0 6 3 1 5 -13 5 -14 0 -19 -2 -12 -5z"/>
<path d="M3303 2943 c-1 -38 -1 -38 9 -10 6 18 7 32 1 38 -6 6 -10 -4 -10 -28z"/>
<path d="M4218 2973 c17 -2 47 -2 65 0 17 2 3 4 -33 4 -36 0 -50 -2 -32 -4z"/>
<path d="M3260 2960 c0 -5 5 -10 10 -10 6 0 10 5 10 10 0 6 -4 10 -10 10 -5 0
-10 -4 -10 -10z"/>
<path d="M4401 2954 c0 -11 3 -14 6 -6 3 7 2 16 -1 19 -3 4 -6 -2 -5 -13z"/>
<path d="M4610 2960 l-45 -7 45 -1 c25 0 54 3 65 8 l20 9 -20 -1 c-11 -1 -40
-4 -65 -8z"/>
<path d="M3726 2945 c-11 -8 -29 -16 -40 -16 -16 -1 -17 -2 -4 -6 9 -2 33 5
54 16 21 12 32 21 24 21 -8 0 -24 -7 -34 -15z"/>
<path d="M4255 2950 c-19 -8 -19 -9 3 -9 12 -1 22 4 22 9 0 6 -1 10 -2 9 -2 0
-12 -4 -23 -9z"/>
<path d="M4330 2950 c0 -5 5 -10 11 -10 5 0 7 5 4 10 -3 6 -8 10 -11 10 -2 0
-4 -4 -4 -10z"/>
<path d="M4465 2950 l-40 -7 37 -2 c20 0 40 4 43 9 3 6 5 9 3 9 -2 -1 -21 -5
-43 -9z"/>
<path d="M3571 2911 c-24 -15 42 -20 69 -5 14 7 21 13 15 13 -5 1 -17 -3 -24
-8 -9 -6 -22 -6 -31 -1 -9 5 -22 5 -29 1z"/>
<path d="M4777 2913 c18 -2 50 -2 70 0 21 2 7 4 -32 4 -38 0 -55 -2 -38 -4z"/>
<path d="M158 2900 c18 -4 86 -10 150 -13 l117 -6 -115 14 c-63 7 -131 13
-150 13 l-35 0 33 -8z"/>
<path d="M650 2884 c157 -12 308 -22 335 -22 28 0 -69 11 -215 23 -146 13
-296 23 -335 23 -38 0 58 -11 215 -24z"/>
<path d="M3470 2884 c-25 -9 -52 -16 -60 -18 -8 -1 -22 -5 -30 -9 -8 -3 -24
-8 -35 -10 -15 -4 -13 -5 7 -6 15 0 30 4 33 9 4 6 10 8 15 5 5 -3 21 0 37 6
15 6 48 17 73 24 25 7 36 13 25 13 -11 1 -40 -6 -65 -14z"/>
<path d="M448 2873 c12 -2 30 -2 40 0 9 3 -1 5 -23 4 -22 0 -30 -2 -17 -4z"/>
<path d="M520 2861 c0 -11 39 -26 47 -17 8 8 3 12 -24 20 -13 4 -23 3 -23 -3z"/>
<path d="M3265 2860 c3 -5 8 -10 11 -10 2 0 4 5 4 10 0 6 -5 10 -11 10 -5 0
-7 -4 -4 -10z"/>
<path d="M3306 2834 c-4 -20 -5 -38 -3 -40 3 -3 8 11 11 32 4 20 5 38 3 40 -3
3 -8 -11 -11 -32z"/>
<path d="M162 2813 c-1 -31 -7 -53 -14 -56 -21 -6 97 -16 257 -21 l150 -4
-140 9 c-77 5 -163 12 -192 15 l-52 5 -4 52 -3 52 -2 -52z"/>
<path d="M201 2833 c0 -25 1 -26 9 -8 12 27 12 35 0 35 -5 0 -10 -12 -9 -27z"/>
<path d="M580 2849 c0 -6 7 -9 15 -5 8 3 15 2 15 -2 0 -4 11 -9 25 -10 15 -1
25 3 25 11 0 8 -15 14 -40 15 -25 2 -40 -2 -40 -9z"/>
<path d="M1048 2853 c7 -3 16 -2 19 1 4 3 -2 6 -13 5 -11 0 -14 -3 -6 -6z"/>
<path d="M225 2839 c-4 -6 -4 -13 -1 -16 11 -11 56 -12 56 -2 0 6 -4 7 -10 4
-5 -3 -10 1 -10 9 0 18 -25 22 -35 5z"/>
<path d="M291 2834 c-1 -12 5 -21 14 -21 9 0 15 9 15 21 0 16 -2 18 -9 7 -7
-11 -9 -11 -14 0 -3 9 -6 6 -6 -7z"/>
<path d="M3900 2815 c-5 -14 -16 -25 -24 -25 -19 0 -73 -68 -81 -103 -8 -32
-15 -33 -38 -7 -9 11 -21 20 -26 20 -4 0 -20 -9 -34 -20 -29 -23 -72 -25 -107
-5 -36 21 -43 19 -101 -26 -45 -34 -59 -39 -88 -35 -36 6 -71 -7 -71 -26 0 -8
6 -6 16 4 11 11 28 14 58 11 35 -4 47 -1 73 21 54 46 84 57 108 42 40 -26 79
-28 107 -6 33 25 46 25 75 -1 l22 -22 11 27 c5 15 10 30 10 34 0 4 14 24 31
45 20 24 39 37 54 37 18 0 23 4 19 15 -4 8 -1 22 6 30 9 11 9 15 1 15 -6 0
-16 -11 -21 -25z"/>
<path d="M840 2805 c0 -7 16 -12 35 -12 23 0 35 5 35 14 0 16 -12 17 -29 1
-10 -9 -12 -9 -7 -1 4 8 -1 11 -14 10 -11 -1 -20 -6 -20 -12z"/>
<path d="M920 2810 c0 -15 38 -32 45 -20 3 5 1 10 -5 10 -6 0 -9 4 -6 8 2 4
-4 9 -15 9 -10 1 -19 -2 -19 -7z"/>
<path d="M4878 2813 c7 -3 16 -2 19 1 4 3 -2 6 -13 5 -11 0 -14 -3 -6 -6z"/>
<path d="M510 2797 c0 -5 9 -7 20 -4 11 3 20 2 20 -3 0 -4 20 -7 45 -7 25 0
45 4 45 10 0 5 -9 7 -20 4 -10 -3 -21 0 -24 7 -3 7 -5 7 -5 -2 -1 -8 -6 -10
-13 -5 -18 11 -68 11 -68 0z"/>
<path d="M981 2794 c0 -11 3 -14 6 -6 3 7 2 16 -1 19 -3 4 -6 -2 -5 -13z"/>
<path d="M4643 2803 c43 -2 110 -2 150 0 40 1 5 3 -78 3 -82 0 -115 -2 -72 -3z"/>
<path d="M655 2790 c3 -5 12 -7 20 -3 8 3 15 1 15 -4 0 -5 9 -9 20 -10 11 -1
20 4 20 11 0 8 -15 13 -41 14 -23 1 -38 -2 -34 -8z"/>
<path d="M4302 2793 c37 -2 100 -2 140 0 40 1 10 3 -67 3 -77 0 -110 -1 -73
-3z"/>
<path d="M3589 2767 c18 -7 44 -25 57 -41 30 -34 31 -20 1 16 -14 17 -36 30
-57 33 l-35 5 34 -13z"/>
<path d="M4630 2675 c0 -87 -3 -105 -15 -105 -12 0 -15 16 -15 85 0 50 -4 85
-10 85 -6 0 -10 -35 -10 -85 0 -50 -4 -85 -10 -85 -6 0 -10 27 -10 61 0 77
-19 70 -22 -9 -1 -36 -3 -45 -5 -24 -5 38 -22 33 -24 -6 -1 -24 -3 -23 -9 8
l-7 35 -2 -32 c0 -18 -5 -33 -11 -33 -5 0 -9 33 -9 74 l0 75 37 4 37 4 -42 1
-43 2 0 -79 c0 -67 -3 -80 -17 -84 -10 -2 77 -6 194 -8 116 -2 209 -1 206 4
-2 4 -22 7 -44 7 l-39 0 0 105 c0 73 -4 105 -12 105 -8 0 -9 -29 -5 -105 4
-58 3 -105 -2 -105 -10 0 -21 58 -21 113 0 21 -5 37 -11 37 -8 0 -10 -23 -7
-75 3 -41 1 -75 -4 -75 -4 0 -8 17 -9 38 0 34 -1 35 -10 13 -5 -14 -7 -31 -5
-38 3 -7 -1 -13 -9 -13 -12 0 -15 19 -15 105 0 63 -4 105 -10 105 -6 0 -10
-42 -10 -105z"/>
<path d="M3301 2754 c0 -11 3 -14 6 -6 3 7 2 16 -1 19 -3 4 -6 -2 -5 -13z"/>
<path d="M3493 2755 c-13 -9 -32 -13 -45 -10 -13 3 -48 -3 -78 -14 -30 -11
-48 -20 -40 -20 8 0 33 6 55 14 22 8 50 12 62 8 13 -3 30 0 37 7 8 6 27 15 43
20 21 6 23 8 8 9 -11 1 -30 -6 -42 -14z"/>
<path d="M3258 2733 c7 -3 16 -2 19 1 4 3 -2 6 -13 5 -11 0 -14 -3 -6 -6z"/>
<path d="M603 2723 c26 -2 67 -2 90 0 23 2 2 3 -48 3 -49 0 -68 -1 -42 -3z"/>
<path d="M783 2713 c26 -2 67 -2 90 0 23 2 2 3 -48 3 -49 0 -68 -1 -42 -3z"/>
<path d="M230 2700 c80 -8 266 -12 259 -6 -2 2 -78 6 -169 8 -100 3 -135 2
-90 -2z"/>
<path d="M3303 2660 c0 -25 2 -35 4 -22 2 12 2 32 0 45 -2 12 -4 2 -4 -23z"/>
<path d="M4383 2683 c9 -2 23 -2 30 0 6 3 -1 5 -18 5 -16 0 -22 -2 -12 -5z"/>
<path d="M3250 2669 c0 -5 5 -7 10 -4 6 3 10 8 10 11 0 2 -4 4 -10 4 -5 0 -10
-5 -10 -11z"/>
<path d="M4248 2673 c12 -2 32 -2 45 0 12 2 2 4 -23 4 -25 0 -35 -2 -22 -4z"/>
<path d="M4797 2663 c18 -2 50 -2 70 0 21 2 7 4 -32 4 -38 0 -55 -2 -38 -4z"/>
<path d="M180 2621 c24 -9 218 -15 209 -7 -2 2 -56 6 -119 9 -68 4 -105 3 -90
-2z"/>
<path d="M3250 2610 c0 -5 5 -10 10 -10 6 0 10 5 10 10 0 6 -4 10 -10 10 -5 0
-10 -4 -10 -10z"/>
<path d="M3304 2588 c3 -13 6 -26 6 -30 0 -5 17 -7 38 -6 36 1 36 1 5 5 -31 4
-38 12 -34 41 1 6 -3 12 -10 12 -7 0 -9 -9 -5 -22z"/>
<path d="M3988 2603 c6 -2 18 -2 25 0 6 3 1 5 -13 5 -14 0 -19 -2 -12 -5z"/>
<path d="M4358 2603 c12 -2 32 -2 45 0 12 2 2 4 -23 4 -25 0 -35 -2 -22 -4z"/>
<path d="M4780 2601 c0 -6 5 -13 12 -17 7 -4 8 -3 4 4 -5 8 0 12 13 12 10 0
21 -4 23 -9 2 -5 17 -12 33 -15 l30 -6 -27 11 c-16 6 -28 15 -28 20 0 5 -13 9
-30 9 -16 0 -30 -4 -30 -9z"/>
<path d="M4858 2603 c7 -3 16 -2 19 1 4 3 -2 6 -13 5 -11 0 -14 -3 -6 -6z"/>
<path d="M3748 2593 c7 -3 16 -2 19 1 4 3 -2 6 -13 5 -11 0 -14 -3 -6 -6z"/>
<path d="M188 2573 c17 -2 47 -2 65 0 17 2 3 4 -33 4 -36 0 -50 -2 -32 -4z"/>
<path d="M368 2563 c39 -2 105 -2 145 0 39 1 7 3 -73 3 -80 0 -112 -2 -72 -3z"/>
<path d="M658 2553 c28 -2 76 -2 105 0 28 2 5 3 -53 3 -58 0 -81 -1 -52 -3z"/>
<path d="M3212 2523 l-2 -43 123 2 122 2 -117 3 -117 4 -4 37 -4 37 -1 -42z"/>
<path d="M3258 2553 c7 -3 16 -2 19 1 4 3 -2 6 -13 5 -11 0 -14 -3 -6 -6z"/>
<path d="M898 2543 c6 -2 18 -2 25 0 6 3 1 5 -13 5 -14 0 -19 -2 -12 -5z"/>
<path d="M4247 2533 c18 -2 50 -2 70 0 21 2 7 4 -32 4 -38 0 -55 -2 -38 -4z"/>
<path d="M889 2428 c0 -26 -2 -29 -8 -13 -7 18 -8 18 -12 -5 -3 -14 -2 -67 1
-118 4 -68 10 -97 23 -109 16 -16 17 -13 15 52 l-1 70 -6 -60 -6 -60 -7 40
c-12 61 -10 173 2 155 7 -11 10 -2 10 33 0 52 -10 66 -11 15z"/>
<path d="M3922 2433 l107 -4 4 -124 3 -125 -1 127 0 128 -110 1 -110 0 107 -3z"/>
<path d="M3538 2423 c34 -2 88 -2 120 0 31 2 3 3 -63 3 -66 0 -92 -1 -57 -3z"/>
<path d="M3032 2313 l2 -108 3 102 4 102 57 4 57 3 -62 2 -63 2 2 -107z"/>
<path d="M3444 2180 c0 -135 2 -190 3 -122 2 67 2 177 0 245 -1 67 -3 12 -3
-123z"/>
<path d="M581 2352 c-1 -20 -10 -41 -24 -55 -13 -12 -16 -16 -7 -9 27 20 37
14 45 -24 9 -49 26 -84 40 -84 7 0 16 -8 21 -19 9 -18 10 -18 28 0 18 17 18
18 -3 12 -16 -4 -23 1 -31 23 -8 20 -13 25 -19 16 -5 -9 -14 9 -25 48 -10 34
-15 64 -13 67 3 2 8 -5 12 -16 6 -21 25 -29 25 -11 0 6 -4 10 -9 10 -4 0 -15
17 -24 38 l-15 37 -1 -33z"/>
<path d="M796 2373 c-3 -3 -6 -16 -5 -27 1 -18 2 -18 8 4 7 23 9 21 17 -18 9
-45 26 -59 32 -28 2 11 0 16 -6 12 -6 -3 -13 7 -17 24 -7 31 -18 44 -29 33z"/>
<path d="M851 2344 c0 -11 3 -14 6 -6 3 7 2 16 -1 19 -3 4 -6 -2 -5 -13z"/>
<path d="M3328 2290 c2 -33 7 -60 10 -60 9 0 2 103 -6 112 -4 4 -5 -20 -4 -52z"/>
<path d="M3120 2318 c0 -6 3 -8 7 -5 3 4 16 -1 27 -10 21 -18 21 -18 2 5 -21
24 -36 29 -36 10z"/>
<path d="M3212 2305 c-7 -16 -17 -23 -24 -19 -7 5 -8 3 -4 -5 6 -9 12 -9 25 3
21 19 82 21 100 4 10 -11 11 -10 6 5 -7 18 -15 20 -54 17 -13 -1 -27 3 -31 9
-4 7 -11 2 -18 -14z"/>
<path d="M3990 2170 c0 -100 -4 -160 -10 -160 -6 0 -10 58 -10 155 0 208 -18
204 -22 -5 l-3 -160 35 0 35 0 -3 165 c-4 216 -22 220 -22 5z"/>
<path d="M235 2301 c-4 -13 -13 -18 -28 -15 -21 4 -21 4 -2 -5 29 -14 35 -13
36 7 0 10 3 12 6 5 3 -9 27 -13 68 -13 49 0 66 -4 73 -17 7 -11 15 -14 28 -8
17 7 16 9 -11 21 -16 7 -56 13 -87 14 -45 0 -58 3 -58 15 0 21 -18 19 -25 -4z"/>
<path d="M714 2291 c-6 -29 -7 -30 -33 -14 -23 14 -23 13 4 -10 17 -15 33 -26
36 -27 4 0 6 18 5 40 -1 48 -4 50 -12 11z"/>
<path d="M768 2283 c0 -16 0 -35 1 -43 1 -8 3 -25 4 -37 1 -15 6 -18 13 -12 8
7 19 1 32 -16 l21 -26 16 31 c9 18 14 34 11 37 -3 3 -10 -7 -16 -23 l-12 -29
-20 25 c-11 14 -24 24 -29 23 -4 -2 -7 20 -5 47 1 28 -2 50 -6 50 -4 0 -9 -12
-10 -27z"/>
<path d="M3907 2160 c4 -110 3 -150 -5 -150 -8 0 -12 32 -12 105 0 63 -4 105
-10 105 -6 0 -10 -43 -10 -110 l0 -110 30 0 c30 0 30 0 30 58 0 101 -13 252
-21 252 -5 0 -5 -67 -2 -150z"/>
<path d="M740 2247 c0 -52 -8 -79 -21 -71 -5 3 -9 -22 -9 -55 l0 -61 -117 -2
-118 -2 109 -3 c61 -2 116 -9 123 -15 9 -7 13 -7 13 0 0 6 17 13 38 15 l37 4
-37 1 c-36 2 -38 4 -38 36 0 41 19 98 30 91 9 -5 3 95 -5 104 -3 2 -5 -16 -5
-42z"/>
<path d="M4064 2175 c0 -60 1 -84 3 -52 2 32 2 81 0 110 -2 29 -3 3 -3 -58z"/>
<path d="M261 2254 c0 -11 3 -14 6 -6 3 7 2 16 -1 19 -3 4 -6 -2 -5 -13z"/>
<path d="M572 2245 c0 -16 2 -22 5 -12 2 9 2 23 0 30 -3 6 -5 -1 -5 -18z"/>
<path d="M449 2252 c8 -3 9 -8 2 -15 -7 -9 0 -12 23 -12 22 0 32 5 32 16 0 10
-10 15 -35 15 -19 0 -29 -2 -22 -4z"/>
<path d="M3800 2125 c0 -96 -3 -115 -15 -115 -12 0 -15 13 -15 59 0 33 -4 63
-10 66 -6 4 -10 -20 -10 -65 l0 -71 53 2 52 2 -3 115 c-4 135 -22 136 -22 2 0
-47 -5 -92 -11 -100 -7 -11 -9 20 -7 103 2 64 0 117 -4 117 -5 0 -8 -52 -8
-115z"/>
<path d="M271 2214 c0 -11 3 -14 6 -6 3 7 2 16 -1 19 -3 4 -6 -2 -5 -13z"/>
<path d="M3115 2219 c-19 -4 1 -7 55 -7 89 0 97 4 20 10 -25 2 -58 1 -75 -3z"/>
<path d="M403 2213 c-13 -2 -23 -9 -23 -14 0 -13 13 -11 36 6 10 8 17 14 14
13 -3 0 -15 -3 -27 -5z"/>
<path d="M3288 2213 c7 -3 16 -2 19 1 4 3 -2 6 -13 5 -11 0 -14 -3 -6 -6z"/>
<path d="M3670 2110 l0 -110 35 0 c34 0 46 12 25 25 -5 3 -10 1 -10 -4 0 -6
-7 -11 -15 -11 -11 0 -15 10 -14 38 l2 37 6 -35 7 -35 5 38 c4 26 1 37 -8 37
-9 0 -13 18 -13 65 0 37 -4 65 -10 65 -6 0 -10 -43 -10 -110z"/>
<path d="M517 2194 c3 -8 11 -14 19 -14 21 0 17 17 -5 23 -14 3 -18 1 -14 -9z"/>
<path d="M561 2194 c0 -11 3 -14 6 -6 3 7 2 16 -1 19 -3 4 -6 -2 -5 -13z"/>
<path d="M318 2193 c-38 -4 -48 -16 -26 -29 7 -5 8 -3 3 6 -6 10 -2 11 16 7
14 -3 32 0 43 9 11 8 16 13 10 12 -5 -1 -26 -3 -46 -5z"/>
<path d="M3620 2095 c0 -88 1 -95 20 -95 19 0 20 7 20 95 0 88 -1 95 -20 95
-19 0 -20 -7 -20 -95z m17 -48 c-2 -23 -3 -1 -3 48 0 50 1 68 3 42 2 -26 2
-67 0 -90z"/>
<path d="M3510 2084 c0 -58 4 -81 13 -81 9 0 11 19 9 71 -5 101 -22 109 -22
10z"/>
<path d="M3173 2123 c37 -2 96 -2 130 0 34 2 4 3 -68 3 -71 0 -99 -1 -62 -3z"/>
<path d="M430 2071 c0 -7 -49 -12 -132 -14 l-133 -3 132 -2 c116 -2 132 -4
136 -19 4 -17 5 -17 6 0 0 10 6 15 11 12 15 -9 12 4 -5 21 -8 9 -15 11 -15 5z"/>
<path d="M3580 2041 c0 -27 4 -41 13 -41 9 0 12 11 9 35 -6 50 -22 54 -22 6z"/>
<path d="M840 2050 c-23 -6 -23 -7 10 -12 19 -3 40 -2 46 3 6 5 14 6 17 2 4
-3 7 -1 7 5 0 11 -39 13 -80 2z"/>
<path d="M3203 2053 c31 -2 83 -2 115 0 31 2 5 3 -58 3 -63 0 -89 -1 -57 -3z"/>
<path d="M3470 2012 c0 -5 7 -13 16 -16 10 -4 14 -1 12 6 -5 15 -28 23 -28 10z"/>
<path d="M3550 2010 c0 -5 5 -10 10 -10 6 0 10 5 10 10 0 6 -4 10 -10 10 -5 0
-10 -4 -10 -10z"/>
<path d="M3193 1983 c26 -2 68 -2 95 0 26 2 4 3 -48 3 -52 0 -74 -1 -47 -3z"/>
<path d="M3470 1950 c-11 -7 -3 -10 28 -10 26 0 41 4 37 10 -8 13 -45 13 -65
0z"/>
<path d="M3843 1953 l147 -4 0 -129 c0 -80 4 -130 10 -130 11 0 14 150 4 224
l-7 46 -151 -2 -151 -2 148 -3z"/>
<path d="M3218 1933 c29 -2 74 -2 100 0 26 2 2 3 -53 3 -55 0 -76 -1 -47 -3z"/>
<path d="M883 1923 c43 -2 110 -2 150 0 40 1 5 3 -78 3 -82 0 -115 -2 -72 -3z"/>
<path d="M3443 1860 c0 -41 2 -58 4 -37 2 20 2 54 0 75 -2 20 -4 3 -4 -38z"/>
<path d="M4024 1805 c0 -71 1 -99 3 -62 2 37 2 96 0 130 -2 34 -3 4 -3 -68z"/>
<path d="M220 1911 c19 -3 152 -4 295 -1 l260 6 -295 1 c-162 0 -279 -2 -260
-6z"/>
<path d="M3922 1863 c-1 -41 -6 -63 -14 -63 -9 0 -9 -3 0 -12 19 -19 23 -4 19
68 l-3 69 -2 -62z"/>
<path d="M3484 1893 c11 -11 128 -14 121 -3 -3 6 -34 10 -67 10 -34 0 -58 -3
-54 -7z"/>
<path d="M3638 1893 c12 -2 30 -2 40 0 9 3 -1 5 -23 4 -22 0 -30 -2 -17 -4z"/>
<path d="M3772 1894 c10 -9 58 -12 58 -3 0 5 -14 9 -32 9 -17 0 -29 -3 -26 -6z"/>
<path d="M150 1870 c0 -5 5 -10 10 -10 6 0 10 5 10 10 0 6 -4 10 -10 10 -5 0
-10 -4 -10 -10z"/>
<path d="M180 1869 c0 -5 12 -9 27 -9 30 0 27 9 -6 15 -11 2 -21 0 -21 -6z"/>
<path d="M835 1870 c-8 -13 5 -13 25 0 13 8 13 10 -2 10 -9 0 -20 -4 -23 -10z"/>
<path d="M423 1863 c54 -2 139 -2 190 0 51 1 7 3 -98 3 -104 0 -146 -2 -92 -3z"/>
<path d="M3628 1853 c7 -3 16 -2 19 1 4 3 -2 6 -13 5 -11 0 -14 -3 -6 -6z"/>
<path d="M3678 1853 c12 -2 32 -2 45 0 12 2 2 4 -23 4 -25 0 -35 -2 -22 -4z"/>
<path d="M3875 1850 c3 -5 8 -10 11 -10 2 0 4 5 4 10 0 6 -5 10 -11 10 -5 0
-7 -4 -4 -10z"/>
<path d="M3480 1840 c0 -6 21 -8 58 -4 77 9 78 14 4 14 -35 0 -62 -4 -62 -10z"/>
<path d="M3788 1843 c6 -2 18 -2 25 0 6 3 1 5 -13 5 -14 0 -19 -2 -12 -5z"/>
<path d="M204 1798 c-3 -4 15 -8 40 -8 25 0 47 3 49 8 3 4 -15 7 -39 8 -25 0
-47 -3 -50 -8z"/>
<path d="M324 1799 c-5 -8 21 -9 92 -4 55 4 101 9 103 11 2 2 -39 4 -92 4 -59
0 -98 -4 -103 -11z"/>
<path d="M665 1801 c-19 -8 158 -4 180 4 6 2 -28 3 -75 4 -47 0 -94 -4 -105
-8z"/>
<path d="M3481 1805 c7 -6 350 -8 356 -1 4 3 -76 6 -177 6 -101 0 -181 -2
-179 -5z"/>
<path d="M3910 1746 c0 -14 5 -26 10 -26 6 0 10 9 10 19 0 11 -4 23 -10 26 -6
4 -10 -5 -10 -19z"/>
<path d="M651 1752 c-7 -2 -1 -10 15 -18 32 -17 37 -15 14 7 -9 8 -22 13 -29
11z"/>
<path d="M3568 1753 c50 -2 134 -2 185 0 50 1 9 3 -93 3 -102 0 -143 -2 -92
-3z"/>
<path d="M977 1743 c18 -2 50 -2 70 0 21 2 7 4 -32 4 -38 0 -55 -2 -38 -4z"/>
<path d="M758 1733 c28 -2 76 -2 105 0 28 2 5 3 -53 3 -58 0 -81 -1 -52 -3z"/>
<path d="M625 1721 c-3 -5 -1 -12 5 -16 5 -3 10 1 10 9 0 18 -6 21 -15 7z"/>
<path d="M360 1705 c0 -8 9 -15 20 -15 11 0 20 2 20 5 0 2 -9 9 -20 15 -16 9
-20 8 -20 -5z"/>
<path d="M416 1711 c-4 -5 -2 -12 3 -15 5 -4 12 -2 15 3 4 5 2 12 -3 15 -5 4
-12 2 -15 -3z"/>
<path d="M960 1710 c-17 -11 -8 -23 14 -18 9 2 12 8 8 15 -5 8 -13 9 -22 3z"/>
<path d="M220 1698 c0 -5 14 -8 30 -8 17 0 30 4 30 9 0 4 -13 8 -30 7 -16 -1
-30 -4 -30 -8z"/>
<path d="M3773 1693 c9 -2 23 -2 30 0 6 3 -1 5 -18 5 -16 0 -22 -2 -12 -5z"/>
<path d="M1040 1682 c0 -6 -8 -13 -17 -15 -16 -4 -16 -5 -1 -6 18 -1 34 16 24
26 -3 4 -6 1 -6 -5z"/>
<path d="M305 1582 c-11 -11 -4 -22 15 -22 11 0 20 6 20 13 0 13 -25 19 -35 9z"/>
<path d="M352 1579 c2 -6 8 -10 13 -10 5 0 11 4 13 10 2 6 -4 11 -13 11 -9 0
-15 -5 -13 -11z"/>
<path d="M150 1570 c0 -5 5 -10 10 -10 6 0 10 5 10 10 0 6 -4 10 -10 10 -5 0
-10 -4 -10 -10z"/>
<path d="M195 1570 c-3 -5 3 -10 14 -10 12 0 21 5 21 10 0 6 -6 10 -14 10 -8
0 -18 -4 -21 -10z"/>
<path d="M246 1571 c9 -10 44 -11 44 -1 0 5 -11 9 -25 8 -13 -1 -22 -4 -19 -7z"/>
<path d="M1053 1573 c9 -2 25 -2 35 0 9 3 1 5 -18 5 -19 0 -27 -2 -17 -5z"/>
<path d="M918 1563 c17 -2 47 -2 65 0 17 2 3 4 -33 4 -36 0 -50 -2 -32 -4z"/>
<path d="M768 1553 c17 -2 47 -2 65 0 17 2 3 4 -33 4 -36 0 -50 -2 -32 -4z"/>
<path d="M608 1543 c23 -2 59 -2 80 0 20 2 1 4 -43 4 -44 0 -61 -2 -37 -4z"/>
<path d="M447 1533 c18 -2 50 -2 70 0 21 2 7 4 -32 4 -38 0 -55 -2 -38 -4z"/>
<path d="M288 1523 c23 -2 59 -2 80 0 20 2 1 4 -43 4 -44 0 -61 -2 -37 -4z"/>
<path d="M173 1513 c9 -2 25 -2 35 0 9 3 1 5 -18 5 -19 0 -27 -2 -17 -5z"/>
<path d="M4045 570 c-3 -5 -1 -10 4 -10 6 0 11 5 11 10 0 6 -2 10 -4 10 -3 0
-8 -4 -11 -10z"/>
<path d="M3065 210 c46 -15 246 -50 275 -49 30 2 -171 43 -250 52 -42 5 -48 4
-25 -3z"/>
<path d="M562 40 c0 -14 2 -19 5 -12 2 6 2 18 0 25 -3 6 -5 1 -5 -13z"/>
</g>
</svg>